<?xml version="1.0" encoding="UTF-8" standalone="no"?>
<!-- Created with Inkscape (http://www.inkscape.org/) -->

<svg
   width="340mm"
   height="150mm"
   viewBox="0 0 340 150"
   version="1.1"
   id="svg1"
   inkscape:version="1.3.2 (091e20ef0f, 2023-11-25, custom)"
   sodipodi:docname="logoText.svg"
   xmlns:inkscape="http://www.inkscape.org/namespaces/inkscape"
   xmlns:sodipodi="http://sodipodi.sourceforge.net/DTD/sodipodi-0.dtd"
   xmlns="http://www.w3.org/2000/svg"
   xmlns:svg="http://www.w3.org/2000/svg">
  <sodipodi:namedview
     id="namedview1"
     pagecolor="#ffffff"
     bordercolor="#000000"
     borderopacity="0.25"
     inkscape:showpageshadow="2"
     inkscape:pageopacity="0.0"
     inkscape:pagecheckerboard="0"
     inkscape:deskcolor="#d1d1d1"
     inkscape:document-units="mm"
     inkscape:zoom="0.32"
     inkscape:cx="445.3125"
     inkscape:cy="264.0625"
     inkscape:window-width="1414"
     inkscape:window-height="835"
     inkscape:window-x="0"
     inkscape:window-y="0"
     inkscape:window-maximized="1"
     inkscape:current-layer="layer1" />
  <defs
     id="defs1" />
  <g
     inkscape:label="Layer 1"
     inkscape:groupmode="layer"
     id="layer1">
    <path
       style="fill:none;stroke:#ffffff;stroke-width:20;stroke-linejoin:round;stroke-dasharray:none;stroke-opacity:1"
       id="path1"
       sodipodi:type="arc"
       sodipodi:cx="87.058273"
       sodipodi:cy="75.004128"
       sodipodi:rx="46.964825"
       sodipodi:ry="46.964825"
       sodipodi:start="0"
       sodipodi:end="4.712389"
       sodipodi:open="true"
       sodipodi:arc-type="arc"
       d="M 134.0231,75.004128 A 46.964825,46.964825 0 0 1 105.03093,118.39397 46.964825,46.964825 0 0 1 53.849127,108.21327 46.964825,46.964825 0 0 1 43.668433,57.031467 46.964825,46.964825 0 0 1 87.058273,28.039303" />
    <path
       id="path1-5"
       style="color:#000000;fill:#ffffff;stroke-linejoin:round;-inkscape-stroke:none;stroke:none;fill-opacity:1"
       d="m 179.73032,18.051773 c -6.93294,0.14831 -13.89772,1.563089 -20.54138,4.314981 -21.25972,8.806067 -35.16478,29.618515 -35.16478,52.629865 0,23.01136 13.90506,43.823801 35.16478,52.629861 18.99075,7.86623 40.60024,4.80011 56.59551,-7.5401 -4.83518,-4.54543 -8.95989,-9.88848 -12.16825,-15.88586 -10.39716,8.0704 -24.38554,10.07823 -36.77347,4.94699 -13.83931,-5.73244 -22.81928,-19.172881 -22.81928,-34.152441 0,-14.97957 8.97997,-28.41691 22.81928,-34.14934 12.37941,-5.127717 26.35732,-3.12655 36.75229,4.92994 2.82392,-5.28753 6.43692,-10.217727 10.8138,-14.594468 0.4445,-0.444482 0.91898,-0.846003 1.37458,-1.274874 -10.39939,-8.022702 -23.16877,-12.130205 -36.0531,-11.854575 z" />
    <path
       style="fill:none;stroke:#ffffff;stroke-width:20;stroke-linejoin:round;stroke-dasharray:none;stroke-opacity:1"
       id="path1-5-2"
       sodipodi:type="arc"
       sodipodi:cx="74.996437"
       sodipodi:cy="-258.22574"
       sodipodi:rx="46.964825"
       sodipodi:ry="46.964825"
       sodipodi:start="0"
       sodipodi:end="4.712389"
       sodipodi:open="true"
       sodipodi:arc-type="arc"
       d="m 121.96126,-258.22574 a 46.964825,46.964825 0 0 1 -28.992163,43.38984 46.964825,46.964825 0 0 1 -51.181806,-10.18069 46.964825,46.964825 0 0 1 -10.180694,-51.18181 46.964825,46.964825 0 0 1 43.38984,-28.99216"
       transform="rotate(90)" />
  </g>
</svg>
