<svg viewBox="0 0 348 116" fill="none" xmlns="http://www.w3.org/2000/svg" class="bool-logo" data-v-0297a2a3=""><path d="M260.682 76.8113C260.523 75.0808 260.437 73.2663 260.437 71.368V27.9281C260.13 27.5925 259.801 27.2675 259.472 26.9424C255.347 22.8188 250.438 19.5433 245.028 17.3042C241.901 16.0222 238.633 15.1069 235.291 14.5773C232.878 14.1936 230.439 14.0007 227.995 14.0005C222.138 13.9772 216.334 15.0994 210.917 17.3025C205.5 19.5055 200.577 22.746 196.432 26.8374C192.248 30.9521 188.919 35.8367 186.632 41.2159C186.187 42.2647 185.794 43.3135 185.434 44.3622C184.696 46.572 184.142 48.8379 183.779 51.1372C183.044 55.7302 183.044 60.4092 183.779 65.0022C184.137 67.3025 184.691 69.5688 185.434 71.7772C185.784 72.8259 186.187 73.8747 186.632 74.9235C191.283 85.7524 200.007 94.3711 210.962 98.9611C216.36 101.18 222.149 102.317 227.995 102.307C230.407 102.31 232.815 102.12 235.196 101.74C238.573 101.206 241.873 100.277 245.028 98.9716C251.858 96.0778 257.879 91.5947 262.58 85.904C261.59 82.9568 260.953 79.9051 260.682 76.8113ZM242.864 73.2348C239.614 76.6398 235.277 78.8336 230.583 79.4468C225.889 80.06 221.124 79.055 217.092 76.6013C215.586 75.6455 214.201 74.5154 212.966 73.2348C209.021 69.1054 206.824 63.6402 206.824 57.9596C206.824 52.279 209.021 46.8138 212.966 42.6844C214.199 41.4258 215.577 40.3135 217.071 39.3701C221.112 36.9257 225.876 35.9199 230.575 36.5188C235.273 37.1177 239.624 39.2855 242.906 42.6634C246.815 46.8151 248.988 52.2768 248.988 57.9491C248.988 63.6215 246.815 69.0832 242.906 73.2348H242.864Z" fill="white"></path> <path d="M316.003 80.8418V100.233H301.208C290.464 100.233 282.531 97.8528 277.6 93.1648C273.845 89.599 271.512 84.3552 270.632 77.5278C270.351 75.3189 270.216 73.0942 270.229 70.868V15.0001H293.222V68.8964C293.222 72.7349 294.282 75.7239 296.404 77.7689L296.457 77.8214C298.578 79.8246 301.547 80.8418 305.376 80.8418H316.003Z" fill="white"></path> <path d="M344.912 92.2604C346.188 86.9698 342.884 81.6582 337.534 80.3968C332.184 79.1355 326.813 82.402 325.538 87.6925C324.262 92.9831 327.565 98.2944 332.915 99.5557C338.265 100.817 343.637 97.5509 344.912 92.2604Z" fill="#EF5A19"></path> <path d="M339.927 15.0002V16.5839L334.116 19.8349L331.994 20.8837V20.9572C333.055 20.8733 334.221 20.758 335.293 20.758H339.906V22.2156H330.011V20.632L335.844 17.3915L337.912 16.3427V16.2692C336.852 16.3426 335.791 16.4684 334.731 16.4684H330.064V15.0002H339.927Z" fill="white"></path> <path d="M333.713 25.4348C334.193 25.3933 334.676 25.4476 335.135 25.5945C335.593 25.7415 336.017 25.9781 336.381 26.2902C336.745 26.6023 337.042 26.9834 337.254 27.4112C337.466 27.839 337.589 28.3046 337.616 28.7803C337.616 30.7205 336.205 31.7589 334.105 31.7589C333.842 31.7609 333.579 31.7363 333.32 31.6854V26.9449C333.021 26.9406 332.723 26.9962 332.446 27.1083C332.168 27.2203 331.917 27.3865 331.706 27.5971C331.495 27.8076 331.329 28.0581 331.218 28.3335C331.107 28.6089 331.054 28.9037 331.061 29.1999C331.063 29.822 331.256 30.4288 331.613 30.9408L330.637 31.4757C330.134 30.7456 329.861 29.8841 329.852 29.0005C329.843 28.508 329.939 28.0192 330.133 27.5656C330.327 27.1119 330.615 26.7035 330.979 26.3673C331.343 26.031 331.775 25.7744 332.246 25.6137C332.717 25.4531 333.216 25.392 333.713 25.4348ZM334.381 30.4374C335.664 30.4374 336.407 29.871 336.407 28.8013C336.377 28.2912 336.15 27.812 335.773 27.4627C335.396 27.1133 334.898 26.9204 334.381 26.9239V30.4374Z" fill="white"></path> <path d="M332.45 34.8932H336.183V33.8445H337.339L337.424 34.9772L339.471 35.1449V36.4349H337.424V38.2912H336.183V36.3824H332.439C331.549 36.3824 331.092 36.6866 331.092 37.4312C331.105 37.7008 331.162 37.9666 331.262 38.2178L330.127 38.4905C329.958 38.0293 329.865 37.5443 329.852 37.0538C329.852 35.4596 330.891 34.8932 332.45 34.8932Z" fill="white"></path> <path d="M337.423 40.4425V41.9842L333.415 42.9594C332.704 43.1063 332.015 43.2218 331.294 43.3581V43.4103C331.993 43.5677 332.693 43.7147 333.415 43.893L337.423 44.9418V46.3679L333.415 47.4167C332.704 47.595 332.015 47.7418 331.294 47.9096V47.9621C331.993 48.1089 332.683 48.2242 333.415 48.392L337.423 49.336V50.7727L329.999 48.8851V47.0498L333.659 46.1162C334.348 45.938 335.027 45.8122 335.78 45.6548V45.5814C335.016 45.4345 334.327 45.3087 333.659 45.12L330.021 44.2284V42.4561L337.423 40.4425Z" fill="white"></path> <path d="M333.712 52.9745C334.385 53.0434 335.024 53.304 335.551 53.7247C336.077 54.1453 336.469 54.708 336.679 55.3444C336.889 55.9809 336.908 56.6639 336.733 57.3106C336.558 57.9573 336.197 58.5399 335.694 58.988C335.192 59.4361 334.568 59.7304 333.9 59.8352C333.231 59.94 332.546 59.8508 331.928 59.5784C331.309 59.306 330.784 58.8621 330.415 58.3005C330.047 57.7389 329.851 57.0839 329.852 56.4145C329.863 55.9335 329.974 55.4598 330.177 55.0226C330.38 54.5854 330.671 54.1937 331.032 53.8717C331.394 53.5496 331.818 53.3039 332.279 53.1496C332.739 52.9953 333.227 52.9358 333.712 52.9745ZM333.712 58.2918C335.282 58.2918 336.332 57.5681 336.332 56.4145C336.332 55.2608 335.271 54.5476 333.712 54.5476C332.153 54.5476 331.114 55.2713 331.114 56.4145C331.114 57.5576 332.153 58.3023 333.712 58.3023V58.2918Z" fill="white"></path> <path d="M337.424 62.99V64.238L336.098 64.3639C336.518 64.5468 336.881 64.8378 337.148 65.2068C337.414 65.5759 337.576 66.0094 337.615 66.4615C337.626 66.746 337.572 67.0291 337.456 67.2898L336.109 67.0066C336.187 66.7696 336.227 66.5218 336.226 66.2725C336.226 65.6747 335.812 64.9616 334.646 64.5002H330.032V62.9795L337.424 62.99Z" fill="white"></path> <path d="M340.744 69.7557V71.2449H333.829L337.414 74.1185V75.8071L334.412 73.3214L330.021 76.0903V74.4227L333.362 72.4406L331.931 71.2029H330.021V69.7557H340.744Z" fill="white"></path> <path fill-rule="evenodd" clip-rule="evenodd" d="M35.9962 0.0652263L20.9101 0.130975L20.9562 17.0035C20.1689 17.0199 19.3894 17.0342 18.6173 17.0449L18.6077 17.0071L0.136674 17.0625L0.197677 32.7816L2.6226 32.7267L2.56827 30.3651L2.62381 32.7266L2.94685 32.7196C3.15391 32.7152 3.44985 32.709 3.80466 32.702C4.10571 32.6961 4.44877 32.6896 4.81563 32.6832L4.78782 32.7146L10.0757 32.6959C11.683 32.6902 12.4404 33.1322 12.8281 33.4954C13.2207 33.8632 13.4895 34.3921 13.6455 35.0552L13.7243 56.3715L13.7261 56.3714L13.8127 80.7543C13.7457 81.1153 13.6216 81.4166 13.4616 81.6063C13.3853 81.6968 13.2914 81.7746 13.1515 81.8376C13.0076 81.9023 12.7464 81.9818 12.3019 81.9845L6.1189 82.0217L6.0233 82.0208C5.66748 82.0175 5.37068 82.0144 5.16295 82.0122L4.83743 82.0086L2.78922 81.9844L0 98.9911L16.2425 98.9326H16.2447C17.6009 98.9321 18.8586 98.9399 20.1142 98.9478L20.1818 98.9482C20.537 98.9504 20.8921 98.9526 21.2493 98.9546L21.3146 116L36.392 115.947L36.3283 99.1383C37.504 99.1507 38.6638 99.1577 39.8091 99.1599L39.8661 115.941L54.9514 115.879L54.9173 98.7225C62.7777 98.0946 69.8133 96.6608 75.2098 93.403C81.3066 89.7225 85.0659 83.8684 85.8493 75.1059C86.4707 68.1941 85.1638 62.8302 82.0518 58.854C79.9595 56.1806 77.1778 54.2976 73.9776 52.9816C75.432 51.7056 76.6823 50.202 77.6566 48.4391C79.4955 45.1115 80.2434 41.0546 79.7509 36.2361L79.7461 36.2356C79.0536 29.3991 75.655 24.716 70.5832 21.6895C66.1813 19.0627 60.5989 17.7249 54.6213 17.0651L54.5596 0L39.472 0.056043L39.5398 16.4615C38.3805 16.4768 37.216 16.4988 36.0537 16.5239L35.9962 0.0652263ZM18.3405 53.9813L17.3562 53.9849L17.3515 54.0567L18.4778 54.0527L18.4779 54.0611L19.4338 54.0576C19.0714 54.0096 18.7061 53.987 18.3405 53.99L18.3405 53.9813ZM36.4101 49.1235L36.353 33.3121C39.5589 33.2179 43.8476 33.0969 47.7684 33.8575C50.2376 34.3365 52.2608 35.1219 53.6341 36.2723C54.9088 37.3401 55.7581 38.8259 55.7672 41.1591C55.7744 43.333 54.9633 44.7666 53.6826 45.8378C52.3047 46.9903 50.2694 47.8057 47.7947 48.3324C43.9003 49.1614 39.5938 49.1591 36.4101 49.1235ZM36.5243 81.9952L36.4601 64.0975L36.7919 64.0887C40.6471 63.9856 45.938 63.8442 50.7534 64.704C53.7731 65.2432 56.3045 66.1357 58.0398 67.4706C59.6637 68.7198 60.6744 70.4082 60.6836 72.9634C60.693 75.3439 59.7266 76.9756 58.094 78.231C56.3547 79.5683 53.8121 80.4968 50.7883 81.0924C45.8583 82.0634 40.3801 82.0322 36.5243 81.9952Z" fill="#EF5A19"></path> <path fill-rule="evenodd" clip-rule="evenodd" d="M98.4459 78.7349C99.0105 77.0797 99.3927 75.2303 99.5781 73.1644C100.311 65.0504 97.8139 60.0917 93.2278 57.1485C93.3432 51.6934 94.4975 46.3054 96.6333 41.2681C100.036 33.193 105.779 26.2946 113.14 21.4421C120.501 16.5896 129.149 14.0001 137.996 14.0001C140.914 14.0012 143.826 14.2752 146.692 14.8182C149.549 15.3652 152.342 16.1978 155.029 17.3036C160.442 19.5434 165.355 22.8191 169.484 26.942C172.106 29.5198 174.399 32.4042 176.314 35.5313C175.494 36.987 174.761 38.4894 174.119 40.0306C173.695 41.0269 173.313 41.9917 172.963 43.0404C169.64 52.7938 169.64 63.3551 172.963 73.1085C173.313 74.1153 173.695 75.1223 174.119 76.1186C174.782 77.6897 175.533 79.2231 176.367 80.7121C171.39 88.8904 163.935 95.3118 155.06 99.0655C152.344 100.187 149.519 101.03 146.629 101.583C138.018 103.243 129.104 102.364 120.995 99.0553C115.558 96.809 110.624 93.5227 106.475 89.3854C104.392 87.3313 102.513 85.0836 100.865 82.6734C99.9838 81.4068 99.1762 80.0919 98.4459 78.7349ZM140.608 79.448C145.308 78.8385 149.653 76.6438 152.907 73.2345L152.876 73.2135C156.789 69.0641 158.965 63.6015 158.965 57.9278C158.965 52.254 156.789 46.7914 152.876 42.642C150.98 40.6284 148.681 39.0285 146.124 37.9448C143.567 36.8612 140.809 36.3178 138.028 36.3494C134.157 36.2982 130.353 37.3504 127.072 39.3802C125.588 40.3205 124.222 41.4294 122.999 42.684C120.736 45.0515 119.028 47.8819 117.995 50.9751C116.961 54.0683 116.629 57.3485 117.021 60.583C117.412 63.8174 118.519 66.927 120.261 69.6916C122.004 72.4561 124.339 74.8078 127.104 76.58C131.137 79.0444 135.907 80.0575 140.608 79.448Z" fill="white"></path></svg>