<?xml version="1.0" encoding="utf-8"?>
<svg viewBox="0 0 385.328 163.241" xmlns="http://www.w3.org/2000/svg">
  <rect width="385.328" height="163.241" style="fill: black; transform-origin: 192.664px 81.6205px;"/>
  <path d="M 283.54 100.762 C 283.381 99.031 283.295 97.217 283.295 95.318 L 283.295 51.878 C 282.988 51.543 282.659 51.218 282.33 50.893 C 278.205 46.769 273.296 43.494 267.886 41.254 C 264.759 39.972 261.491 39.057 258.149 38.528 C 255.736 38.144 253.297 37.951 250.853 37.951 C 244.996 37.927 239.192 39.05 233.775 41.253 C 228.358 43.456 223.435 46.696 219.29 50.788 C 215.106 54.902 211.777 59.787 209.49 65.166 C 209.045 66.215 208.652 67.264 208.292 68.312 C 207.554 70.522 207 72.788 206.637 75.087 C 205.902 79.68 205.902 84.359 206.637 88.952 C 206.995 91.253 207.549 93.519 208.292 95.727 C 208.642 96.776 209.045 97.825 209.49 98.874 C 214.141 109.703 222.865 118.321 233.82 122.911 C 239.218 125.13 245.007 126.267 250.853 126.257 C 253.265 126.26 255.673 126.07 258.054 125.69 C 261.431 125.156 264.731 124.227 267.886 122.922 C 274.716 120.028 280.737 115.545 285.438 109.854 C 284.448 106.907 283.811 103.855 283.54 100.762 Z M 265.722 97.185 C 262.472 100.59 258.135 102.784 253.441 103.397 C 248.747 104.01 243.982 103.005 239.95 100.552 C 238.444 99.596 237.059 98.466 235.824 97.185 C 231.879 93.056 229.682 87.59 229.682 81.91 C 229.682 76.229 231.879 70.764 235.824 66.635 C 237.057 65.376 238.435 64.264 239.929 63.32 C 243.97 60.876 248.734 59.87 253.433 60.469 C 258.131 61.068 262.482 63.236 265.764 66.614 C 269.673 70.765 271.846 76.227 271.846 81.899 C 271.846 87.572 269.673 93.033 265.764 97.185 L 265.722 97.185 Z" fill="white"/>
  <path d="M 338.861 104.792 L 338.861 124.183 L 324.066 124.183 C 313.322 124.183 305.389 121.803 300.458 117.115 C 296.703 113.549 294.37 108.305 293.49 101.478 C 293.209 99.269 293.074 97.044 293.087 94.818 L 293.087 38.95 L 316.08 38.95 L 316.08 92.847 C 316.08 96.685 317.14 99.674 319.262 101.719 L 319.315 101.772 C 321.436 103.775 324.405 104.792 328.234 104.792 L 338.861 104.792 Z" fill="white"/>
  <path d="M 367.77 116.211 C 369.046 110.92 365.742 105.608 360.392 104.347 C 355.042 103.086 349.671 106.352 348.396 111.643 C 347.12 116.933 350.423 122.245 355.773 123.506 C 361.123 124.767 366.495 121.501 367.77 116.211 Z" fill="#EF5A19"/>
  <path d="M 362.785 38.95 L 362.785 40.534 L 356.974 43.785 L 354.852 44.834 L 354.852 44.907 C 355.913 44.824 357.079 44.708 358.151 44.708 L 362.764 44.708 L 362.764 46.166 L 352.869 46.166 L 352.869 44.582 L 358.702 41.342 L 360.77 40.293 L 360.77 40.219 C 359.71 40.293 358.649 40.419 357.589 40.419 L 352.922 40.419 L 352.922 38.95 L 362.785 38.95 Z" fill="white"/>
  <path d="M 356.571 49.385 C 357.051 49.344 357.534 49.398 357.993 49.545 C 358.451 49.692 358.875 49.928 359.239 50.24 C 359.603 50.553 359.9 50.934 360.112 51.361 C 360.324 51.789 360.447 52.255 360.474 52.731 C 360.474 54.671 359.063 55.709 356.963 55.709 C 356.7 55.711 356.437 55.687 356.178 55.636 L 356.178 50.895 C 355.879 50.891 355.581 50.946 355.304 51.059 C 355.026 51.171 354.775 51.337 354.564 51.547 C 354.353 51.758 354.187 52.008 354.076 52.284 C 353.965 52.559 353.912 52.854 353.919 53.15 C 353.921 53.772 354.114 54.379 354.471 54.891 L 353.495 55.426 C 352.992 54.696 352.719 53.834 352.71 52.951 C 352.701 52.458 352.797 51.969 352.991 51.516 C 353.185 51.062 353.473 50.654 353.837 50.318 C 354.201 49.981 354.633 49.725 355.104 49.564 C 355.575 49.403 356.074 49.342 356.571 49.385 Z M 357.239 54.388 C 358.522 54.388 359.265 53.821 359.265 52.752 C 359.235 52.241 359.008 51.762 358.631 51.413 C 358.254 51.064 357.756 50.871 357.239 50.874 L 357.239 54.388 Z" fill="white"/>
  <path d="M 355.308 58.843 L 359.041 58.843 L 359.041 57.795 L 360.197 57.795 L 360.282 58.927 L 362.329 59.095 L 362.329 60.385 L 360.282 60.385 L 360.282 62.241 L 359.041 62.241 L 359.041 60.333 L 355.297 60.333 C 354.407 60.333 353.95 60.637 353.95 61.381 C 353.963 61.651 354.02 61.917 354.12 62.168 L 352.985 62.441 C 352.816 61.98 352.723 61.495 352.71 61.004 C 352.71 59.41 353.749 58.843 355.308 58.843 Z" fill="white"/>
  <path d="M 360.281 64.393 L 360.281 65.934 L 356.273 66.91 C 355.562 67.057 354.873 67.172 354.152 67.308 L 354.152 67.361 C 354.851 67.518 355.551 67.665 356.273 67.843 L 360.281 68.892 L 360.281 70.318 L 356.273 71.367 C 355.562 71.545 354.873 71.692 354.152 71.86 L 354.152 71.912 C 354.851 72.059 355.541 72.174 356.273 72.342 L 360.281 73.286 L 360.281 74.723 L 352.857 72.835 L 352.857 71 L 356.517 70.066 C 357.206 69.888 357.885 69.762 358.638 69.605 L 358.638 69.532 C 357.874 69.385 357.185 69.259 356.517 69.07 L 352.879 68.179 L 352.879 66.406 L 360.281 64.393 Z" fill="white"/>
  <path d="M 356.57 76.925 C 357.243 76.994 357.882 77.254 358.409 77.675 C 358.935 78.096 359.327 78.658 359.537 79.295 C 359.747 79.931 359.766 80.614 359.591 81.261 C 359.416 81.908 359.055 82.49 358.552 82.938 C 358.05 83.386 357.426 83.681 356.758 83.785 C 356.089 83.89 355.404 83.801 354.786 83.529 C 354.167 83.256 353.642 82.812 353.273 82.251 C 352.905 81.689 352.709 81.034 352.71 80.365 C 352.721 79.884 352.832 79.41 353.035 78.973 C 353.238 78.536 353.529 78.144 353.89 77.822 C 354.252 77.5 354.676 77.254 355.137 77.1 C 355.597 76.946 356.085 76.886 356.57 76.925 Z M 356.57 82.242 C 358.14 82.242 359.19 81.518 359.19 80.365 C 359.19 79.211 358.129 78.498 356.57 78.498 C 355.011 78.498 353.972 79.222 353.972 80.365 C 353.972 81.508 355.011 82.253 356.57 82.253 L 356.57 82.242 Z" fill="white"/>
  <path d="M 360.282 86.94 L 360.282 88.188 L 358.956 88.314 C 359.376 88.497 359.739 88.788 360.006 89.157 C 360.272 89.526 360.434 89.96 360.473 90.412 C 360.484 90.696 360.43 90.979 360.314 91.24 L 358.967 90.957 C 359.045 90.72 359.085 90.472 359.084 90.223 C 359.084 89.625 358.67 88.912 357.504 88.45 L 352.89 88.45 L 352.89 86.93 L 360.282 86.94 Z" fill="white"/>
  <path d="M 363.602 93.706 L 363.602 95.195 L 356.687 95.195 L 360.272 98.069 L 360.272 99.757 L 357.27 97.272 L 352.879 100.041 L 352.879 98.373 L 356.22 96.391 L 354.789 95.153 L 352.879 95.153 L 352.879 93.706 L 363.602 93.706 Z" fill="white"/>
  <path fill-rule="evenodd" clip-rule="evenodd" d="M 58.854 24.015 L 43.768 24.081 L 43.814 40.954 C 43.027 40.97 42.247 40.984 41.475 40.995 L 41.466 40.957 L 22.995 41.013 L 23.056 56.732 L 25.481 56.677 L 25.426 54.315 L 25.482 56.677 L 25.805 56.67 C 26.012 56.665 26.308 56.659 26.663 56.652 C 26.964 56.646 27.307 56.64 27.674 56.633 L 27.646 56.665 L 32.934 56.646 C 34.541 56.64 35.298 57.082 35.686 57.446 C 36.079 57.813 36.348 58.342 36.504 59.005 L 36.582 80.322 L 36.584 80.322 L 36.671 104.705 C 36.604 105.066 36.48 105.367 36.32 105.557 C 36.243 105.647 36.149 105.725 36.01 105.788 C 35.866 105.853 35.604 105.932 35.16 105.935 L 28.977 105.972 L 28.881 105.971 C 28.526 105.968 28.229 105.965 28.021 105.962 L 27.695 105.959 L 25.647 105.935 L 22.858 122.941 L 39.101 122.883 L 39.103 122.883 C 40.459 122.882 41.717 122.89 42.972 122.898 L 43.04 122.898 C 43.395 122.901 43.75 122.903 44.107 122.905 L 44.173 139.95 L 59.25 139.897 L 59.186 123.089 C 60.362 123.101 61.522 123.108 62.667 123.11 L 62.724 139.891 L 77.809 139.829 L 77.775 122.673 C 85.636 122.045 92.671 120.611 98.068 117.353 C 104.165 113.673 107.924 107.819 108.707 99.056 C 109.329 92.144 108.022 86.78 104.91 82.804 C 102.818 80.131 100.036 78.248 96.836 76.932 C 98.29 75.656 99.54 74.152 100.515 72.389 C 102.354 69.062 103.101 65.005 102.609 60.186 L 102.604 60.186 C 101.912 53.349 98.513 48.666 93.441 45.64 C 89.039 43.013 83.457 41.675 77.479 41.015 L 77.418 23.95 L 62.33 24.006 L 62.398 40.412 C 61.239 40.427 60.074 40.449 58.912 40.474 L 58.854 24.015 Z M 41.199 77.932 L 40.214 77.935 L 40.21 78.007 L 41.336 78.003 L 41.336 78.011 L 42.292 78.008 C 41.929 77.96 41.564 77.937 41.199 77.94 L 41.199 77.932 Z M 59.268 73.074 L 59.211 57.262 C 62.417 57.168 66.706 57.047 70.626 57.808 C 73.096 58.287 75.119 59.072 76.492 60.223 C 77.767 61.29 78.616 62.776 78.625 65.109 C 78.632 67.283 77.821 68.717 76.541 69.788 C 75.163 70.941 73.127 71.756 70.653 72.283 C 66.758 73.112 62.452 73.109 59.268 73.074 Z M 59.382 105.945 L 59.318 88.048 L 59.65 88.039 C 63.505 87.936 68.796 87.794 73.611 88.654 C 76.631 89.193 79.163 90.086 80.898 91.421 C 82.522 92.67 83.532 94.358 83.542 96.914 C 83.551 99.294 82.585 100.926 80.952 102.181 C 79.213 103.519 76.67 104.447 73.646 105.043 C 68.716 106.014 63.238 105.982 59.382 105.945 Z" fill="#EF5A19"/>
  <path fill-rule="evenodd" clip-rule="evenodd" d="M 121.304 102.685 C 121.869 101.03 122.251 99.181 122.436 97.115 C 123.169 89.001 120.672 84.042 116.086 81.099 C 116.201 75.644 117.356 70.256 119.491 65.218 C 122.894 57.143 128.637 50.245 135.998 45.392 C 143.359 40.54 152.007 37.95 160.854 37.95 C 163.772 37.951 166.684 38.225 169.55 38.768 C 172.407 39.315 175.2 40.148 177.887 41.254 C 183.3 43.494 188.213 46.769 192.342 50.892 C 194.964 53.47 197.257 56.354 199.172 59.482 C 198.352 60.937 197.619 62.44 196.977 63.981 C 196.553 64.977 196.171 65.942 195.821 66.991 C 192.498 76.744 192.498 87.305 195.821 97.059 C 196.171 98.066 196.553 99.073 196.977 100.069 C 197.64 101.64 198.391 103.173 199.225 104.662 C 194.248 112.841 186.793 119.262 177.918 123.016 C 175.202 124.137 172.377 124.98 169.487 125.533 C 160.876 127.193 151.962 126.314 143.853 123.006 C 138.416 120.759 133.482 117.473 129.333 113.336 C 127.25 111.282 125.371 109.034 123.723 106.624 C 122.842 105.357 122.034 104.042 121.304 102.685 Z M 163.466 103.398 C 168.166 102.789 172.511 100.594 175.765 97.185 L 175.734 97.164 C 179.647 93.014 181.823 87.552 181.823 81.878 C 181.823 76.204 179.647 70.742 175.734 66.592 C 173.838 64.579 171.539 62.979 168.982 61.895 C 166.425 60.811 163.667 60.268 160.886 60.3 C 157.015 60.248 153.211 61.301 149.93 63.33 C 148.446 64.271 147.08 65.38 145.857 66.634 C 143.594 69.002 141.886 71.832 140.853 74.925 C 139.819 78.019 139.487 81.299 139.879 84.533 C 140.27 87.768 141.377 90.877 143.119 93.642 C 144.862 96.406 147.197 98.758 149.962 100.53 C 153.995 102.995 158.765 104.008 163.466 103.398 Z" fill="white"/>
</svg>