<?xml version="1.0" encoding="utf-8"?>
<svg viewBox="-100 -100 1614 700" xmlns="http://www.w3.org/2000/svg">
  <rect width="1614" height="700" style="fill: #FFF" x="-100" y="-100" transform="matrix(1, 0, 0, 1, -5.684341886080802e-14, 0)"/>
  <path d="M823.996 64.5918H769.436C762.351 64.5918 756.634 70.3088 756.634 77.393V138.789C740.85 132.078 723.575 128.349 705.305 128.349C632.848 128.349 573.814 187.26 573.814 259.841V277.986C573.814 350.444 632.724 409.478 705.305 409.478C723.575 409.478 740.975 405.75 756.883 398.914C758.002 404.88 763.221 409.478 769.436 409.478H823.996C831.08 409.478 836.797 403.761 836.797 396.677V277.986V259.841V77.5173C836.797 70.4331 831.08 64.5918 823.996 64.5918ZM705.305 329.316C676.969 329.316 653.976 306.323 653.976 277.986V259.841C653.976 231.504 676.969 208.512 705.305 208.512C733.642 208.512 756.634 231.504 756.634 259.841V277.986C756.634 306.323 733.642 329.316 705.305 329.316Z" fill="#121314" transform="matrix(1, 0, 0, 1, -5.684341886080802e-14, 0)"/>
  <path d="M955.386 409.354H900.826C893.741 409.354 888.024 403.637 888.024 396.553V341.993C888.024 334.908 893.741 329.191 900.826 329.191H955.386C962.47 329.191 968.187 334.908 968.187 341.993V396.553C968.187 403.637 962.47 409.354 955.386 409.354Z" fill="#121314" transform="matrix(1, 0, 0, 1, -5.684341886080802e-14, 0)"/>
  <path d="M1400.56 64.5918H1346C1338.91 64.5918 1333.2 70.3088 1333.2 77.393V138.789C1317.41 132.078 1300.14 128.349 1281.87 128.349C1209.41 128.349 1150.38 187.26 1150.38 259.841V277.986C1150.38 350.444 1209.29 409.478 1281.87 409.478C1300.14 409.478 1317.54 405.75 1333.44 398.914C1334.56 404.88 1339.78 409.478 1346 409.478H1400.56C1407.64 409.478 1413.36 403.761 1413.36 396.677V77.5173C1413.36 70.4331 1407.64 64.5918 1400.56 64.5918ZM1281.87 329.316C1253.53 329.316 1230.54 306.323 1230.54 277.986V259.841C1230.54 231.504 1253.53 208.512 1281.87 208.512C1310.2 208.512 1333.2 231.504 1333.2 259.841V277.986C1333.2 306.323 1310.2 329.316 1281.87 329.316Z" fill="#121314" transform="matrix(1, 0, 0, 1, -5.684341886080802e-14, 0)"/>
  <path d="M1086.63 409.37H1032.07C1024.98 409.37 1019.27 403.653 1019.27 396.569V186.53C1019.27 179.446 1024.98 173.729 1032.07 173.729H1086.63C1093.71 173.729 1099.43 179.446 1099.43 186.53V396.693C1099.43 403.653 1093.71 409.37 1086.63 409.37Z" fill="#121314" transform="matrix(1, 0, 0, 1, -5.684341886080802e-14, 0)"/>
  <path d="M1086.63 144.765H1032.07C1024.99 144.765 1019.27 139.048 1019.27 131.964V77.5274C1019.27 70.4433 1024.99 64.7262 1032.07 64.7262H1086.63C1093.72 64.7262 1099.44 70.4433 1099.44 77.5274V132.088C1099.44 139.048 1093.72 144.765 1086.63 144.765Z" fill="#121314" transform="matrix(1, 0, 0, 1, -5.684341886080802e-14, 0)"/>
  <path d="M226.728 356.763C324.539 356.763 404.578 276.725 404.578 178.789C404.578 137.9 392.149 102.231 369.033 72.0298C390.409 55.9973 404.578 29.2763 404.578 0.81543H226.728C128.917 0.81543 48.8788 80.854 48.8788 178.789C48.8788 276.725 128.917 356.763 226.728 356.763ZM226.728 82.7182C280.046 82.7182 322.799 125.472 322.799 178.789C322.799 232.231 280.17 274.86 226.728 274.86C173.286 274.86 130.657 232.231 130.657 178.789C130.657 125.347 173.411 82.7182 226.728 82.7182Z" fill="#00DF9B" transform="matrix(1, 0, 0, 1, -5.684341886080802e-14, 0)"/>
  <path d="M454.411 404.854C443.723 378.133 422.346 358.62 393.885 349.672C347.652 394.165 287.25 417.282 228.588 417.282C168.062 417.282 109.401 394.165 63.1674 349.672C34.7065 358.62 13.3298 378.133 2.64142 404.854C63.1674 467.12 144.946 499.185 226.724 499.185C308.627 499.185 390.405 467.12 454.411 404.854Z" fill="#2471FE" transform="matrix(1, 0, 0, 1, -5.684341886080802e-14, 0)"/>
</svg>