<svg xmlns="http://www.w3.org/2000/svg" version="1.1" xmlns:xlink="http://www.w3.org/1999/xlink" xmlns:svgjs="http://svgjs.dev/svgjs" width="1500" height="500" viewBox="0 500 1500 500"><rect width="1500" height="1500" fill="#ffffff"></rect><g transform="matrix(0.6666666666666666,0,0,0.6666666666666666,249.39393939393938,675.1574563550924)"><svg viewBox="0 0 396 59" data-background-color="#ffffff" preserveAspectRatio="xMidYMid meet" height="223" width="1500" xmlns="http://www.w3.org/2000/svg" xmlns:xlink="http://www.w3.org/1999/xlink"><g id="tight-bounds" transform="matrix(1,0,0,1,0.2400000000000091,0.20208570661131375)"><svg viewBox="0 0 395.52 58.59582858677737" height="58.59582858677737" width="395.52"><g><svg viewBox="0 0 395.52 58.59582858677737" height="58.59582858677737" width="395.52"><g><svg viewBox="0 0 513.8678582184216 76.12892631578947" height="58.59582858677737" width="395.52"><g><rect width="6.831228995233685" height="76.12892631578947" x="93.63383080634576" y="0" fill="#e8772e" opacity="1" stroke-width="0" stroke="transparent" fill-opacity="1" class="rect-yte-0" data-fill-palette-color="primary" rx="1%" id="yte-0" data-palette-color="#e8772e"></rect></g><g transform="matrix(1,0,0,1,118.34785821842155,0.18937543859648542)"><svg viewBox="0 0 395.52 75.7501754385965" height="75.7501754385965" width="395.52"><g id="textblocktransform"><svg viewBox="0 0 395.52 75.7501754385965" height="75.7501754385965" width="395.52" id="textblock"><g><svg viewBox="0 0 395.52 75.7501754385965" height="75.7501754385965" width="395.52"><g transform="matrix(1,0,0,1,0,0)"><svg width="395.52" viewBox="0 -38.4 205.19 39.3" height="75.7501754385965" data-palette-color="#e8772e"><path d="M10.55 0L10.55 0 1.2 0 0-9.6 5-9.6Q6.75-9.6 7.4-10.15L7.4-10.15Q7.85-10.6 7.85-11.4L7.85-11.4 7.85-27.9 2.9-27.9 2.9-37.5 19.85-37.5 19.85-9.9Q19.85-5 17.48-2.5 15.1 0 10.55 0ZM23.15-18.7L23.15-18.7Q23.15-23.85 24.02-27.58 24.9-31.3 26.97-33.7 29.05-36.1 32.45-37.25 35.85-38.4 40.85-38.4L40.85-38.4Q45.9-38.4 49.27-37.25 52.65-36.1 54.72-33.7 56.8-31.3 57.67-27.58 58.55-23.85 58.55-18.7L58.55-18.7Q58.55-13.8 57.75-10.13 56.95-6.45 54.92-4 52.9-1.55 49.47-0.33 46.05 0.9 40.85 0.9L40.85 0.9Q35.65 0.9 32.22-0.33 28.8-1.55 26.77-4 24.75-6.45 23.95-10.13 23.15-13.8 23.15-18.7ZM36.05-24.95L36.05-24.95 36.05-9.35 41.05-9.35Q43.55-9.35 44.62-9.93 45.7-10.5 45.7-12.55L45.7-12.55 45.7-28.15 40.65-28.15Q38.25-28.15 37.15-27.58 36.05-27 36.05-24.95ZM73-37.5L59.75-37.5 70.55-10.2 70.55 0 82.55 0 82.55-10.2 93.34-37.5 80.09-37.5 76.75-24.3 76.3-24.3 73-37.5ZM113.14 0L113.14 0 96.34 0 96.34-37.5 113.14-37.5Q118.19-37.5 121.59-36.48 124.99-35.45 127.04-33.2 129.09-30.95 129.97-27.4 130.84-23.85 130.84-18.8L130.84-18.8Q130.84-13.75 129.97-10.18 129.09-6.6 127.04-4.35 124.99-2.1 121.59-1.05 118.19 0 113.14 0ZM113.34-27.9L113.34-27.9 108.34-27.9 108.34-9.6 113.34-9.6Q115.84-9.6 116.92-10.18 117.99-10.75 117.99-12.8L117.99-12.8 117.99-24.7Q117.99-26.75 116.92-27.33 115.84-27.9 113.34-27.9ZM143.99 0L145.34-5.95 155.24-5.95 156.64 0 169.29 0 159.59-37.5 141.04-37.5 131.34 0 143.99 0ZM149.99-26L150.64-26 153.04-15.5 147.54-15.5 149.99-26ZM169.79-18.7L169.79-18.7Q169.79-23.85 170.66-27.58 171.54-31.3 173.61-33.7 175.69-36.1 179.09-37.25 182.49-38.4 187.49-38.4L187.49-38.4Q192.54-38.4 195.91-37.25 199.29-36.1 201.36-33.7 203.44-31.3 204.31-27.58 205.19-23.85 205.19-18.7L205.19-18.7Q205.19-13.8 204.39-10.13 203.59-6.45 201.56-4 199.54-1.55 196.11-0.33 192.69 0.9 187.49 0.9L187.49 0.9Q182.29 0.9 178.86-0.33 175.44-1.55 173.41-4 171.39-6.45 170.59-10.13 169.79-13.8 169.79-18.7ZM182.69-24.95L182.69-24.95 182.69-9.35 187.69-9.35Q190.19-9.35 191.26-9.93 192.34-10.5 192.34-12.55L192.34-12.55 192.34-28.15 187.29-28.15Q184.89-28.15 183.79-27.58 182.69-27 182.69-24.95Z" opacity="1" transform="matrix(1,0,0,1,0,0)" fill="#e8772e" class="wordmark-text-0" data-fill-palette-color="primary" id="text-0"></path></svg></g></svg></g></svg></g></svg></g><g transform="matrix(1,0,0,1,0,0.18937543859648542)"><svg viewBox="0 0 75.75103238950365 75.7501754385965" height="75.7501754385965" width="75.75103238950365"><g><svg xmlns="http://www.w3.org/2000/svg" xmlns:xlink="http://www.w3.org/1999/xlink" version="1.1" x="0" y="0" viewBox="5.694 6.061 88.396 88.39500000000001" enable-background="new 0 0 100 100" xml:space="preserve" height="75.7501754385965" width="75.75103238950365" class="icon-icon-0" data-fill-palette-color="accent" id="icon-0"><g fill="#e8772e" data-fill-palette-color="accent"><path stroke="#E8772E" stroke-miterlimit="10" d="M43.058 38.147C36.369 36.673 29.752 40.902 28.278 47.591S31.032 60.897 37.722 62.371C44.411 63.845 51.029 59.616 52.502 52.927 53.976 46.238 49.748 39.62 43.058 38.147zM47.494 51.823C46.632 55.741 42.743 58.225 38.825 57.362 34.908 56.5 32.424 52.611 33.286 48.694S38.037 42.292 41.955 43.154C45.873 44.018 48.357 47.907 47.494 51.823z" fill="#e8772e" data-fill-palette-color="accent"></path><path stroke="#E8772E" stroke-miterlimit="10" d="M81.34 6.061H18.444C11.402 6.061 5.694 11.769 5.694 18.811V81.706C5.694 88.748 11.402 94.456 18.444 94.456H81.34C88.381 94.456 94.09 88.748 94.09 81.706V18.811C94.09 11.769 88.381 6.061 81.34 6.061zM65.591 54.238L64.93 57.237A3.71 3.71 0 0 1 60.511 60.06L51.624 58.102 56.524 65.771A3.706 3.706 0 0 1 55.396 70.891L52.808 72.545A3.71 3.71 0 0 1 47.687 71.416L42.787 63.748 40.829 72.635A3.705 3.705 0 0 1 36.411 75.458L33.411 74.798C31.411 74.358 30.148 72.378 30.589 70.38L32.546 61.492 24.878 66.391A3.707 3.707 0 0 1 19.757 65.263L18.103 62.676A3.71 3.71 0 0 1 19.231 57.554L26.9 52.655 18.013 50.697A3.707 3.707 0 0 1 15.19 46.279L15.85 43.28A3.707 3.707 0 0 1 20.268 40.457L29.156 42.415 24.256 34.746A3.71 3.71 0 0 1 25.384 29.625L27.971 27.972A3.71 3.71 0 0 1 33.092 29.099L37.992 36.767 39.95 27.881C40.39 25.881 42.368 24.617 44.368 25.057L47.368 25.718A3.71 3.71 0 0 1 50.191 30.136L48.233 39.024 55.901 34.124A3.71 3.71 0 0 1 61.022 35.251L62.674 37.84A3.706 3.706 0 0 1 61.547 42.96L53.878 47.86 62.765 49.818A3.71 3.71 0 0 1 65.591 54.238zM81.489 50.491C81.631 50.795 81.718 51.131 81.718 51.49V60.913A2.36 2.36 0 0 1 79.358 63.273H76.873A2.36 2.36 0 0 1 74.512 60.913V51.49C74.512 51.132 74.599 50.796 74.741 50.491A6.004 6.004 0 0 1 78.116 39.52 6.005 6.005 0 0 1 84.122 45.525 6 6 0 0 1 81.489 50.491z" fill="#e8772e" data-fill-palette-color="accent"></path></g></svg></g></svg></g></svg></g></svg></g><defs></defs></svg><rect width="395.52" height="58.59582858677737" fill="none" stroke="none" visibility="hidden"></rect></g></svg></g></svg>