<?xml version="1.0" encoding="utf-8"?>
<!-- Generator: Adobe Illustrator 26.0.3, SVG Export Plug-In . SVG Version: 6.00 Build 0)  -->
<svg version="1.1" id="Layer_1" xmlns="http://www.w3.org/2000/svg" xmlns:xlink="http://www.w3.org/1999/xlink" x="0px" y="0px"
	 viewBox="0 0 800 275" style="enable-background:new 0 0 800 275;" xml:space="preserve">
<style type="text/css">
	.st0{fill:#FFFFFF;}
</style>
<g>
	<rect class="st0" width="800" height="275"/>
</g>
<g>
	<g>
		<rect x="168.6" y="91.7" width="109.8" height="18.3"/>
	</g>
	<g>
		<path d="M278.4,146.7v-18.3h-73.2c-5.1,0-9.2,4.1-9.2,9.2v36.6c0,5.1,4.1,9.2,9.2,9.2h73.2V165h-62.2c-1,0-1.8-0.8-1.8-1.8v-14.6
			c0-1,0.8-1.8,1.8-1.8H278.4z"/>
	</g>
	<g>
		<g>
			<rect x="624.2" y="91.7" width="82.4" height="18.3"/>
		</g>
		<g>
			<path d="M706.5,146.7v-18.3h-73.2c-5.1,0-9.2,4.1-9.2,9.2v36.6c0,5.1,4.1,9.2,9.2,9.2h73.2V165h-62.2c-1,0-1.8-0.8-1.8-1.8v-14.6
				c0-1,0.8-1.8,1.8-1.8H706.5z"/>
		</g>
	</g>
	<g>
		<path d="M168.6,128.3V161c0,1.6-2,2.4-3.1,1.3l-72-70.5v91.5h18.3v-48l43.6,42.7c3.5,3.4,8.1,5.3,13,5.3h0
			c10.3,0,18.6-8.3,18.6-18.6v-36.3H168.6z"/>
	</g>
	<g>
		<path d="M485.6,101.2c-2.7-5.7-8.4-9.4-14.8-9.4h0c-6.3,0-12.1,3.7-14.8,9.4l0,0l-26.8,57.5c-0.7,1.4-2.7,1.4-3.3,0l-31.2-66.9
			h-20.2l38.3,82.1c2.7,5.7,8.4,9.4,14.8,9.4h0c6.3,0,12.1-3.7,14.8-9.4l0,0l26.8-57.5c0.7-1.4,2.7-1.4,3.3,0l22.7,48.6h-24.4v18.3
			h53.1L485.6,101.2z"/>
	</g>
	<g>
		<path d="M375.4,183.3l-17.9-38.3c10.1-3.7,17.3-13.2,17.8-24.4c0.7-14.2-9.8-26.3-23.4-28.4c-1.2-0.2-2.5-0.3-4-0.3
			c-0.1,0-60.4,0-60.4,0V110H348c5.1,0,9.2,4.1,9.2,9.2c0,5.1-4.1,9.2-9.2,9.2l-51.2,0c-5.1,0-9.2,4.1-9.2,9.2v45.8h18.3v-36.6
			l32.3,0l17.1,36.6H375.4z"/>
	</g>
	<g>
		<path d="M595.6,92.1c-1.2-0.2-2.5-0.3-4-0.3c-0.1,0-60.4,0-60.4,0V110h60.4c5.1,0,9.2,4.1,9.2,9.2c0,5.1-4.1,9.2-9.2,9.2l-51.2,0
			c-5.1,0-9.2,4.1-9.2,9.2v45.8h18.3v-36.6c0,0,42.1,0,42.1,0c0.4,0,0.9,0,1.3,0c0.1,0,0.1,0,0.2,0c0.3,0,0.5,0,0.8-0.1
			c13.7-1.1,24.5-12.2,25.2-26.1C619.7,106.3,609.3,94.2,595.6,92.1z"/>
	</g>
</g>
</svg>
