<svg width="220" height="56" viewBox="0 0 220 56" xmlns="http://www.w3.org/2000/svg" style="background: #000">
<g filter="url(#filter0_d_64_1476)">
<path d="M38 19.1999V36.8001L25.0009 44L23.5554 43.1999V35.2005L25.0003 34.3999L26.4452 35.2005V39.9997L35.1114 35.1994V20.8001L33.6677 20H33.6666L25.0009 15.1997L22.1111 16.7998L20.6669 15.9997V14.3996L24.9997 12H25.0009L38 19.1999Z" fill="url(#paint0_linear_64_1476)"/>
<path d="M26.4446 21.4396V30.4002L25.0003 31.1997L14.8891 25.5998V36.8001L13.4449 37.6001L12 36.7995V22.3996L13.4443 21.5996L23.5554 27.1994V21.4402L25.0003 20.6401L26.4446 21.4396Z" fill="url(#paint1_linear_64_1476)"/>
</g>
<path fill-rule="evenodd" clip-rule="evenodd" d="M207.345 36.16C207.642 35.3493 207.791 34.4533 207.791 33.472V22.56C207.791 21.5787 207.642 20.6933 207.345 19.904C207.069 19.0933 206.559 18.4 205.815 17.824C205.093 17.248 204.084 16.8 202.788 16.48C201.513 16.16 199.887 16 197.912 16C195.936 16 194.3 16.16 193.004 16.48C191.708 16.8 190.688 17.248 189.944 17.824C189.222 18.4 188.712 19.0933 188.414 19.904C188.138 20.6933 188 21.5787 188 22.56V33.472C188 34.4533 188.138 35.3493 188.414 36.16C188.712 36.9493 189.222 37.632 189.944 38.208C190.688 38.7627 191.708 39.2 193.004 39.52C194.3 39.84 195.936 40 197.912 40C199.887 40 201.513 39.84 202.788 39.52C204.084 39.2 205.093 38.7627 205.815 38.208C206.559 37.632 207.069 36.9493 207.345 36.16ZM202 26C202 27.4806 201.196 28.7733 200 29.4649V34H196V29.4649C194.804 28.7733 194 27.4806 194 26C194 23.7909 195.791 22 198 22C200.209 22 202 23.7909 202 26Z" fill="white"/>
<path d="M173.598 23.2L172.1 28.064H177.103L175.605 23.2C175.52 23.008 175.425 22.8693 175.319 22.784C175.234 22.6987 175.127 22.656 175 22.656H174.203C174.076 22.656 173.959 22.6987 173.853 22.784C173.768 22.8693 173.683 23.008 173.598 23.2ZM171.781 38.368C171.781 38.7733 171.685 39.072 171.494 39.264C171.324 39.4347 171.037 39.52 170.634 39.52H165.949C165.545 39.52 165.248 39.4347 165.056 39.264C164.887 39.072 164.802 38.7733 164.802 38.368V29.92C164.802 29.28 164.897 28.544 165.088 27.712C165.301 26.88 165.62 25.9093 166.044 24.8L168.817 17.536C168.945 17.1733 169.136 16.9067 169.391 16.736C169.667 16.5653 170.018 16.48 170.442 16.48H179.015C179.419 16.48 179.749 16.5653 180.003 16.736C180.28 16.9067 180.482 17.1733 180.609 17.536L183.382 24.8C183.807 25.9093 184.115 26.88 184.306 27.712C184.518 28.544 184.625 29.28 184.625 29.92V38.368C184.625 38.7733 184.529 39.072 184.338 39.264C184.168 39.4347 183.881 39.52 183.477 39.52H178.665C178.24 39.52 177.921 39.4347 177.709 39.264C177.518 39.072 177.422 38.7733 177.422 38.368V33.888H171.781V38.368Z" fill="white"/>
<path d="M131.798 39.52H123.512C123.108 39.52 122.768 39.4453 122.492 39.296C122.237 39.1467 122.035 38.8693 121.887 38.464L118.763 30.624C118.572 30.1547 118.413 29.7493 118.285 29.408C118.158 29.0453 118.051 28.704 117.967 28.384C117.882 28.064 117.818 27.7333 117.775 27.392C117.754 27.0293 117.743 26.592 117.743 26.08V17.632C117.743 17.2267 117.828 16.9387 117.998 16.768C118.19 16.576 118.487 16.48 118.891 16.48H123.958C124.362 16.48 124.67 16.576 124.882 16.768C125.095 16.9387 125.201 17.2267 125.201 17.632V26.464C125.201 26.6773 125.222 26.8907 125.265 27.104C125.307 27.3173 125.371 27.5413 125.456 27.776L126.954 32.256C127.018 32.4693 127.092 32.6187 127.177 32.704C127.262 32.768 127.389 32.8 127.559 32.8H127.91C128.08 32.8 128.207 32.768 128.292 32.704C128.377 32.6187 128.452 32.4693 128.515 32.256L130.013 27.744C130.098 27.5093 130.162 27.2853 130.205 27.072C130.247 26.8587 130.268 26.6453 130.268 26.432V17.632C130.268 17.2267 130.353 16.9387 130.523 16.768C130.714 16.576 131.012 16.48 131.416 16.48H136.419C136.823 16.48 137.11 16.576 137.28 16.768C137.471 16.9387 137.566 17.2267 137.566 17.632V26.08C137.566 26.592 137.545 27.0293 137.503 27.392C137.482 27.7333 137.428 28.064 137.343 28.384C137.258 28.704 137.152 29.0453 137.025 29.408C136.897 29.7493 136.738 30.1547 136.547 30.624L133.423 38.464C133.275 38.8693 133.062 39.1467 132.786 39.296C132.531 39.4453 132.202 39.52 131.798 39.52Z" fill="white"/>
<path d="M102.051 22.24V26.336H104.441C104.993 26.336 105.365 26.1973 105.556 25.92C105.748 25.6213 105.843 25.2587 105.843 24.832V23.744C105.843 23.3173 105.748 22.9653 105.556 22.688C105.365 22.3893 104.993 22.24 104.441 22.24H102.051ZM100.903 39.52H95.9955C95.5918 39.52 95.2943 39.4347 95.1031 39.264C94.9331 39.072 94.8481 38.7733 94.8481 38.368V17.632C94.8481 17.2267 94.9331 16.9387 95.1031 16.768C95.2943 16.576 95.5918 16.48 95.9955 16.48H106.608C108.988 16.48 110.624 16.9813 111.516 17.984C112.43 18.9653 112.887 20.2453 112.887 21.824V23.296C112.887 24.192 112.748 24.96 112.472 25.6C112.217 26.2187 111.76 26.6667 111.102 26.944C112.249 27.072 113.173 27.5413 113.874 28.352C114.597 29.1627 114.958 30.24 114.958 31.584V38.368C114.958 38.7733 114.862 39.072 114.671 39.264C114.501 39.4347 114.214 39.52 113.811 39.52H108.871C108.467 39.52 108.17 39.4347 107.979 39.264C107.809 39.072 107.724 38.7733 107.724 38.368V33.472C107.724 33.0027 107.628 32.6613 107.437 32.448C107.267 32.2133 106.959 32.096 106.513 32.096H102.051V38.368C102.051 38.7733 101.955 39.072 101.764 39.264C101.594 39.4347 101.307 39.52 100.903 39.52Z" fill="white"/>
<path d="M89.9308 39.52H75.1432C74.7395 39.52 74.442 39.4347 74.2508 39.264C74.0808 39.072 73.9958 38.7733 73.9958 38.368V17.632C73.9958 17.2267 74.0808 16.9387 74.2508 16.768C74.442 16.576 74.7395 16.48 75.1432 16.48H89.9308C90.3345 16.48 90.6213 16.576 90.7913 16.768C90.9825 16.9387 91.0781 17.2267 91.0781 17.632V21.376C91.0781 21.7813 90.9825 22.08 90.7913 22.272C90.6213 22.4427 90.3345 22.528 89.9308 22.528H81.1347V24.992H87.3493C87.753 24.992 88.0399 25.088 88.2098 25.28C88.4011 25.4507 88.4967 25.7387 88.4967 26.144V29.568C88.4967 29.9733 88.4011 30.272 88.2098 30.464C88.0399 30.6347 87.753 30.72 87.3493 30.72H81.1347V33.472H89.9308C90.3345 33.472 90.6213 33.568 90.7913 33.76C90.9825 33.9307 91.0781 34.2187 91.0781 34.624V38.368C91.0781 38.7733 90.9825 39.072 90.7913 39.264C90.6213 39.4347 90.3345 39.52 89.9308 39.52Z" fill="white"/>
<path d="M55.9278 39.52H51.1473C50.7436 39.52 50.4462 39.4347 50.255 39.264C50.085 39.072 50 38.7733 50 38.368V17.632C50 17.2267 50.085 16.9387 50.255 16.768C50.4462 16.576 50.7436 16.48 51.1473 16.48H54.4618C54.8655 16.48 55.2054 16.544 55.4816 16.672C55.7791 16.8 56.0659 17.024 56.3421 17.344L62.5249 24.448V17.632C62.5249 17.2267 62.6099 16.9387 62.7798 16.768C62.9711 16.576 63.2685 16.48 63.6722 16.48H68.4527C68.8564 16.48 69.1432 16.576 69.3132 16.768C69.5044 16.9387 69.6 17.2267 69.6 17.632V38.368C69.6 38.7733 69.5044 39.072 69.3132 39.264C69.1432 39.4347 68.8564 39.52 68.4527 39.52H63.6722C63.2685 39.52 62.9711 39.4347 62.7798 39.264C62.6099 39.072 62.5249 38.7733 62.5249 38.368V34.432L57.0751 27.808V38.368C57.0751 38.7733 56.9795 39.072 56.7883 39.264C56.6183 39.4347 56.3315 39.52 55.9278 39.52Z" fill="white"/>
<path d="M142.566 39.52H153.306C155.962 39.52 157.928 38.9867 159.202 37.92C160.498 36.8533 161.146 35.2107 161.146 32.992V23.008C161.146 20.7893 160.498 19.1467 159.202 18.08C157.928 17.0133 155.962 16.48 153.306 16.48H142.566C142.163 16.48 141.865 16.576 141.674 16.768C141.504 16.9387 141.419 17.2267 141.419 17.632V22.52H152.446C152.956 22.52 153.328 22.72 153.561 22.976C153.816 23.2107 153.944 23.5947 153.944 24.128V31.904C153.944 32.4373 153.816 32.832 153.561 33.088C153.328 33.344 152.956 33.52 152.446 33.52H141.419V38.368C141.419 38.7733 141.504 39.072 141.674 39.264C141.865 39.4347 142.163 39.52 142.566 39.52Z" fill="white"/>
<path d="M141.419 24.52C141.419 23.9677 141.867 23.52 142.419 23.52H146.395C146.947 23.52 147.395 23.9677 147.395 24.52V31.52C147.395 32.0723 146.947 32.52 146.395 32.52H142.419C141.867 32.52 141.419 32.0723 141.419 31.52V24.52Z" fill="#00FAED"/>
<defs>
<filter id="filter0_d_64_1476" x="8" y="8" width="34" height="40" filterUnits="userSpaceOnUse" color-interpolation-filters="sRGB">
<feFlood flood-opacity="0" result="BackgroundImageFix"/>
<feColorMatrix in="SourceAlpha" type="matrix" values="0 0 0 0 0 0 0 0 0 0 0 0 0 0 0 0 0 0 127 0" result="hardAlpha"/>
<feOffset/>
<feGaussianBlur stdDeviation="2"/>
<feComposite in2="hardAlpha" operator="out"/>
<feColorMatrix type="matrix" values="0 0 0 0 0.278431 0 0 0 0 1 0 0 0 0 0.964706 0 0 0 0.2 0"/>
<feBlend mode="normal" in2="BackgroundImageFix" result="effect1_dropShadow_64_1476"/>
<feBlend mode="normal" in="SourceGraphic" in2="effect1_dropShadow_64_1476" result="shape"/>
</filter>
<linearGradient id="paint0_linear_64_1476" x1="12.963" y1="29.0665" x2="43.7778" y2="28.971" gradientUnits="userSpaceOnUse">
<stop stop-color="#85FFF9"/>
<stop offset="0.392203" stop-color="#00FAED"/>
<stop offset="1" stop-color="#008F88"/>
</linearGradient>
<linearGradient id="paint1_linear_64_1476" x1="12.963" y1="29.0665" x2="43.7778" y2="28.971" gradientUnits="userSpaceOnUse">
<stop stop-color="#85FFF9"/>
<stop offset="0.392203" stop-color="#00FAED"/>
<stop offset="1" stop-color="#008F88"/>
</linearGradient>
</defs>
</svg>