<?xml version="1.0" encoding="UTF-8"?>
<svg width="380px" height="120px" viewBox="0 0 380 120" version="1.1" xmlns="http://www.w3.org/2000/svg" xmlns:xlink="http://www.w3.org/1999/xlink">
    <title>logo_ghost_w</title>
    <g id="Logo" stroke="none" stroke-width="1" fill="none" fill-rule="evenodd">
        <g id="画板" transform="translate(-283.000000, -243.000000)" fill="#FFFFFF" fill-rule="nonzero">
            <g id="logo_ghost_w" transform="translate(283.000000, 243.000000)">
                <path d="M59.0472369,0.0359995574 C64.1893615,0.259396537 70.3847184,1.63791936 75.0612853,3.95361977 C82.8890072,7.79314184 88.5940469,13.8212278 92.1675233,22.0378777 C94.1114841,26.4222705 95.3156885,30.5760013 95.7644481,34.4990702 C95.9116579,35.7958625 96.0791565,37.148958 96.2670779,38.5583568 C96.4691218,40.0876272 96.5828031,41.4516202 96.6075808,42.6503357 C96.6435577,44.78078 96.8281229,46.8676347 96.8167509,48.9926304 C96.8040007,51.2936949 96.803127,53.6070952 96.814251,55.9328314 C96.9169663,56.722218 97.0199299,57.549895 97.1248681,58.4164179 C98.5480056,70.1679262 114.254082,84.2746269 114.254082,84.2746269 C114.339149,84.3675241 115.289364,85.5059701 110.583536,85.5059701 C107.320829,85.5059701 104.46596,85.0955224 102.018929,84.2746269 L100.641812,83.9057505 C103.756935,91.6329932 109.058768,98.4636209 115.87887,104.662068 C116.032234,104.800102 116.039981,104.93632 115.902027,105.070721 C115.724572,105.239758 115.547883,105.408983 115.371642,105.578067 L114.84394,106.084564 L114.317008,106.588232 C111.066035,109.681391 107.749831,112.500223 102.348989,112.955 C98.9584854,113.238333 95.852077,113.098482 93.0350177,112.535449 C89.4416588,111.819853 87.0065465,111.449341 85.7244586,111.423913 C78.8447869,111.282247 74.4640246,114.796663 68.922418,117.907874 C62.0241299,121.732867 53.427783,119.700499 46.7059649,116.692813 C44.807795,115.839182 42.9444863,115.190786 41.1143484,114.747624 C34.331263,113.107564 26.5184499,114.927432 20.499631,118.365566 C20.3353389,118.458147 20.1333831,118.483643 19.9523819,118.434659 C19.7714054,118.385675 19.6316983,118.267692 19.5737782,118.114925 C17.2552539,112.001476 15.867676,105.755442 15.3891459,99.3768224 C15.1585801,96.1802478 15.0132402,92.5641227 14.9530357,88.5284471 C14.8754754,83.0890101 14.8723395,78.3393116 14.9403316,74.2793519 L12.371099,74.9686567 C9.92406844,75.7895522 7.06919944,76.2 3.806492,76.2 C-1.08756914,76.2 0.135946143,74.9686567 0.135946143,74.9686567 C0.135946143,74.9686567 0.353100623,74.7622556 0.738833252,74.3790748 L1.05898212,74.0590059 C4.36679737,70.7318277 15.5234746,58.9065275 17.2651602,49.1104478 C17.3631868,48.5590988 17.5049842,47.941771 17.6905524,47.2584643 C17.9136247,46.1253626 18.1398139,45.0328162 18.3705017,43.9798201 C19.4495195,39.0105995 20.8823439,34.2102888 22.661446,29.578888 C28.87313,12.9603322 39.959384,-0.797652587 59.0472369,0.0359995574 Z M70.6399659,29 C67.3473236,29 64.6781096,31.6862915 64.6781096,35 C64.6781096,38.3137085 67.3473236,41 70.6399659,41 C73.9326082,41 76.6018222,38.3137085 76.6018222,35 C76.6018222,31.6862915 73.9326082,29 70.6399659,29 Z M38.8433989,28 C35.5507566,28 32.8815426,30.6862915 32.8815426,34 C32.8815426,37.3137085 35.5507566,40 38.8433989,40 C42.1360412,40 44.8052552,37.3137085 44.8052552,34 C44.8052552,30.6862915 42.1360412,28 38.8433989,28 Z" id="ghosto_w"></path>
                <path d="M171.709387,86.5627951 C178.906015,86.5627951 185.226302,83.9140699 190.670246,78.6166195 C196.11419,73.319169 199.500058,66.7107334 200.827849,58.7913126 C201.624524,58.8983318 202.85937,58.9518414 204.532387,58.9518414 C206.205404,58.9518414 208.449371,58.4301228 211.264288,57.3866856 C214.079206,56.3432483 216.097448,55.1526597 217.319016,53.8149197 L217.319016,53.8149197 L215.566332,48.9990557 C212.167186,51.6210261 208.887542,52.9320113 205.727399,52.9320113 C202.567256,52.9320113 200.243621,52.2096317 198.756495,50.7648725 C197.694262,49.7481901 197.163145,48.6512433 197.163145,47.4740321 C197.163145,46.2968209 197.468537,45.3604029 198.079321,44.6647781 C198.690105,43.9691533 199.553169,43.5945861 200.668514,43.5410765 C200.243621,43.2200189 199.500058,42.9792257 198.437825,42.8186969 C197.375592,42.6581681 196.605473,42.5779037 196.127468,42.5779037 C194.374784,42.5779037 192.914213,43.0059805 191.745757,43.8621341 C189.939961,45.1998741 189.037063,47.1529745 189.037063,49.7214353 C189.037063,50.2565313 189.11673,50.8183821 189.276065,51.4069877 L189.276065,51.4069877 L189.276065,52.3701605 C189.276065,56.4903997 188.652003,60.5571294 187.403879,64.5703494 C186.155756,68.5835694 184.21718,72.0081838 181.588154,74.8441926 C178.959127,77.6802014 175.971597,79.0982059 172.625563,79.0982059 C170.60732,79.0982059 168.881192,78.6032421 167.447177,77.6133144 C166.013162,76.6233868 164.924374,75.2722694 164.180811,73.5599622 C162.853019,70.3493862 162.189124,66.6839786 162.189124,62.5637394 C162.189124,57.6408562 163.025632,52.8249921 164.698649,48.1161473 C166.371666,43.4073025 168.615633,39.5546113 171.430551,36.5580737 C174.245468,33.561536 177.219721,32.0632672 180.353308,32.0632672 C182.743332,32.0632672 184.310126,32.7321372 185.053689,34.0698772 C185.372359,34.6049732 185.584805,35.0731822 185.691029,35.4745042 C185.797252,35.8758262 185.823808,36.4242997 185.770696,37.1199245 C185.717585,37.8155493 185.398915,38.4442871 184.814687,39.0061379 C184.230458,39.5679887 183.540007,39.8489141 182.743332,39.8489141 C181.043759,39.8489141 180.193973,38.7787221 180.193973,36.6383381 L180.193973,36.6383381 L179.476966,36.9593957 C179.052073,37.1199245 178.627179,37.5212465 178.202286,38.1633617 C177.777393,38.8054769 177.564946,39.5546113 177.564946,40.4107649 C177.564946,42.2300913 178.202286,43.5544539 179.476966,44.3838527 C180.751645,45.2132515 182.212216,45.6279509 183.858677,45.6279509 C186.992264,45.6279509 189.448678,44.6246459 191.227918,42.6180359 C193.007159,40.6114259 193.896779,38.3238905 193.896779,35.7554296 C193.896779,32.3843248 192.55571,29.748977 189.873571,27.8493862 C187.191433,25.9497954 183.765731,25 179.596467,25 C175.427202,25 171.430551,26.0568146 167.606512,28.1704438 C163.782473,30.284073 160.609052,33.0799496 158.086249,36.5580737 C155.563445,40.0361977 153.585036,44.0092855 152.151022,48.4773371 C150.717007,52.9453887 150,57.533837 150,62.2426818 C150,69.4664778 151.819074,75.325779 155.457222,79.8205855 C159.09537,84.3153919 164.512758,86.5627951 171.709387,86.5627951 Z M260.897125,86.4825307 C267.907863,86.4825307 272.794135,81.8271955 275.55594,72.516525 C275.184159,71.3928234 274.09537,69.8677998 272.289574,67.9414542 C271.333564,71.7941454 270.072163,74.6435316 268.505369,76.4896128 C266.938575,78.335694 265.464727,79.2587347 264.083824,79.2587347 C262.437363,79.2587347 261.614132,78.001259 261.614132,75.4863078 C261.614132,74.0950582 262.224916,69.3862134 263.446484,61.3597734 L263.446484,61.3597734 L263.55234,60.6676665 C263.800439,59.0012776 263.924489,57.8139754 263.924489,57.1057601 C263.924489,54.3232609 262.888812,52.0089707 260.817458,50.1628895 C258.746103,48.3168083 255.931186,47.3937677 252.372705,47.3937677 C247.539545,47.3937677 243.82173,49.2666037 241.219259,53.0122757 C239.519686,49.3201133 235.589424,47.4740321 229.428472,47.4740321 C226.347997,47.4740321 223.506523,48.5977337 220.904053,50.8451369 C220.585383,48.5977337 218.753031,47.4740321 215.406997,47.4740321 C214.238541,47.4740321 212.538968,47.7683349 210.308278,48.3569405 L210.308278,48.3569405 L205.926567,86.0812087 L216.602009,86.0812087 C216.670646,85.268686 216.82521,83.8920518 217.065702,81.9513061 L217.136752,81.3814573 C217.650471,77.2850663 218.5079,70.9322292 219.709041,62.3229462 C220.02771,60.3966006 220.771274,58.5638968 221.93973,56.8248347 C223.108186,55.0857727 224.595312,54.2162417 226.401108,54.2162417 C228.206905,54.2162417 229.468306,54.7112055 230.185313,55.7011331 C230.902321,56.6910607 231.260824,57.935159 231.260824,59.4334278 L231.260824,59.4334278 L228.23346,86.0812087 L238.510565,86.0812087 C238.730599,84.5786931 239.068799,81.9820349 239.525166,78.2912342 L239.621273,77.5120082 C240.142835,73.2728722 240.808276,67.7015104 241.617596,60.7979226 C242.095601,58.871577 242.945387,57.2930438 244.166955,56.0623229 C245.388523,54.8316021 246.80926,54.2162417 248.429165,54.2162417 C250.049071,54.2162417 251.230805,54.6978281 251.974368,55.6610009 C252.717931,56.6241737 253.089713,57.8281398 253.089713,59.272899 L253.089713,59.272899 L251.177693,77.0113314 C251.177693,79.2587347 251.974368,81.3991187 253.567717,83.4324835 C255.161067,85.4658483 257.604203,86.4825307 260.897125,86.4825307 Z M280.335989,37.8423041 C282.088673,37.8423041 283.589077,37.2269437 284.837201,35.9962229 C286.085325,34.765502 286.709387,33.2672332 286.709387,31.5014164 C286.709387,29.7355996 286.085325,28.2239534 284.837201,26.9664778 C283.589077,25.7090022 282.088673,25.0802644 280.335989,25.0802644 C278.583304,25.0802644 277.096178,25.7223796 275.87461,27.00661 C274.653042,28.2373308 274.042258,29.7355996 274.042258,31.5014164 C274.042258,33.2672332 274.653042,34.765502 275.87461,35.9962229 C277.096178,37.2269437 278.583304,37.8423041 280.335989,37.8423041 Z M280.176654,86.6430595 C283.735135,86.6430595 286.789054,85.3320743 289.338414,82.7101039 C291.887773,80.0881335 293.693569,76.6367642 294.755802,72.3559962 C294.596467,71.8209002 294.118462,71.0182562 293.321787,69.9480642 C292.525113,68.8778722 291.940884,68.235757 291.569103,68.0217186 C290.82554,70.911237 289.723473,73.4930752 288.262903,75.7672332 C286.802332,78.0413912 285.208983,79.1784703 283.482854,79.1784703 C281.756726,79.1784703 280.787438,78.4828454 280.574991,77.0915958 C280.468768,76.5564998 280.415656,75.927762 280.415656,75.2053824 C280.415656,74.4830028 280.548436,73.586717 280.813994,72.516525 C280.813994,72.3559962 281.849671,64.222537 283.921025,48.1161473 C282.805681,47.7415801 281.517723,47.5542965 280.057153,47.5542965 C278.596582,47.5542965 277.122734,47.8084671 275.635608,48.3168083 C274.148482,48.8251495 273.13936,49.5609065 272.608244,50.5240793 L272.608244,50.5240793 L269.740215,75.325779 C269.687103,75.9678942 269.660547,76.5832546 269.660547,77.1718602 C269.660547,79.9543595 270.523612,82.2285175 272.24974,83.9943343 C273.975869,85.7601511 276.618173,86.6430595 280.176654,86.6430595 Z M305.988916,110 C310.237848,110 313.703383,108.648883 316.385521,105.946648 C319.06766,103.244413 320.700843,99.3783443 321.285071,94.3484419 L321.285071,94.3484419 L323.436093,77.5731822 C328.4817,73.9345294 332.518185,70.509915 335.545549,67.299339 L335.545549,67.299339 L333.235192,62.4032106 C331.21695,64.9181618 328.242697,67.700661 324.312435,70.7507082 L324.312435,70.7507082 L327.180464,48.1161473 C326.118231,47.6345609 324.684217,47.3937677 322.878421,47.3937677 C321.072624,47.3937677 319.346496,47.9021089 317.700035,48.9187913 C315.256899,47.9556185 312.57476,47.4740321 309.65362,47.4740321 C303.386445,47.4740321 298.208059,49.5609065 294.118462,53.7346553 C290.028865,57.9084042 287.984067,63.5001574 287.984067,70.509915 C287.984067,75.1652502 289.338414,78.9376771 292.047108,81.8271955 C294.755802,84.7167139 297.995613,86.2952471 301.76654,86.5627951 C297.358273,90.4154863 295.154139,94.6694995 295.154139,99.3248347 C295.154139,103.124016 296.375707,105.879761 298.818843,107.592068 C301.155756,109.197356 303.54578,110 305.988916,110 Z M305.829581,79.1784703 C303.86445,79.1784703 302.257822,78.402581 301.009699,76.8508026 C299.761575,75.2990242 299.137513,73.2121498 299.137513,70.5901794 C299.137513,70.1621026 299.164069,69.707271 299.21718,69.2256846 C299.588962,64.088763 300.770696,60.2226944 302.762383,57.6274788 C304.75407,55.0322631 307.449486,53.7346553 310.848632,53.7346553 C312.229535,53.7346553 313.743217,54.0557129 315.389678,54.6978281 L315.389678,54.6978281 L313.397991,72.115203 C311.698418,76.8240478 309.175615,79.1784703 305.829581,79.1784703 Z M305.351576,102.776204 C304.289343,102.776204 303.346611,102.361505 302.523381,101.532106 C301.70015,100.702707 301.288535,99.5656279 301.288535,98.1208687 C301.288535,93.6260623 304.82046,89.2650299 311.884309,85.0377715 L311.884309,85.0377715 L310.529962,97.0774315 C310.051957,100.876613 308.325828,102.776204 305.351576,102.776204 Z M345.703152,86.5627951 C350.031752,86.5627951 353.576954,84.8237331 356.33876,81.3456091 C357.932109,84.7702235 361.17192,86.4825307 366.058192,86.4825307 C368.607551,86.4825307 371.183466,85.4524709 373.785937,83.3923513 C376.388408,81.3322317 378.459762,77.7604658 380,72.6770538 C379.415772,70.9647466 378.353539,69.4129682 376.813301,68.0217186 C375.697956,71.8744098 374.396721,74.6970412 372.909595,76.4896128 C371.422469,78.2821844 370.01501,79.1784703 368.687219,79.1784703 C366.987646,79.1784703 366.137859,78.1082782 366.137859,75.9678942 C366.137859,74.3626062 366.376862,71.7406358 366.854867,68.101983 C367.067313,66.496695 367.439095,63.7810828 367.970211,59.9551464 C368.501328,56.1292099 369.005888,52.2363865 369.483893,48.2766761 C368.580995,47.7415801 367.107147,47.4740321 365.062348,47.4740321 C363.01755,47.4740321 361.278143,47.9288637 359.844129,48.8385269 C357.61344,47.9288637 355.170304,47.4740321 352.514721,47.4740321 L352.514721,47.4740321 L352.036716,47.4740321 C345.769542,47.4740321 340.591156,49.5609065 336.501559,53.7346553 C332.411962,57.9084042 330.367163,63.5001574 330.367163,70.509915 C330.367163,75.325779 331.841011,79.2052251 334.788708,82.1482531 C337.736405,85.0912811 341.374553,86.5627951 345.703152,86.5627951 Z M348.212678,79.1784703 C346.247546,79.1784703 344.640919,78.402581 343.392795,76.8508026 C342.144672,75.2990242 341.52061,73.2121498 341.52061,70.5901794 C341.52061,70.1621026 341.547165,69.707271 341.600277,69.2256846 C341.972059,64.088763 343.153793,60.2226944 345.14548,57.6274788 C347.137167,55.0322631 349.832583,53.7346553 353.231728,53.7346553 C354.665743,53.7346553 356.152869,54.0557129 357.693107,54.6978281 L357.693107,54.6978281 L355.781088,72.0349386 C354.081515,76.797293 351.558711,79.1784703 348.212678,79.1784703 Z" id="Omiga"></path>
            </g>
        </g>
    </g>
</svg>