<?xml version="1.0" encoding="UTF-8"?>
<svg version="1.1" xmlns="http://www.w3.org/2000/svg" width="689" height="200">
<path d="M0 0 C227.37 0 454.74 0 689 0 C689 66 689 132 689 200 C461.63 200 234.26 200 0 200 C0 134 0 68 0 0 Z " fill="#FBF4EC" transform="translate(0,0)"/>
<path d="M0 0 C-1.95585325 1.00484204 -3.91476237 2.00373805 -5.875 3 C-7.51082031 3.8353125 -7.51082031 3.8353125 -9.1796875 4.6875 C-12 6 -12 6 -14 6 C-14 6.66 -14 7.32 -14 8 C-9.58437645 7.03659123 -5.65353962 5.93027926 -1.5625 4 C8.77818313 -0.6812552 18.84809349 -0.21654187 30 0 C30 0.33 30 0.66 30 1 C28.69546875 1.09796875 27.3909375 1.1959375 26.046875 1.296875 C16.1374437 2.11728638 7.3259061 3.36100623 -2 7 C-3.32732816 7.35649523 -4.65901982 7.69890028 -6 8 C-6 8.66 -6 9.32 -6 10 C-5.3709375 9.65066406 -4.741875 9.30132812 -4.09375 8.94140625 C1.40978315 6.01558215 5.76883393 4.34617589 12 4 C9.09091772 5.93938819 6.59137621 6.96774957 3.3125 8.125 C1.82169922 8.65480469 1.82169922 8.65480469 0.30078125 9.1953125 C-0.45847656 9.46085937 -1.21773437 9.72640625 -2 10 C2.38626605 12.92417737 4.37439273 13.1046091 9.65234375 13.02734375 C10.99934639 13.01469734 12.34635173 13.00233639 13.69335938 12.99023438 C15.81771245 12.9654097 17.94192555 12.93743046 20.06616211 12.90405273 C22.11573176 12.87384555 24.16512247 12.85607434 26.21484375 12.83984375 C28.05743774 12.81458618 28.05743774 12.81458618 29.93725586 12.78881836 C33 13 33 13 36 15 C38.64017635 15.81779841 41.30270591 16.3809489 44 17 C43.505 16.01 43.505 16.01 43 15 C44.8708878 14.32187886 46.74694293 13.6580054 48.625 13 C49.66914063 12.62875 50.71328125 12.2575 51.7890625 11.875 C55.01774506 10.99516436 57.67244294 10.84011738 61 11 C61.16690442 20.38373752 61.16690442 20.38373752 60.1875 24 C59.92009254 28.27851935 61.74219537 31.03678543 63.7734375 34.73046875 C67.5681662 41.75192536 66.8591916 50.84733766 64.8125 58.375 C63.27288172 62.9050307 60.98775133 66.28549834 58 70 C58.51949219 70.56847656 59.03898437 71.13695313 59.57421875 71.72265625 C71 84.37338262 71 84.37338262 71 88 C74.50299506 86.24850247 75.08080722 82.46037693 76.30053711 78.90698242 C80.20711485 65.97286161 80.19776707 49.14913973 74 37 C72.53701287 34.33759261 71.01638672 31.7486817 69.3828125 29.1875 C67.71747772 26.5530721 66.39275048 23.78550096 65 21 C64.03465478 19.64136599 63.04722851 18.29656863 62 17 C67.23995557 17.66283199 68.9934242 19.60757679 72.234375 23.57421875 C83.23793188 38.69193738 85.88771354 54.68616099 84 73 C83.08429877 77.99453651 81.27906584 82.4720147 79 87 C78.55398437 87.89589844 78.10796875 88.79179688 77.6484375 89.71484375 C68.6118074 106.09689106 54.39488187 116.20846033 36.71411133 121.38476562 C32.16304683 122.41640029 27.71118918 122.44606225 23.0625 122.375 C21.6074707 122.3586853 21.6074707 122.3586853 20.12304688 122.34204102 C13.34317464 122.19080649 7.29561441 121.68164339 1 119 C-0.10214844 118.54753906 -1.20429687 118.09507812 -2.33984375 117.62890625 C-18.01688178 110.53083366 -29.28002117 98.86319999 -35.375 82.6875 C-40.84641657 67.82974371 -40.8569687 51.61257061 -34.7109375 36.91796875 C-30.55652478 28.08706471 -25.09997014 20.66966892 -18 14 C-18.33 13.01 -18.66 12.02 -19 11 C-31.01832707 21.54469023 -39.74093429 35.82074631 -41.27783203 51.90820312 C-42.55595924 72.49918474 -38.72970379 89.40881896 -25.375 105.6875 C-14.78222939 117.00016764 -0.40220713 124.73644793 15.16015625 125.37109375 C37.0758066 125.76176679 53.12702328 121.9993063 69.578125 106.6484375 C82.08278429 92.9739875 87.55652711 76.62801455 87.18359375 58.22265625 C86.10031696 39.2076914 77.93907843 23.80119447 64 11 C64.99 10.67 65.98 10.34 67 10 C79.2634594 20.75976546 87.93642846 35.6957417 90 52 C91.28179203 73.30716593 86.62353064 90.96750823 72.3671875 107.50390625 C59.29437384 121.28860581 43.05933492 127.82244459 24.29101562 128.45092773 C4.26759693 128.76128455 -11.11864399 122.63513408 -26 109 C-39.44652852 95.04284381 -45.29927609 76.91384072 -45.38500977 57.83496094 C-45.04779316 40.7809144 -36.6457589 24.64124179 -24.8359375 12.6640625 C-19.13138506 7.30524051 -8.32561583 -2.78743085 0 0 Z " fill="#2A291D" transform="translate(82,39)"/>
<path d="M0 0 C3.785966 3.61077992 6.73561389 7.53468534 7.30078125 12.8046875 C7.33663572 22.19855798 5.11803565 27.05520277 -1 34 C-0.113125 34.53625 0.77375 35.0725 1.6875 35.625 C5.47819379 38.15811765 9.06910529 41.35368298 10.62109375 45.765625 C11.92800695 53.4723709 12.53864795 63.25769983 8 70 C0.56849548 79.01090704 -9.34313191 81.68916584 -20.59033203 82.8190918 C-24.79025387 83.13440508 -28.97723254 83.18435566 -33.1875 83.1875 C-34.03119141 83.19974609 -34.87488281 83.21199219 -35.74414062 83.22460938 C-43.47349264 83.24195272 -50.12021471 82.12568361 -58 81 C-58 52.62 -58 24.24 -58 -5 C-40.89199097 -8.42160181 -14.80336088 -10.71720315 0 0 Z " fill="#211919" transform="translate(429,64)"/>
<path d="M0 0 C5.64500614 5.19285759 9.05276367 10.86352424 9.98046875 18.55859375 C10.14281174 26.31285876 9.27045864 32.13961512 4.609375 38.48046875 C2.10485224 41.05682295 -0.55753842 43.27904165 -3.390625 45.48046875 C-4.050625 46.14046875 -4.710625 46.80046875 -5.390625 47.48046875 C-4.6171875 48.52203125 -3.84375 49.56359375 -3.046875 50.63671875 C3.92436908 60.17790859 9.69327001 69.73733344 14.609375 80.48046875 C7.05163561 81.52464255 -0.94647696 82.56164294 -8.390625 80.48046875 C-13.11831431 76.85918341 -15.15461152 71.0627658 -17.39746094 65.71289062 C-18.89839686 62.33910545 -20.76474093 59.50492237 -22.890625 56.48046875 C-23.5196875 55.53171875 -24.14875 54.58296875 -24.796875 53.60546875 C-28.13021796 50.4745661 -28.13021796 50.4745661 -37.390625 50.48046875 C-37.390625 60.38046875 -37.390625 70.28046875 -37.390625 80.48046875 C-43.990625 80.48046875 -50.590625 80.48046875 -57.390625 80.48046875 C-57.390625 52.10046875 -57.390625 23.72046875 -57.390625 -5.51953125 C-14.02498367 -10.0843356 -14.02498367 -10.0843356 0 0 Z " fill="#211919" transform="translate(254.390625,64.51953125)"/>
<path d="M0 0 C0.99 0 1.98 0 3 0 C3.08636719 1.16015625 3.17273438 2.3203125 3.26171875 3.515625 C4.48388384 17.86144193 7.54048502 29.4490557 18 40 C25.19953254 46.04992976 33.50306759 51.02595565 43 52 C41.86695008 55.39914975 40.87481525 56.05254451 38 58 C39.98 57.34 41.96 56.68 44 56 C47.64841 60.10446125 51.10653626 64.32036652 54.4375 68.6875 C55.13746094 69.59886719 55.83742188 70.51023437 56.55859375 71.44921875 C58 74 58 74 57.8984375 76.0703125 C52.83603857 86.94346498 42.2302988 94.57233857 31.375 98.9375 C15.03992268 104.57028528 -0.69981052 104.71087604 -16.5 97.0625 C-20.35869372 95.0748487 -23.95580949 93.12139824 -27 90 C-28.24199105 80.077009 -25.29206167 67.03762419 -21 58 C-18.875 57.1875 -18.875 57.1875 -17 57 C-18.11375 56.814375 -18.11375 56.814375 -19.25 56.625 C-21.80141485 56.04513299 -23.7267573 55.26291261 -26 54 C-26 53.34 -26 52.68 -26 52 C-24.824375 51.62875 -23.64875 51.2575 -22.4375 50.875 C-12.35245552 47.01529162 -7.53480625 38.72166724 -3.1875 29.25 C-0.85271158 22.86005275 -0.730336 16.35542748 -0.4375 9.625 C-0.39431641 8.69816406 -0.35113281 7.77132812 -0.30664062 6.81640625 C-0.20123814 4.54439706 -0.09911394 2.27229075 0 0 Z " fill="#FAF8F9" transform="translate(95,54)"/>
<path d="M0 0 C1.10480713 0.00519653 1.10480713 0.00519653 2.23193359 0.01049805 C11.31221874 0.18925937 19.57241236 2.40956044 27.75 6.3125 C26.65301833 12.00389902 25.20946923 17.05817937 22.75 22.3125 C22.15832031 22.10753906 21.56664062 21.90257813 20.95703125 21.69140625 C19.77173828 21.28728516 19.77173828 21.28728516 18.5625 20.875 C17.78519531 20.60816406 17.00789063 20.34132813 16.20703125 20.06640625 C7.75340787 17.47252817 -2.92204811 16.56781077 -11.3125 19.8125 C-16.78608581 22.72486075 -20.00694372 27.38213366 -22.38671875 32.9921875 C-23.49051903 37.23757321 -23.63362908 41.1918709 -23.625 45.5625 C-23.62338867 46.40570801 -23.62177734 47.24891602 -23.62011719 48.11767578 C-23.46543954 55.97742328 -21.56359997 61.51158576 -17.5 68.1875 C-9.48978418 75.75270383 -0.71102359 74.98559301 9.75 75.3125 C9.75 65.0825 9.75 54.8525 9.75 44.3125 C16.35 44.3125 22.95 44.3125 29.75 44.3125 C29.75 58.8325 29.75 73.3525 29.75 88.3125 C11.10894032 92.30701279 -7.89160547 96.22907407 -25.4375 86.6875 C-35.36856381 80.25595391 -40.49420419 71.6901183 -43.79418945 60.46069336 C-44.71788441 56.10740363 -44.47755475 51.62043757 -44.5 47.1875 C-44.520625 46.19234375 -44.54125 45.1971875 -44.5625 44.171875 C-44.62835277 31.5610697 -40.61154671 20.98049695 -32.125 11.5625 C-23.40948284 3.38807925 -11.70324501 -0.09069135 0 0 Z " fill="#211919" transform="translate(323.25,54.6875)"/>
<path d="M0 0 C6.51390108 6.54773953 6.61793084 15.48634203 6.61720276 24.16575623 C6.61204147 25.1139473 6.60688019 26.06213837 6.6015625 27.0390625 C6.60014755 28.02797989 6.5987326 29.01689728 6.59727478 30.03578186 C6.59170713 33.17362579 6.57916065 36.31139662 6.56640625 39.44921875 C6.56138707 41.58528542 6.55682489 43.72135322 6.55273438 45.85742188 C6.54174831 51.0755455 6.52504261 56.2936269 6.50390625 61.51171875 C3.5139102 62.00989381 0.52302649 62.50101219 -2.46875 62.98828125 C-3.30426392 63.1282251 -4.13977783 63.26816895 -5.00061035 63.41235352 C-17.14993448 65.37582109 -32.18164159 67.01041395 -42.94140625 59.89453125 C-47.65648963 55.95684513 -50.26026424 53.09487454 -50.83203125 46.83203125 C-50.85582078 45.43373549 -50.8685277 44.03521451 -50.87109375 42.63671875 C-50.89558594 41.94191406 -50.92007813 41.24710938 -50.9453125 40.53125 C-50.97999542 34.3923725 -48.89499904 31.01213674 -44.7421875 26.68359375 C-36.56755096 20.25688165 -26.46026197 19.64316806 -16.3828125 20.7421875 C-14.74937512 20.96805359 -13.12169258 21.23502108 -11.49609375 21.51171875 C-11.89363196 20.04805533 -12.31490759 18.59082525 -12.74609375 17.13671875 C-13.09414063 15.91855469 -13.09414063 15.91855469 -13.44921875 14.67578125 C-14.33177251 12.45668536 -14.33177251 12.45668536 -16.0859375 11.234375 C-19.64187261 10.16817079 -23.13393277 10.26387427 -26.80859375 10.32421875 C-27.90977539 10.32518555 -27.90977539 10.32518555 -29.03320312 10.32617188 C-33.61214741 10.36273842 -37.97863008 10.76577032 -42.49609375 11.51171875 C-43.96279488 6.28659596 -44.72186777 1.93029535 -44.49609375 -3.48828125 C-30.19251843 -7.95814854 -12.50688762 -9.66309415 0 0 Z " fill="#201818" transform="translate(584.49609375,82.48828125)"/>
<path d="M0 0 C2.31640625 2.0625 2.31640625 2.0625 4 4 C4 4.66 4 5.32 4 6 C5.12831973 7.14332398 6.3048824 8.23919246 7.5 9.3125 C20.19960762 21.71938617 25.91669601 38.0640351 26.25 55.5 C25.85447272 73.97991352 19.45034587 89.18297532 6.55078125 102.53515625 C1.19133263 107.57488894 -4.38416637 111.76683837 -11 115 C-11.99515625 115.48726563 -12.9903125 115.97453125 -14.015625 116.4765625 C-28.45437711 122.37733105 -48.69132038 123.03661808 -63.30078125 117.31640625 C-64.19152344 116.88199219 -65.08226562 116.44757813 -66 116 C-67.00417969 115.51402344 -68.00835937 115.02804688 -69.04296875 114.52734375 C-86.54788644 105.14257799 -97.05645029 90.62666025 -103 72 C-107.49517289 56.61189227 -104.64244484 37.9768654 -97.42578125 23.9375 C-93.00055444 16.51054592 -87.24352967 8.82901978 -80 4 C-79.28515625 5.78515625 -79.28515625 5.78515625 -79 8 C-80.37109375 9.68359375 -80.37109375 9.68359375 -82.4375 11.4375 C-93.02026183 21.40864862 -99.56311502 35.51771436 -100.23828125 50.03125 C-100.68476774 68.03149371 -96.05456506 84.36445656 -83.52124023 97.76416016 C-70.55490335 110.79759042 -54.50290931 115.32489368 -36.65283203 115.38500977 C-21.4334435 115.15441297 -7.30570948 109.24948956 3.8125 98.75 C17.93778682 83.62853563 21.8212498 66.79173501 21.17919922 46.77636719 C20.36667669 34.18780285 13.75667841 22.70478742 5.61328125 13.36328125 C3.97012285 11.67727766 3.97012285 11.67727766 1 12 C1.61875 12.556875 2.2375 13.11375 2.875 13.6875 C5.1183392 16.12878089 5.79208785 17.95317681 7 21 C7.93228526 22.53693884 8.89202381 24.05747687 9.875 25.5625 C17.96760366 39.16918165 19.77495979 55.33153815 15.9765625 70.78515625 C14.92684968 74.33636455 13.76369554 77.73095306 12 81 C10.515 81.495 10.515 81.495 9 82 C8.32453125 81.04738281 7.6490625 80.09476562 6.953125 79.11328125 C6.0521602 77.8462995 5.15111423 76.57937548 4.25 75.3125 C3.8065625 74.68666016 3.363125 74.06082031 2.90625 73.41601562 C0.37084895 69.85526857 -2.23005236 66.38477246 -5 63 C-3.8553125 61.824375 -3.8553125 61.824375 -2.6875 60.625 C2.77406402 53.96871885 3.60170417 45.68627804 3.43359375 37.3203125 C2.82845027 32.68633092 1.21074147 28.84450084 -0.80859375 24.65625 C-3.86106279 17.85074526 -2.4301422 12.07799189 -1 5 C-2.89692143 5.45380895 -4.79249595 5.91324992 -6.6875 6.375 C-7.74324219 6.63023438 -8.79898438 6.88546875 -9.88671875 7.1484375 C-12.70406766 7.91905489 -15.31668325 8.85498543 -18 10 C-17.505 10.99 -17.505 10.99 -17 12 C-21.62 11.01 -26.24 10.02 -31 9 C-31 8.67 -31 8.34 -31 8 C-31.81678223 8.01571045 -32.63356445 8.0314209 -33.47509766 8.04760742 C-37.19166077 8.1101394 -40.90811296 8.14904944 -44.625 8.1875 C-46.55279297 8.22520508 -46.55279297 8.22520508 -48.51953125 8.26367188 C-50.38544922 8.27817383 -50.38544922 8.27817383 -52.2890625 8.29296875 C-54.00150146 8.31653442 -54.00150146 8.31653442 -55.74853516 8.34057617 C-59.4082852 7.95723398 -61.82933839 6.8205057 -65 5 C-62.7991151 2.52140092 -60.93627031 1.38789634 -57.8125 0.3125 C-57.09707031 0.06113281 -56.38164063 -0.19023438 -55.64453125 -0.44921875 C-55.10183594 -0.63097656 -54.55914062 -0.81273437 -54 -1 C-55.77065111 -0.35366725 -57.54152753 0.2920483 -59.3125 0.9375 C-60.29863281 1.29714844 -61.28476563 1.65679687 -62.30078125 2.02734375 C-64.1920563 2.70885965 -66.09284329 3.3642811 -68 4 C-68 3.34 -68 2.68 -68 2 C-60.06813289 -1.68466167 -52.69200237 -3.96743943 -44 -5 C-52.2381055 -4.49169136 -59.86921544 -3.14483044 -67.25 0.6875 C-70.38792763 2.18514728 -72.56530168 2.24533559 -76 2 C-76 1.34 -76 0.68 -76 0 C-72.04 -1.98 -68.08 -3.96 -64 -6 C-64 -6.66 -64 -7.32 -64 -8 C-41.34583899 -14.51358337 -20.10679309 -13.03519812 0 0 Z " fill="#43422C" transform="translate(144,45)"/>
<path d="M0 0 C-0.60636233 5.76044212 -2.75658279 10.72014369 -5 16 C-5.60328125 15.79503906 -6.2065625 15.59007813 -6.828125 15.37890625 C-7.62734375 15.10949219 -8.4265625 14.84007813 -9.25 14.5625 C-10.03890625 14.29566406 -10.8278125 14.02882813 -11.640625 13.75390625 C-20.19239101 11.02130552 -30.27720219 10.25354857 -38.625 14 C-43.28729819 16.72612784 -45.79032802 20.13872164 -48 25 C-48.36351562 25.71800781 -48.72703125 26.43601563 -49.1015625 27.17578125 C-50.37858247 31.19006575 -50.38318885 34.99726413 -50.375 39.1875 C-50.37338867 40.03521973 -50.37177734 40.88293945 -50.37011719 41.75634766 C-50.24452378 48.17269313 -49.33847545 53.41648705 -46 59 C-45.443125 59.94875 -44.88625 60.8975 -44.3125 61.875 C-37.18617269 68.42351699 -29.29206281 68.6567756 -20.05078125 68.33984375 C-15.30786245 68.0414301 -11.39869824 66.78930098 -7 65 C-5.68 65 -4.36 65 -3 65 C-2.32532438 66.74692795 -1.66055844 68.49768525 -1 70.25 C-0.62875 71.22453125 -0.2575 72.1990625 0.125 73.203125 C1 76 1 76 1 80 C-14.99141301 86.87730914 -31.19126034 88.45203918 -48 83 C-57.5603436 78.79030138 -64.04746631 72.11196705 -68.17578125 62.56640625 C-70.59310931 55.03946533 -71.33987733 47.9526462 -71.3125 40.0625 C-71.32861328 39.13759766 -71.34472656 38.21269531 -71.36132812 37.25976562 C-71.36995604 24.94772819 -67.13441912 14.41594073 -58.875 5.25 C-43.68250388 -8.90512303 -17.771825 -9.83876596 0 0 Z " fill="#211919" transform="translate(524,61)"/>
<path d="M0 0 C-1.95585325 1.00484204 -3.91476237 2.00373805 -5.875 3 C-7.51082031 3.8353125 -7.51082031 3.8353125 -9.1796875 4.6875 C-12 6 -12 6 -14 6 C-14 6.66 -14 7.32 -14 8 C-9.58437645 7.03659123 -5.65353962 5.93027926 -1.5625 4 C8.77818313 -0.6812552 18.84809349 -0.21654187 30 0 C30 0.33 30 0.66 30 1 C28.69546875 1.09796875 27.3909375 1.1959375 26.046875 1.296875 C16.1374437 2.11728638 7.3259061 3.36100623 -2 7 C-3.32732816 7.35649523 -4.65901982 7.69890028 -6 8 C-6 8.66 -6 9.32 -6 10 C-5.3709375 9.65066406 -4.741875 9.30132812 -4.09375 8.94140625 C1.40978315 6.01558215 5.76883393 4.34617589 12 4 C9.09091772 5.93938819 6.59137621 6.96774957 3.3125 8.125 C1.82169922 8.65480469 1.82169922 8.65480469 0.30078125 9.1953125 C-0.45847656 9.46085937 -1.21773437 9.72640625 -2 10 C2.39521511 12.93014341 4.46358427 13.11990091 9.7578125 13.09765625 C10.42086395 13.0962413 11.08391541 13.09482635 11.76705933 13.09336853 C13.88641863 13.08776754 16.00567259 13.075215 18.125 13.0625 C19.56119639 13.05748512 20.99739444 13.05292219 22.43359375 13.04882812 C25.95576345 13.03779782 29.47787145 13.02053259 33 13 C33 13.33 33 13.66 33 14 C26.4 14 19.8 14 13 14 C13.02320313 15.423125 13.04640625 16.84625 13.0703125 18.3125 C13.08908307 20.20832805 13.10728189 22.10416182 13.125 24 C13.14175781 24.93457031 13.15851563 25.86914062 13.17578125 26.83203125 C13.26726283 39.91389655 8.8657925 51.74429115 -0.203125 61.375 C-4.16905645 64.96158149 -7.50796261 67 -13 67 C-13 67.66 -13 68.32 -13 69 C-10.03 69.99 -7.06 70.98 -4 72 C-4.33 72.66 -4.66 73.32 -5 74 C-5.99 73.67 -6.98 73.34 -8 73 C-8.20109375 74.05380859 -8.20109375 74.05380859 -8.40625 75.12890625 C-8.80182185 77.04170436 -9.23949814 78.94627797 -9.71875 80.83984375 C-11.75075699 88.89675145 -12.6393955 96.70609656 -13 105 C-4.76250043 110.94264522 3.36768255 114.17919988 13 117 C13 117.33 13 117.66 13 118 C1.54530646 117.80250528 -8.91676918 111.89077294 -17 104 C-16.01 103.505 -16.01 103.505 -15 103 C-15.04640625 102.3915625 -15.0928125 101.783125 -15.140625 101.15625 C-15.39466821 94.98662917 -14.63352826 89.50963485 -13.125 83.5625 C-12.95129883 82.87671875 -12.77759766 82.1909375 -12.59863281 81.484375 C-11.70307843 78.1272876 -10.71925921 75.02806465 -9 72 C-10.0828125 71.690625 -10.0828125 71.690625 -11.1875 71.375 C-15.97556481 69.03416832 -18.25779535 65.30525646 -20.8125 60.8125 C-23.8203892 51.15559256 -21.70652292 42.21014786 -18 33 C-16.80859375 31.0546875 -16.80859375 31.0546875 -15.6875 29.5625 C-13.65200677 27.03890452 -13.65200677 27.03890452 -14.25 23.625 C-14.4975 22.75875 -14.745 21.8925 -15 21 C-17.08516811 20.78031555 -17.08516811 20.78031555 -18.515625 22.328125 C-25.51212675 30.08100532 -29.60901926 39.2038334 -33 49 C-34.89286684 44.13428708 -32.38477303 40.4934974 -30.4140625 35.99609375 C-28.77846541 32.53061593 -27.00334808 29.26471538 -25 26 C-34.90722644 41.22410462 -38.5355522 56.82988544 -35.31640625 74.8203125 C-30.57099657 91.16342468 -20.36203473 104.96609807 -5.48046875 113.43359375 C5.67410622 118.93738843 17.70527634 120.40772926 30 121 C30 121.33 30 121.66 30 122 C11.26603571 122.55645438 -5.09622902 119.74590392 -19.4375 106.6875 C-30.509138 96.08370304 -38.59673237 81.62774753 -39.203125 65.99609375 C-39.53271533 46.97581103 -34.67241682 31.49359187 -21.4453125 17.3359375 C-20.32132521 16.19924979 -19.16511017 15.09449744 -18 14 C-18.33 13.01 -18.66 12.02 -19 11 C-31.01832707 21.54469023 -39.74093429 35.82074631 -41.27783203 51.90820312 C-42.55595924 72.49918474 -38.72970379 89.40881896 -25.375 105.6875 C-14.78222939 117.00016764 -0.40220713 124.73644793 15.16015625 125.37109375 C37.0758066 125.76176679 53.12702328 121.9993063 69.578125 106.6484375 C82.08278429 92.9739875 87.55652711 76.62801455 87.18359375 58.22265625 C86.10031696 39.2076914 77.93907843 23.80119447 64 11 C64.99 10.67 65.98 10.34 67 10 C79.2634594 20.75976546 87.93642846 35.6957417 90 52 C91.28179203 73.30716593 86.62353064 90.96750823 72.3671875 107.50390625 C59.29437384 121.28860581 43.05933492 127.82244459 24.29101562 128.45092773 C4.26759693 128.76128455 -11.11864399 122.63513408 -26 109 C-39.44652852 95.04284381 -45.29927609 76.91384072 -45.38500977 57.83496094 C-45.04779316 40.7809144 -36.6457589 24.64124179 -24.8359375 12.6640625 C-19.13138506 7.30524051 -8.32561583 -2.78743085 0 0 Z " fill="#1D1B17" transform="translate(82,39)"/>
<path d="M0 0 C0 6.6 0 13.2 0 20 C7.59 20 15.18 20 23 20 C23 25.28 23 30.56 23 36 C15.41 36 7.82 36 0 36 C0.07417456 40.18191029 0.15714537 44.36174779 0.26245117 48.54272461 C0.29560557 49.96351202 0.32366692 51.38442813 0.34643555 52.80541992 C0.38015847 54.8539082 0.43247745 56.9012272 0.48828125 58.94921875 C0.51446533 60.17987061 0.54064941 61.41052246 0.56762695 62.6784668 C1.02959973 66.22738812 1.86544547 68.1568715 4 71 C6.68826826 72.34413413 8.81235402 72.13239863 11.8125 72.125 C12.85019531 72.12757813 13.88789062 72.13015625 14.95703125 72.1328125 C17.75342942 72.01076175 20.27939879 71.63363355 23 71 C23.34171006 72.37294222 23.67291117 73.74850118 24 75.125 C24.185625 75.89070313 24.37125 76.65640625 24.5625 77.4453125 C25.0573244 80.33473352 25.06784992 83.07397199 25 86 C14.06909716 89.15531216 2.381918 91.39194638 -8.19921875 85.84765625 C-13.5407003 82.28337743 -16.25722232 78.153876 -18 72 C-18.74935269 67.46124958 -19.12292726 63.11143105 -19.11352539 58.51391602 C-19.11344986 57.27315811 -19.11337433 56.03240021 -19.11329651 54.75404358 C-19.10819154 53.42066405 -19.10297557 52.08728494 -19.09765625 50.75390625 C-19.09578847 49.37385611 -19.09436627 47.99380531 -19.09336853 46.61375427 C-19.08957168 43.00198498 -19.07976594 39.39025665 -19.06866455 35.77850342 C-19.05838918 32.08476312 -19.05385785 28.39101613 -19.04882812 24.69726562 C-19.03814082 17.46482519 -19.02109888 10.23241836 -19 3 C-16.39643759 2.49666458 -13.79223349 1.99720622 -11.1875 1.5 C-10.08051758 1.28537109 -10.08051758 1.28537109 -8.95117188 1.06640625 C-5.92205609 0.49073719 -3.090804 0 0 0 Z " fill="#221A1A" transform="translate(626,58)"/>
<path d="M0 0 C-0.7518797 7.39348371 -0.7518797 7.39348371 -2.125 10.75 C-3.17620119 13.45308878 -2.87373248 14.28841644 -2 17 C-1.36729133 18.34977849 -0.69937532 19.68352881 0 21 C4.30089003 29.09579301 4.41271874 39.3363422 1.8125 48.0625 C0.24196432 51.94521321 -1.40131297 54.68084614 -5 57 C-15.87642304 56.0459278 -26.84014985 48.98440103 -34 41 C-42.81944513 29.22354793 -45.23663046 18.53962735 -45 4 C-45.99 3.67 -46.98 3.34 -48 3 C-37.15018837 2.67121783 -27.49012402 2.88632361 -17 6 C-17.33 5.34 -17.66 4.68 -18 4 C-16.1291122 3.32187886 -14.25305707 2.6580054 -12.375 2 C-11.33085937 1.62875 -10.28671875 1.2575 -9.2109375 0.875 C-5.98225494 -0.00483564 -3.32755706 -0.15988262 0 0 Z " fill="#E19D66" transform="translate(143,50)"/>
<path d="M0 0 C6.06732052 1.03767051 11.4373852 2.33961901 17 5 C15.02 5.99 15.02 5.99 13 7 C13 7.66 13 8.32 13 9 C13.70511719 8.68289062 14.41023438 8.36578125 15.13671875 8.0390625 C18.12505879 6.95461714 20.65069658 6.6035641 23.8125 6.375 C24.78832031 6.30023438 25.76414062 6.22546875 26.76953125 6.1484375 C27.87361328 6.07496094 27.87361328 6.07496094 29 6 C29.05880804 9.16658663 29.09386406 12.33302993 29.125 15.5 C29.14175781 16.386875 29.15851563 17.27375 29.17578125 18.1875 C29.27080238 31.11037335 24.73003196 42.88944178 15.79296875 52.37890625 C11.76008487 56.0251956 7.47144656 58.33679436 2 59 C1.25 56.8125 1.25 56.8125 1 54 C2.9375 51.1875 2.9375 51.1875 5 49 C4.21625 49.66 3.4325 50.32 2.625 51 C0 53 0 53 -2 53 C-1.65652573 49.79424013 -1.0292146 49.02483241 1.5 46.875 C2.7375 45.946875 2.7375 45.946875 4 45 C4.33 44.34 4.66 43.68 5 43 C3.88625 43.66 2.7725 44.32 1.625 45 C-1.75 47 -1.75 47 -4 47 C-2.54744301 43.17053157 -0.57104439 41.87949705 3 40 C0.69 40.66 -1.62 41.32 -4 42 C-3.96889717 34.09988218 -2.16209063 28.44997327 1.625 21.53125 C3.75806433 17.60447248 4.11346814 15.57819423 3.0625 11.3125 C2.77052734 10.10013672 2.77052734 10.10013672 2.47265625 8.86328125 C2.31667969 8.24839844 2.16070312 7.63351563 2 7 C3.98 8.32 5.96 9.64 8 11 C7.236875 10.236875 6.47375 9.47375 5.6875 8.6875 C4.800625 7.800625 3.91375 6.91375 3 6 C2.1028125 5.195625 2.1028125 5.195625 1.1875 4.375 C0 3 0 3 0 0 Z " fill="#948B66" transform="translate(66,48)"/>
<path d="M0 0 C0.66 1.32 1.32 2.64 2 4 C1.5153125 4.42667969 1.030625 4.85335937 0.53125 5.29296875 C-10.8892635 15.94479384 -18.5072491 30.31680707 -19.23828125 46.03125 C-19.68476774 64.03149371 -15.05456506 80.36445656 -2.52124023 93.76416016 C10.44509665 106.79759042 26.49709069 111.32489368 44.34716797 111.38500977 C59.5665565 111.15441297 73.69429052 105.24948956 84.8125 94.75 C98.93778682 79.62853563 102.8212498 62.79173501 102.17919922 42.77636719 C101.81275124 37.09891981 100.33804621 32.19647261 98 27 C97.59910156 26.07574219 97.19820313 25.15148437 96.78515625 24.19921875 C93.69049644 17.85740864 89.57938057 12.98576503 84.60717773 8.05834961 C81 4.40626148 81 4.40626148 81 0 C92.06065661 4.96750728 98.74672446 17.41746627 103.375 28.0625 C109.60786453 45.16150888 108.29296949 64.14065175 100.82421875 80.54296875 C93.92543435 93.61668223 83.32174599 104.48965521 70 111 C69.00484375 111.48726563 68.0096875 111.97453125 66.984375 112.4765625 C52.54562289 118.37733105 32.30867962 119.03661808 17.69921875 113.31640625 C16.80847656 112.88199219 15.91773438 112.44757813 15 112 C13.99582031 111.51402344 12.99164063 111.02804688 11.95703125 110.52734375 C-5.54788644 101.14257799 -16.05645029 86.62666025 -22 68 C-26.49517289 52.61189227 -23.64244484 33.9768654 -16.42578125 19.9375 C-11.97503285 12.46771248 -6.12704193 6.12704193 0 0 Z " fill="#DAD5B8" transform="translate(63,49)"/>
<path d="M0 0 C2.746156 2.746156 2.92921283 4.10670547 3 8 C1.93099816 10.3007735 0.65320009 12.4112433 -0.65234375 14.5859375 C-4.65227935 21.75103953 -6.23682949 29.87391465 -5 38 C-2.67924955 44.79034391 0.44679913 49.72339957 7 53 C6.80664062 53.60585937 6.61328125 54.21171875 6.4140625 54.8359375 C3.40699313 64.51215081 1.73004063 73.89470075 1 84 C0.34 84 -0.32 84 -1 84 C-12.2079483 72.59010668 -18.1948921 57.89452198 -18.375 42 C-18.18366606 25.11478005 -11.81981754 11.87235007 0 0 Z " fill="#F8F7CA" transform="translate(66,58)"/>
<path d="M0 0 C9.66071802 6.8331908 15.51718645 18.58317001 18 30 C19.06442431 42.84450244 19.26963008 56.3791082 13 68 C11.515 68.495 11.515 68.495 10 69 C9.32453125 68.04738281 8.6490625 67.09476562 7.953125 66.11328125 C7.0521602 64.8462995 6.15111423 63.57937548 5.25 62.3125 C4.58484375 61.37374023 4.58484375 61.37374023 3.90625 60.41601562 C1.37084895 56.85526857 -1.23005236 53.38477246 -4 50 C-3.236875 49.21625 -2.47375 48.4325 -1.6875 47.625 C3.77406402 40.96871885 4.60170417 32.68627804 4.43359375 24.3203125 C3.82845027 19.68633092 2.21074147 15.84450084 0.19140625 11.65625 C-0.97712013 9.05101086 -1.65417157 6.82906866 -2 4 C-1.0625 1.6875 -1.0625 1.6875 0 0 Z " fill="#F8F6CA" transform="translate(143,58)"/>
<path d="M0 0 C3.3 -0.0825 6.6 -0.165 10 -0.25 C11.02351563 -0.28641602 12.04703125 -0.32283203 13.1015625 -0.36035156 C19.0535993 -0.43175758 24.22717938 0.15124052 29 4 C31.09327949 7.43675314 31.4926323 9.97683621 31 14 C28.61353447 18.27575074 25.87013255 19.77435648 21.32226562 21.40014648 C17.2277859 22.45777229 13.19955597 22.31229396 9 22.1875 C6.03 22.125625 3.06 22.06375 0 22 C0 14.74 0 7.48 0 0 Z " fill="#F4EDE6" transform="translate(390,108)"/>
<path d="M0 0 C6.90034168 1.27229727 10.66477102 7.29458066 14.45043945 12.78833008 C24.67493853 28.232403 28.54800387 45.93422648 25.3515625 64.27734375 C21.61852143 82.07108005 11.20380807 97.9280095 -4 108 C-20.57476085 117.7834396 -40.51225519 121.58906629 -59.53125 117.0859375 C-76.30017204 112.22738197 -91.290856 100.72079374 -99.9453125 85.6015625 C-108.59338314 69.28759973 -112.17570735 50.93359904 -107 32.9375 C-106.35636501 30.95072393 -105.69866005 28.96810042 -105 27 C-104.34 27 -103.68 27 -103 27 C-103.88547591 34.58979351 -103.88547591 34.58979351 -104.50268555 36.80053711 C-108.54054121 54.65868225 -104.3834837 73.064722 -94.86328125 88.29296875 C-85.97158489 101.21109365 -72.81197084 110.87154948 -57.44702148 114.57885742 C-38.96595408 117.75952601 -20.11332166 115.69275365 -4.55078125 104.92578125 C10.09592561 93.86785402 20.04060491 79.59408544 22.6875 61.13671875 C24.57078172 42.23327853 20.54022067 25.27315201 9 10 C6.65328104 7.45865682 4.24489455 5.04612811 1.72265625 2.6796875 C1.15417969 2.12539063 0.58570313 1.57109375 0 1 C0 0.67 0 0.34 0 0 Z " fill="#1A1A18" transform="translate(146,49)"/>
<path d="M0 0 C17.45454545 -0.58181818 17.45454545 -0.58181818 24 4 C26.82767016 8.24150524 26.77156125 12.02064595 26 17 C22.94684034 21.31034306 20.00314914 22.66661355 15 24 C12.32306285 24.13519885 9.79039849 24.19162022 7.125 24.125 C4.77375 24.08375 2.4225 24.0425 0 24 C0 16.08 0 8.16 0 0 Z " fill="#F8F1E9" transform="translate(217,74)"/>
<path d="M0 0 C0 4.42085646 -2.34760683 7.75581922 -4.42382812 11.5546875 C-10.96211633 24.01113761 -9.36595811 42.46693424 -5.3359375 55.5859375 C-2.24812841 63.47700518 1.75444035 70.27490365 8 76 C8.43828125 76.7940625 8.8765625 77.588125 9.328125 78.40625 C13.47992474 84.84735988 22.52639273 88.9818346 29.671875 91.33984375 C45.97953851 94.57457982 64.88261261 92.02939498 79 83 C83.984315 79.52052237 88.50849522 76.0716418 91.9375 71 C92.618125 70.01 93.29875 69.02 94 68 C94.99 68 95.98 68 97 68 C97.66 66.35 98.32 64.7 99 63 C99.33 63.66 99.66 64.32 100 65 C98.05599249 68.04009685 96.04977563 71.03020879 94 74 C93.59007812 74.60714844 93.18015625 75.21429688 92.7578125 75.83984375 C85.98601936 84.77776947 74.37130486 90.41920959 64 94 C63.16597656 94.34160156 62.33195312 94.68320313 61.47265625 95.03515625 C50.88717062 99.1656696 36.04128483 96.2187054 25.72265625 92.2421875 C8.59445031 84.42759713 -1.81482534 72.80713209 -9.37890625 55.921875 C-14.33898467 42.4415225 -13.76014128 26.10080913 -8 13 C-3.31100478 3.31100478 -3.31100478 3.31100478 0 0 Z " fill="#605F3F" transform="translate(57,64)"/>
<path d="M0 0 C3.04221065 -0.08132642 6.0822238 -0.14065374 9.125 -0.1875 C9.9809375 -0.21263672 10.836875 -0.23777344 11.71875 -0.26367188 C16.93341197 -0.32384105 20.4811298 0.09300095 25 3 C27 5 27 5 27.4375 8.375 C27 12 27 12 24.625 14.375 C21.156596 16.52210724 19.46772712 17.12321346 15.4296875 17.09765625 C14.53378906 17.09443359 13.63789063 17.09121094 12.71484375 17.08789062 C11.77769531 17.07951172 10.84054687 17.07113281 9.875 17.0625 C8.93011719 17.05798828 7.98523438 17.05347656 7.01171875 17.04882812 C4.6744523 17.03702375 2.33721831 17.01908799 0 17 C0 11.39 0 5.78 0 0 Z " fill="#F4EDE6" transform="translate(390,74)"/>
<path d="M0 0 C0 0.66 0 1.32 0 2 C-1.76774419 2.53122363 -3.53934083 3.04964073 -5.3125 3.5625 C-6.29863281 3.85253906 -7.28476563 4.14257812 -8.30078125 4.44140625 C-11 5 -11 5 -14 4 C-16.44424222 3.95079808 -18.85865429 3.95605062 -21.30078125 4.0078125 C-22.76757112 4.02533598 -24.23436846 4.04224357 -25.70117188 4.05859375 C-28.00533845 4.08948267 -30.3091289 4.12493203 -32.61303711 4.17138672 C-34.84233145 4.2139588 -37.07118948 4.23723382 -39.30078125 4.2578125 C-40.32296501 4.28574387 -40.32296501 4.28574387 -41.36579895 4.3142395 C-45.98394213 4.33876093 -49.03807813 3.33406621 -53 1 C-41.25947638 -13.27680399 -13.91523742 -5.52661912 0 0 Z " fill="#F2F1C7" transform="translate(132,49)"/>
<path d="M0 0 C2.371875 0.061875 4.74375 0.12375 7.1875 0.1875 C7.1875 5.1375 7.1875 10.0875 7.1875 15.1875 C4.62321485 15.32309675 2.06614784 15.42183188 -0.5 15.5 C-1.22123047 15.54189453 -1.94246094 15.58378906 -2.68554688 15.62695312 C-6.85528143 15.72215254 -8.37948043 15.51717897 -11.82421875 12.89453125 C-13.8125 10.1875 -13.8125 10.1875 -13.9375 6.5625 C-12.8125 3.1875 -12.8125 3.1875 -10.73046875 1.48828125 C-7.08438277 -0.13708238 -3.90146743 -0.14446723 0 0 Z " fill="#F1EAE2" transform="translate(565.8125,115.8125)"/>
<path d="M0 0 C0.66 0 1.32 0 2 0 C1.11452409 7.58979351 1.11452409 7.58979351 0.49731445 9.80053711 C-3.54054121 27.65868225 0.6165163 46.064722 10.13671875 61.29296875 C19.07287732 74.27568969 32.20131578 83.82034274 47.61206055 87.56958008 C52.36638318 88.42653446 57.18075437 88.48024168 62 88.625 C63.06089844 88.66367188 64.12179688 88.70234375 65.21484375 88.7421875 C67.80973067 88.83569694 70.40462449 88.92144902 73 89 C73 89.33 73 89.66 73 90 C50.65127188 92.04176442 35.01564779 88.80797078 17.37890625 74.1796875 C4.14105056 62.05042071 -3.15602978 44.84941294 -4.23828125 27.08984375 C-4.49069894 17.31917568 -3.29708183 9.28776177 0 0 Z " fill="#262522" transform="translate(41,76)"/>
<path d="M0 0 C0.59425781 0.41894531 1.18851562 0.83789062 1.80078125 1.26953125 C1.80078125 1.59953125 1.80078125 1.92953125 1.80078125 2.26953125 C-2.66674583 2.51119573 -5.47167791 1.97557368 -9.44921875 -0.04296875 C-18.19541555 -4.45582259 -26.31279685 -6.2528239 -36.07421875 -6.10546875 C-37.03730957 -6.09676758 -38.00040039 -6.08806641 -38.99267578 -6.07910156 C-48.73302574 -5.87860845 -56.88241242 -4.22486219 -65.44140625 0.484375 C-68.04811654 1.6487056 -70.40164412 1.54928871 -73.19921875 1.26953125 C-73.19921875 0.60953125 -73.19921875 -0.05046875 -73.19921875 -0.73046875 C-48.97542838 -14.04024368 -23.76842694 -14.60113319 0 0 Z " fill="#DED9BC" transform="translate(141.19921875,45.73046875)"/>
<path d="M0 0 C0.66 0 1.32 0 2 0 C-0.01014193 5.33692682 -2.70086173 10.28702631 -5.34375 15.33203125 C-10.85099886 26.83100589 -10.85410821 41.97259898 -7.375 54.0625 C-1.54289909 69.95345092 8.82323947 83.16909839 24.1875 90.75 C34.65641052 95.18870125 45.73115177 96.45714851 57 97 C57 97.33 57 97.66 57 98 C38.26603571 98.55645438 21.90377098 95.74590392 7.5625 82.6875 C-3.509138 72.08370304 -11.59673237 57.62774753 -12.203125 41.99609375 C-12.46477531 26.89655247 -10.33268802 11.90505359 0 0 Z " fill="#161511" transform="translate(55,63)"/>
<path d="M0 0 C0.66 1.32 1.32 2.64 2 4 C1.5153125 4.42667969 1.030625 4.85335937 0.53125 5.29296875 C-12.25050741 17.21441557 -17.72037708 31.75768757 -20.25 48.6875 C-20.42273437 49.78255859 -20.59546875 50.87761719 -20.7734375 52.00585938 C-21.1921301 54.66920952 -21.60080468 57.33367049 -22 60 C-22.33 60 -22.66 60 -23 60 C-24.01751031 38.53522856 -20.84924145 22.93490089 -6.1875 6.4375 C-4.15754314 4.25381147 -2.10809443 2.10809443 0 0 Z " fill="#DFDABD" transform="translate(63,49)"/>
<path d="M0 0 C0 0.33 0 0.66 0 1 C-1.30453125 1.09796875 -2.6090625 1.1959375 -3.953125 1.296875 C-13.8625563 2.11728638 -22.6740939 3.36100623 -32 7 C-33.32732816 7.35649523 -34.65901982 7.69890028 -36 8 C-36 8.66 -36 9.32 -36 10 C-35.3709375 9.65066406 -34.741875 9.30132812 -34.09375 8.94140625 C-28.59021685 6.01558215 -24.23116607 4.34617589 -18 4 C-20.90908228 5.93938819 -23.40862379 6.96774957 -26.6875 8.125 C-28.17830078 8.65480469 -28.17830078 8.65480469 -29.69921875 9.1953125 C-30.45847656 9.46085937 -31.21773437 9.72640625 -32 10 C-27.60478489 12.93014341 -25.53641573 13.11990091 -20.2421875 13.09765625 C-19.57913605 13.0962413 -18.91608459 13.09482635 -18.23294067 13.09336853 C-16.11358137 13.08776754 -13.99432741 13.075215 -11.875 13.0625 C-10.43880361 13.05748512 -9.00260556 13.05292219 -7.56640625 13.04882812 C-4.04423655 13.03779782 -0.52212855 13.02053259 3 13 C3 13.33 3 13.66 3 14 C1.741875 14.03738281 0.48375 14.07476562 -0.8125 14.11328125 C-11.80617769 14.51114973 -22.26017255 15.61503832 -33 18 C-33 16 -33 16 -31 14 C-35.95 12.02 -35.95 12.02 -41 10 C-29.22862451 -0.63221012 -14.89005003 -0.28912719 0 0 Z " fill="#161511" transform="translate(112,39)"/>
<path d="M0 0 C0.66 0.33 1.32 0.66 2 1 C1.154375 1.721875 0.30875 2.44375 -0.5625 3.1875 C-3.19287098 5.71242226 -3.19287098 5.71242226 -3.375 8.5625 C-1.13623855 12.53121348 2.85036639 13.49942542 7 15 C6.67 15.66 6.34 16.32 6 17 C5.01 16.67 4.02 16.34 3 16 C2.8659375 16.70253906 2.731875 17.40507813 2.59375 18.12890625 C2.19817815 20.04170436 1.76050186 21.94627797 1.28125 23.83984375 C-0.75075699 31.89675145 -1.6393955 39.70609656 -2 48 C6.23749957 53.94264522 14.36768255 57.17919988 24 60 C24 60.33 24 60.66 24 61 C12.54530646 60.80250528 2.08323082 54.89077294 -6 47 C-5.01 46.505 -5.01 46.505 -4 46 C-4.04640625 45.3915625 -4.0928125 44.783125 -4.140625 44.15625 C-4.39466821 37.98662917 -3.63352826 32.50963485 -2.125 26.5625 C-1.95129883 25.87671875 -1.77759766 25.1909375 -1.59863281 24.484375 C-0.70307843 21.1272876 0.28074079 18.02806465 2 15 C1.278125 14.79375 0.55625 14.5875 -0.1875 14.375 C-3.89197027 12.56392565 -5.63555677 10.34962791 -8 7 C-8.8125 4.125 -8.8125 4.125 -9 2 C-7.02 2.99 -7.02 2.99 -5 4 C-3.35 2.68 -1.7 1.36 0 0 Z " fill="#1E1E19" transform="translate(71,96)"/>
<path d="M0 0 C0.75 1.625 0.75 1.625 1 4 C-1.7185115 9.03328367 -4.39849646 11.1561531 -9.5 13.625 C-13.70250154 15.67805695 -16.87460183 17.49158734 -20 21 C-19.67 21.99 -19.34 22.98 -19 24 C-19.66 24.33 -20.32 24.66 -21 25 C-21.65213292 27.02463255 -21.65213292 27.02463255 -22 29 C-20.824375 28.2265625 -20.824375 28.2265625 -19.625 27.4375 C-18.75875 26.963125 -17.8925 26.48875 -17 26 C-16.34 26.33 -15.68 26.66 -15 27 C-10.56058482 25.52019494 -6.33968325 23.57938927 -2.0625 21.6875 C-1.15564453 21.29626953 -0.24878906 20.90503906 0.68554688 20.50195312 C7.00682903 17.71012322 7.00682903 17.71012322 12 13 C12.66 13.33 13.32 13.66 14 14 C8.1886932 20.77985793 -0.03479866 23.67001395 -8.08984375 27.10546875 C-10.251708 28.05985433 -10.251708 28.05985433 -13 30 C-15.48046875 30.4140625 -15.48046875 30.4140625 -18.1875 30.625 C-19.08855469 30.69976562 -19.98960938 30.77453125 -20.91796875 30.8515625 C-21.60503906 30.90054688 -22.29210937 30.94953125 -23 31 C-24.42484315 26.85500176 -23.83313957 23.90925789 -22.1953125 19.984375 C-18.94678041 14.59138708 -13.23381186 12.05996207 -7.6875 9.5625 C-4.18031825 7.91396295 -2.40398837 6.79620241 -0.875 3.1875 C-0.58625 2.135625 -0.2975 1.08375 0 0 Z " fill="#1F1E1D" transform="translate(130,116)"/>
<path d="M0 0 C0.66 0 1.32 0 2 0 C1.731875 1.11375 1.46375 2.2275 1.1875 3.375 C0.5246404 8.33318984 2.38599336 11.5527312 4.7734375 15.80078125 C8.63383044 22.7224412 7.83815353 31.92471497 5.8125 39.375 C4.27288172 43.9050307 1.98775133 47.28549834 -1 51 C-0.45730469 51.59167969 0.08539063 52.18335938 0.64453125 52.79296875 C1.35996094 53.58316406 2.07539063 54.37335938 2.8125 55.1875 C3.52019531 55.96480469 4.22789062 56.74210937 4.95703125 57.54296875 C6.93335629 59.91984915 8.48582594 62.31078866 10 65 C9.01 65.495 9.01 65.495 8 66 C7.38511719 65.14535156 6.77023438 64.29070312 6.13671875 63.41015625 C5.3206975 62.29398926 4.50427001 61.17811919 3.6875 60.0625 C3.28337891 59.49853516 2.87925781 58.93457031 2.46289062 58.35351562 C-0.10693229 54.83365004 -0.10693229 54.83365004 -4 53 C-6.6569191 53.87914688 -6.6569191 53.87914688 -9 55 C-8 52 -8 52 -5.1875 50.1875 C-0.4737009 46.95253984 2.31415973 42.83694509 3.6796875 37.23828125 C5.23868112 26.34433802 4.13231192 17.19846788 -2 8 C-1.69814573 5.04182816 -1.33281171 2.66562342 0 0 Z " fill="#201B15" transform="translate(141,58)"/>
<path d="M0 0 C2.32528287 2.32528287 2.29511025 2.84665898 2.3125 6 C2.32925781 6.70125 2.34601563 7.4025 2.36328125 8.125 C2.18345703 9.053125 2.18345703 9.053125 2 10 C-1.49124017 12.32749345 -2.89222251 12.50299316 -7 12 C-9.4375 10.375 -9.4375 10.375 -11 8 C-11 4.48640932 -10.6312066 2.72471868 -8.3125 0.0625 C-5.16096578 -1.38550221 -3.29050737 -0.929926 0 0 Z " fill="#E3C626" transform="translate(87,72)"/>
<path d="M0 0 C1.37093326 1.29464186 2.71670071 2.61844346 4 4 C0.7 4 -2.6 4 -6 4 C-4.68 3.34 -3.36 2.68 -2 2 C-4.53919006 0.70326398 -7.08114238 -0.58747837 -9.625 -1.875 C-10.33785156 -2.23980469 -11.05070312 -2.60460938 -11.78515625 -2.98046875 C-21.12400402 -7.69273138 -29.78568709 -9.20599112 -40.1875 -9.25 C-41.01886475 -9.25467285 -41.85022949 -9.2593457 -42.70678711 -9.26416016 C-48.73752449 -9.21157161 -54.08996119 -8.35055972 -59.84765625 -6.4609375 C-60.91306641 -6.23277344 -60.91306641 -6.23277344 -62 -6 C-62.66 -6.66 -63.32 -7.32 -64 -8 C-41.34583899 -14.51358337 -20.10679309 -13.03519812 0 0 Z " fill="#36342F" transform="translate(144,45)"/>
<path d="M0 0 C2.31282587 3.46923881 2.42478586 4.92205575 2 9 C0.875 10.875 0.875 10.875 -1 12 C-4.65259739 12.54400387 -6.3433886 12.43774093 -9.4375 10.375 C-11 8 -11 8 -11 4.9375 C-10 2 -10 2 -8.3125 0.0625 C-5.13778084 -1.39615475 -3.30121799 -1.00471852 0 0 Z " fill="#F5DB2B" transform="translate(124,72)"/>
<path d="M0 0 C0.33 0 0.66 0 1 0 C1.40279656 5.87474982 0.31583346 9.59377728 -2.3125 14.6875 C-2.84447998 15.72861938 -2.84447998 15.72861938 -3.38720703 16.79077148 C-11.21409923 31.36689171 -24.17925364 42.05083982 -40 47 C-43.34084648 47.59033282 -46.6097982 47.91749509 -50 48 C-46.9124014 46.33240547 -43.85896253 45.31025634 -40.5 44.3125 C-25.00709574 39.223866 -13.71325619 30.15133262 -6.296875 15.67578125 C-3.87788841 10.52662776 -1.72927519 5.4232668 0 0 Z " fill="#181712" transform="translate(163,112)"/>
<path d="M0 0 C0.99 0.33 1.98 0.66 3 1 C2.85764543 2.72945653 2.71095618 4.45855654 2.5625 6.1875 C2.48128906 7.15042969 2.40007812 8.11335938 2.31640625 9.10546875 C1.82815519 13.5720618 1.41233984 16.35080082 -1.046875 20.22265625 C-3.64137894 24.54956629 -3.45638132 28.51213035 -3.25 33.4375 C-3.22292969 34.67790039 -3.22292969 34.67790039 -3.1953125 35.94335938 C-3.1486214 37.96274933 -3.07689393 39.98153445 -3 42 C-3.66 42 -4.32 42 -5 42 C-5 37.71 -5 33.42 -5 29 C-5.66 29 -6.32 29 -7 29 C-5.9730742 25.49133684 -4.74867521 22.43529202 -2.875 19.3125 C-0.75370089 16.19926282 -0.75370089 16.19926282 -1 13 C-1.66 13 -2.32 13 -3 13 C-2.731875 12.484375 -2.46375 11.96875 -2.1875 11.4375 C-0.67650593 8.33598585 0.65572726 5.17737194 2 2 C-2.57748509 4.8795976 -2.57748509 4.8795976 -6 9 C-6.66 8.67 -7.32 8.34 -8 8 C-7.67 7.34 -7.34 6.68 -7 6 C-12.78467036 10.03581653 -15.19258771 14.60257818 -18 21 C-18.66 21 -19.32 21 -20 21 C-18.32562439 14.30249756 -14.14347076 8.56600537 -9 4 C-7.01276732 3.29618843 -5.01222047 2.6288189 -3 2 C-2.01 1.34 -1.02 0.68 0 0 Z " fill="#1F1F1F" transform="translate(100,111)"/>
<path d="M0 0 C2.40682588 1.42019797 4.78218551 2.82714915 7.06640625 4.4375 C7.06640625 4.7675 7.06640625 5.0975 7.06640625 5.4375 C2.59887917 5.67916448 -0.20605291 5.14354243 -4.18359375 3.125 C-15.4875267 -2.21675145 -25.57014363 -3.17193349 -37.93359375 -3.5625 C-37.93359375 -3.8925 -37.93359375 -4.2225 -37.93359375 -4.5625 C-36.969375 -4.62308594 -36.00515625 -4.68367188 -35.01171875 -4.74609375 C-33.7484375 -4.82988281 -32.48515625 -4.91367187 -31.18359375 -5 C-29.930625 -5.08121094 -28.67765625 -5.16242187 -27.38671875 -5.24609375 C-16.9209835 -6.20505818 -9.63909533 -5.1340055 0 0 Z " fill="#CBC6AC" transform="translate(135.93359375,42.5625)"/>
<path d="M0 0 C3 1 3 1 5.375 4 C13.51447163 13.84449811 26.53893314 20.75392487 39 23 C42.99667823 23.36067329 46.98969951 23.50454041 51 23.625 C52.59134766 23.68300781 52.59134766 23.68300781 54.21484375 23.7421875 C56.80973067 23.83569694 59.40462449 23.92144902 62 24 C62 24.33 62 24.66 62 25 C39.21356115 27.08175337 24.34604089 23.45800325 6.2265625 9.02734375 C3.83698981 6.85157493 1.88634743 4.62279814 0 2 C0 1.34 0 0.68 0 0 Z " fill="#35342F" transform="translate(52,141)"/>
<path d="M0 0 C0 1.65 0 3.3 0 5 C-2.36988929 5.87137151 -4.74414776 6.72206808 -7.125 7.5625 C-7.79015625 7.80935547 -8.4553125 8.05621094 -9.140625 8.31054688 C-13.48773751 9.8235125 -16.54926529 10.23781832 -21 9 C-21.33 8.67 -21.66 8.34 -22 8 C-24.18292774 7.76518307 -26.37203174 7.58636677 -28.5625 7.4375 C-29.76003906 7.35371094 -30.95757812 7.26992187 -32.19140625 7.18359375 C-33.11824219 7.12300781 -34.04507813 7.06242188 -35 7 C-35 6.67 -35 6.34 -35 6 C-33.87464844 5.98582031 -32.74929687 5.97164062 -31.58984375 5.95703125 C-21.96070287 5.70302261 -13.86746627 4.4617688 -4.84375 1.05859375 C-2 0 -2 0 0 0 Z " fill="#D5D0B4" transform="translate(133,155)"/>
<path d="M0 0 C-0.76957031 0.53496094 -1.53914063 1.06992188 -2.33203125 1.62109375 C-5.34395012 4.30668466 -6.28895564 6.31291429 -7.6875 10.0625 C-8.94522443 13.37682919 -10.02632893 16.03949339 -12 19 C-13.32 18.67 -14.64 18.34 -16 18 C-15.54458729 11.39651574 -14.45400568 7.11663768 -9.3203125 2.484375 C-4.2284677 -1.49294583 -4.2284677 -1.49294583 0 0 Z " fill="#E4A16C" transform="translate(115,130)"/>
<path d="M0 0 C0.495 0.99 0.495 0.99 1 2 C-0.94400751 5.04009685 -2.95022437 8.03020879 -5 11 C-5.40992188 11.60714844 -5.81984375 12.21429688 -6.2421875 12.83984375 C-12.19711744 20.69961152 -22.75948036 26.72708868 -32 30 C-34.4375 29.6875 -34.4375 29.6875 -36 29 C-35.15695313 28.66226563 -34.31390625 28.32453125 -33.4453125 27.9765625 C-32.34960938 27.53054687 -31.25390625 27.08453125 -30.125 26.625 C-29.03445312 26.18414062 -27.94390625 25.74328125 -26.8203125 25.2890625 C-23.93670638 24.16948662 -23.93670638 24.16948662 -22 22 C-21.29875 21.443125 -20.5975 20.88625 -19.875 20.3125 C-12.51416091 14.66245924 -12.51416091 14.66245924 -6.6875 7.5625 C-6.130625 6.716875 -5.57375 5.87125 -5 5 C-4.01 5 -3.02 5 -2 5 C-1.34 3.35 -0.68 1.7 0 0 Z " fill="#6A6845" transform="translate(156,127)"/>
<path d="M0 0 C8.57789964 3.82296636 15.05133798 12.7145024 19 21 C18.67 21.99 18.34 22.98 18 24 C18 23.34 18 22.68 18 22 C17.41992188 21.94199219 16.83984375 21.88398437 16.2421875 21.82421875 C13.01097332 20.63643793 12.02642727 18.64173215 10.125 15.8125 C7.77533956 12.41561263 5.54218509 9.35958013 2.5 6.5625 C0 4 0 4 0 0 Z " fill="#E1DCBE" transform="translate(144,49)"/>
<path d="M0 0 C0.66 0.33 1.32 0.66 2 1 C-12 8 -12 8 -14.390625 9.1015625 C-16.18802411 9.906895 -16.18802411 9.906895 -17 12 C-21.29 11.67 -25.58 11.34 -30 11 C-30 10.67 -30 10.34 -30 10 C-32.31 9.67 -34.62 9.34 -37 9 C-37 8.67 -37 8.34 -37 8 C-35.06060547 7.85304687 -35.06060547 7.85304687 -33.08203125 7.703125 C-16.90609221 6.40923891 -16.90609221 6.40923891 -1.78125 0.8125 C-1.1934375 0.544375 -0.605625 0.27625 0 0 Z " fill="#3B3A2B" transform="translate(133,149)"/>
<path d="M0 0 C0.57105469 0.06058594 1.14210938 0.12117187 1.73046875 0.18359375 C2.54128906 0.26738281 3.35210937 0.35117188 4.1875 0.4375 C5.08984375 0.53160156 5.9921875 0.62570313 6.921875 0.72265625 C9.09556782 0.91850928 11.27370488 1.0677196 13.453125 1.18359375 C15.17789063 1.27833984 15.17789063 1.27833984 16.9375 1.375 C18.55978516 1.44847656 18.55978516 1.44847656 20.21484375 1.5234375 C23.32934425 2.05635343 23.95866746 2.73653019 26 5 C22.27089934 5.0582462 18.54191636 5.09367917 14.8125 5.125 C13.75740234 5.14175781 12.70230469 5.15851563 11.61523438 5.17578125 C10.08286133 5.18544922 10.08286133 5.18544922 8.51953125 5.1953125 C7.11344604 5.21102295 7.11344604 5.21102295 5.67895508 5.22705078 C2.78369188 4.98166713 0.62937303 4.20521619 -2 3 C-1.34 2.67 -0.68 2.34 0 2 C0 1.34 0 0.68 0 0 Z " fill="#E1DCBE" transform="translate(88,160)"/>
<path d="M0 0 C2.31 0 4.62 0 7 0 C6.52433594 1.01126953 6.52433594 1.01126953 6.0390625 2.04296875 C4.81297609 5.53224473 4.58180931 8.62440058 4.375 12.3125 C4.26285156 14.19388672 4.26285156 14.19388672 4.1484375 16.11328125 C4.09945312 17.06589844 4.05046875 18.01851562 4 19 C5.32 19.66 6.64 20.32 8 21 C8 21.66 8 22.32 8 23 C7.05125 22.649375 6.1025 22.29875 5.125 21.9375 C2.12939828 20.64973223 2.12939828 20.64973223 0 22 C0.33 21.01 0.66 20.02 1 19 C1.1196943 16.81488312 1.17527453 14.62585853 1.1875 12.4375 C1.20167969 11.28121094 1.21585937 10.12492187 1.23046875 8.93359375 C1.30987193 5.87683614 1.30987193 5.87683614 -1 4 C-0.625 1.875 -0.625 1.875 0 0 Z " fill="#4F4C4B" transform="translate(95,84)"/>
<path d="M0 0 C6.92211937 6.92211937 5.6175564 19.85790364 5.84228516 28.96044922 C5.92765339 31.03482536 5.92765339 31.03482536 6.63818359 33.07470703 C7 35 7 35 5 38 C3 36 3 36 2.875 32.375 C2.91625 31.26125 2.9575 30.1475 3 29 C2.67 29 2.34 29 2 29 C1.97494385 28.33468262 1.9498877 27.66936523 1.92407227 26.98388672 C1.80748864 23.94742513 1.68504649 20.91122654 1.5625 17.875 C1.52318359 16.82828125 1.48386719 15.7815625 1.44335938 14.703125 C1.23868904 9.72806158 1.00723793 4.89229851 0 0 Z " fill="#676648" transform="translate(159,77)"/>
<path d="M0 0 C3 1 3 1 4.09765625 2.78515625 C4.41605469 3.53667969 4.73445312 4.28820312 5.0625 5.0625 C5.38347656 5.79597656 5.70445312 6.52945313 6.03515625 7.28515625 C8.52214734 14.2829652 9.31910365 20.43568547 9.25 27.8125 C9.25773438 28.65748047 9.26546875 29.50246094 9.2734375 30.37304688 C9.27085937 31.18451172 9.26828125 31.99597656 9.265625 32.83203125 C9.26336914 33.56139893 9.26111328 34.2907666 9.25878906 35.04223633 C9 37 9 37 7 40 C6.99589111 39.41210693 6.99178223 38.82421387 6.98754883 38.21850586 C6.83284498 25.52660255 5.86580326 14.78642209 1 3 C0.67 2.01 0.34 1.02 0 0 Z " fill="#14130F" transform="translate(157,71)"/>
<path d="M0 0 C12.66970387 3.07517084 12.66970387 3.07517084 18 5 C17.67 5.99 17.34 6.98 17 8 C13.65035056 9.08754852 12.22387221 9.08735791 8.88671875 7.78515625 C7.83097656 7.21667969 6.77523437 6.64820313 5.6875 6.0625 C4.61886719 5.49660156 3.55023438 4.93070313 2.44921875 4.34765625 C1.64097656 3.90292969 0.83273438 3.45820313 0 3 C0 2.01 0 1.02 0 0 Z " fill="#D2CDB1" transform="translate(71,154)"/>
<path d="M0 0 C0.87205078 -0.01224609 1.74410156 -0.02449219 2.64257812 -0.03710938 C3.90038086 -0.04000977 3.90038086 -0.04000977 5.18359375 -0.04296875 C5.9511499 -0.04707764 6.71870605 -0.05118652 7.50952148 -0.05541992 C9.5625 0.1875 9.5625 0.1875 12.5625 2.1875 C9.60741553 3.02121359 6.86140387 3.36639534 3.796875 3.50390625 C2.90742187 3.54580078 2.01796875 3.58769531 1.1015625 3.63085938 C-0.27902344 3.68983398 -0.27902344 3.68983398 -1.6875 3.75 C-2.62335938 3.79318359 -3.55921875 3.83636719 -4.5234375 3.88085938 C-6.82798641 3.9866805 -9.13263839 4.08876557 -11.4375 4.1875 C-11.4375 3.1975 -11.4375 2.2075 -11.4375 1.1875 C-7.91593642 -0.57328179 -3.87858049 0.002854 0 0 Z " fill="#E1DBBE" transform="translate(103.4375,34.8125)"/>
<path d="M0 0 C0.72265625 1.75 0.72265625 1.75 1 4 C-0.44140625 5.9375 -0.44140625 5.9375 -2.5625 8 C-9.26269914 15.11017636 -12.8372911 23.8632854 -16 33 C-17.90276606 28.12051402 -15.37967164 24.42161738 -13.40625 19.91015625 C-11.84171509 16.67243817 -10.07132045 13.92841857 -8 11 C-7.71125 10.175 -7.4225 9.35 -7.125 8.5 C-5.47931045 4.84291212 -2.92077569 2.73029032 0 0 Z " fill="#383726" transform="translate(65,55)"/>
<path d="M0 0 C0.66 0.33 1.32 0.66 2 1 C1.154375 1.721875 0.30875 2.44375 -0.5625 3.1875 C-3.19287098 5.71242226 -3.19287098 5.71242226 -3.375 8.5625 C-1.13623855 12.53121348 2.85036639 13.49942542 7 15 C6.67 15.66 6.34 16.32 6 17 C5.01 16.67 4.02 16.34 3 16 C2.67 17.65 2.34 19.3 2 21 C0.875 17.25 0.875 17.25 2 15 C1.278125 14.79375 0.55625 14.5875 -0.1875 14.375 C-3.89197027 12.56392565 -5.63555677 10.34962791 -8 7 C-8.8125 4.125 -8.8125 4.125 -9 2 C-7.02 2.99 -7.02 2.99 -5 4 C-3.35 2.68 -1.7 1.36 0 0 Z " fill="#161612" transform="translate(71,96)"/>
<path d="M0 0 C2.32528287 2.32528287 2.29511025 2.84665898 2.3125 6 C2.32925781 6.70125 2.34601563 7.4025 2.36328125 8.125 C2.18345703 9.053125 2.18345703 9.053125 2 10 C-1.49124017 12.32749345 -2.89222251 12.50299316 -7 12 C-9.4375 10.375 -9.4375 10.375 -11 8 C-11 4.48640932 -10.6312066 2.72471868 -8.3125 0.0625 C-5.16096578 -1.38550221 -3.29050737 -0.929926 0 0 Z M-7.8125 2.1875 C-9.26103335 3.99801207 -9.26103335 3.99801207 -8.8125 6.5625 C-8.15372967 9.14441272 -8.15372967 9.14441272 -6 11 C-2.70285207 10.67028521 -1.3773161 10.3773161 1 8 C0.67028521 4.70285207 0.3773161 3.3773161 -2 1 C-5.80350374 0.63464916 -5.80350374 0.63464916 -7.8125 2.1875 Z " fill="#272213" transform="translate(87,72)"/>
<path d="M0 0 C2.31282587 3.46923881 2.42478586 4.92205575 2 9 C0.875 10.875 0.875 10.875 -1 12 C-4.65259739 12.54400387 -6.3433886 12.43774093 -9.4375 10.375 C-11 8 -11 8 -11 4.9375 C-10 2 -10 2 -8.3125 0.0625 C-5.13778084 -1.39615475 -3.30121799 -1.00471852 0 0 Z M-7.8125 2.1875 C-9.26103335 3.99801207 -9.26103335 3.99801207 -8.8125 6.5625 C-8.15372967 9.14441272 -8.15372967 9.14441272 -6 11 C-2.70285207 10.67028521 -1.3773161 10.3773161 1 8 C0.67028521 4.70285207 0.3773161 3.3773161 -2 1 C-5.80350374 0.63464916 -5.80350374 0.63464916 -7.8125 2.1875 Z " fill="#191109" transform="translate(124,72)"/>
<path d="M0 0 C0 1.65 0 3.3 0 5 C-4.29 5.66 -8.58 6.32 -13 7 C-12.67 5.35 -12.34 3.7 -12 2 C-7.82262526 0.40861915 -4.46839215 -0.21278058 0 0 Z " fill="#9C704B" transform="translate(143,50)"/>
<path d="M0 0 C1.07349791 4.29399165 0.79682816 5.19495213 -1 9 C-4.0831351 7.80100302 -7.06279492 6.52299523 -10 5 C-10 4.34 -10 3.68 -10 3 C-5.05 1.515 -5.05 1.515 0 0 Z " fill="#F6D1CA" transform="translate(141,54)"/>
<path d="M0 0 C-1.95585325 1.00484204 -3.91476237 2.00373805 -5.875 3 C-6.96554688 3.556875 -8.05609375 4.11375 -9.1796875 4.6875 C-12 6 -12 6 -14 6 C-14 6.66 -14 7.32 -14 8 C-12.35 8 -10.7 8 -9 8 C-9.66 8.66 -10.32 9.32 -11 10 C-13.625 9.625 -13.625 9.625 -16 9 C-15.67 10.32 -15.34 11.64 -15 13 C-15.99 13.495 -15.99 13.495 -17 14 C-17.33 11.69 -17.66 9.38 -18 7 C-16.41779413 6.03980636 -14.83418669 5.08192202 -13.25 4.125 C-11.92742187 3.32449219 -11.92742187 3.32449219 -10.578125 2.5078125 C-9.72734375 2.01023438 -8.8765625 1.51265625 -8 1 C-7.31421875 0.58492187 -6.6284375 0.16984375 -5.921875 -0.2578125 C-3.55362436 -1.17238084 -2.35191355 -0.83996913 0 0 Z " fill="#23211D" transform="translate(82,39)"/>
<path d="M0 0 C3.60867272 2.40578181 4.76800109 5.08532703 6.5625 8.875 C6.86607422 9.50019531 7.16964844 10.12539062 7.48242188 10.76953125 C8.3270824 12.51037844 9.16380426 14.25507106 10 16 C10.66325225 17.33503508 11.32798936 18.66935207 12 20 C11.01 20 10.02 20 9 20 C7.67578036 17.79799468 6.36573271 15.58938174 5.0625 13.375 C4.68931641 12.75753906 4.31613281 12.14007813 3.93164062 11.50390625 C1.68950829 7.66602208 0.43691823 4.50788649 0 0 Z " fill="#1F1E1C" transform="translate(41,121)"/>
<path d="M0 0 C6.69034366 0.44602291 12.02812122 3.07345542 18 6 C18 6.66 18 7.32 18 8 C17.01 8.33 16.02 8.66 15 9 C15 8.34 15 7.68 15 7 C14.28457031 6.86722656 13.56914062 6.73445313 12.83203125 6.59765625 C10.05811678 6.01226465 7.39700725 5.26841556 4.6875 4.4375 C3.80449219 4.16808594 2.92148438 3.89867187 2.01171875 3.62109375 C1.34785156 3.41613281 0.68398437 3.21117187 0 3 C0 2.01 0 1.02 0 0 Z " fill="#55543B" transform="translate(117,42)"/>
<path d="M0 0 C4.03477342 0.58158896 6.85241201 1.86756059 10.3125 4 C11.19550781 4.53625 12.07851562 5.0725 12.98828125 5.625 C13.65214844 6.07875 14.31601563 6.5325 15 7 C15 7.33 15 7.66 15 8 C8.89357521 8.78287497 4.99540421 6.10825151 0 3 C0 2.01 0 1.02 0 0 Z " fill="#E1DCBF" transform="translate(128,40)"/>
<path d="M0 0 C4.00079276 0.60266025 7.02375893 1.8684072 10.5625 3.8125 C11.49191406 4.31394531 12.42132813 4.81539062 13.37890625 5.33203125 C15.97454585 6.9838019 17.92092613 8.74481634 20 11 C16.7 11 13.4 11 10 11 C11.32 10.34 12.64 9.68 14 9 C7.07 5.04 7.07 5.04 0 1 C0 0.67 0 0.34 0 0 Z " fill="#21201D" transform="translate(128,38)"/>
<path d="M0 0 C2.50771622 3.76157432 2.079927 5.37287407 1.6875 9.8125 C1.58824219 11.01519531 1.48898438 12.21789062 1.38671875 13.45703125 C1.03630728 16.66736662 0.56940362 19.82204649 0 23 C-0.33 23 -0.66 23 -1 23 C-1.02894547 19.54168414 -1.04678 16.08339928 -1.0625 12.625 C-1.07087891 11.64015625 -1.07925781 10.6553125 -1.08789062 9.640625 C-1.09111328 8.69960937 -1.09433594 7.75859375 -1.09765625 6.7890625 C-1.10289307 5.91975098 -1.10812988 5.05043945 -1.11352539 4.15478516 C-1 2 -1 2 0 0 Z " fill="#E9E3C5" transform="translate(41,86)"/>
<path d="M0 0 C0 0.33 0 0.66 0 1 C-1.80984375 1.29003906 -1.80984375 1.29003906 -3.65625 1.5859375 C-5.27086216 1.84878134 -6.88544388 2.11181217 -8.5 2.375 C-9.29148437 2.50132813 -10.08296875 2.62765625 -10.8984375 2.7578125 C-14.82962806 3.40226997 -18.63244651 4.14608462 -22.46875 5.2265625 C-24.21671875 5.60941406 -24.21671875 5.60941406 -26 6 C-26.66 5.34 -27.32 4.68 -28 4 C-18.49187349 1.26619871 -9.90092969 -0.17929249 0 0 Z " fill="#2F2D2A" transform="translate(108,33)"/>
<path d="M0 0 C0.33 0 0.66 0 1 0 C1.01981934 0.55872803 1.03963867 1.11745605 1.06005859 1.69311523 C1.1565219 4.27497418 1.26569812 6.85615392 1.375 9.4375 C1.4059375 10.31599609 1.436875 11.19449219 1.46875 12.09960938 C1.72806619 17.95583327 2.57644185 23.31155423 4 29 C3.01 28.67 2.02 28.34 1 28 C-1.51066298 22.03110123 -1.05982392 16.42397391 -0.625 10.0625 C-0.56828125 9.09248047 -0.5115625 8.12246094 -0.453125 7.12304688 C-0.31271847 4.74783646 -0.16142622 2.37385876 0 0 Z " fill="#47453D" transform="translate(39,93)"/>
<path d="M0 0 C-2.93720508 1.52299523 -5.9168649 2.80100302 -9 4 C-8.67 4.66 -8.34 5.32 -8 6 C-12.62 5.01 -17.24 4.02 -22 3 C-21.34 2.34 -20.68 1.68 -20 1 C-18.00276294 1.26193273 -16.00574862 1.52843951 -14.015625 1.83984375 C-9.3950011 2.20698635 -5.00754699 -0.19637439 0 0 Z " fill="#261F18" transform="translate(135,51)"/>
<path d="M0 0 C2.64 0.33 5.28 0.66 8 1 C8.309375 1.78375 8.61875 2.5675 8.9375 3.375 C9.92875038 5.92330128 9.92875038 5.92330128 11 8 C10.01 8.495 10.01 8.495 9 9 C10.32 10.32 11.64 11.64 13 13 C12.67 13.66 12.34 14.32 12 15 C7.68393782 12.18134715 7.68393782 12.18134715 6 10 C5.75476401 7.05171839 6.30529327 4.92769265 7 2 C3.7 2.33 0.4 2.66 -3 3 C-2.01 2.67 -1.02 2.34 0 2 C0 1.34 0 0.68 0 0 Z " fill="#0B0A06" transform="translate(136,48)"/>
<path d="M0 0 C0.66 0.33 1.32 0.66 2 1 C-2.92583331 6.74680552 -9.57888446 10.42322718 -17 12 C-17.33 11.34 -17.66 10.68 -18 10 C-17.03578125 9.61328125 -16.0715625 9.2265625 -15.078125 8.828125 C-13.8018675 8.3026072 -12.52583769 7.77653619 -11.25 7.25 C-10.61578125 6.99734375 -9.9815625 6.7446875 -9.328125 6.484375 C-5.44953976 4.86829782 -2.74539765 3.18909828 0 0 Z " fill="#2C2C2C" transform="translate(142,129)"/>
<path d="M0 0 C1.77226453 0.28284018 3.542788 0.57660498 5.3125 0.875 C6.29863281 1.03742188 7.28476563 1.19984375 8.30078125 1.3671875 C11 2 11 2 14 4 C14 4.66 14 5.32 14 6 C8.7415998 5.32584613 3.97361654 3.75734451 -1 2 C-0.67 1.34 -0.34 0.68 0 0 Z " fill="#E1A169" transform="translate(127,87)"/>
<path d="M0 0 C1.75280733 0.42611351 3.50217435 0.86639267 5.25 1.3125 C6.22453125 1.55613281 7.1990625 1.79976563 8.203125 2.05078125 C10.98975665 2.99652356 12.77304368 4.10708713 15 6 C14.01 7.485 14.01 7.485 13 9 C12.175 8.401875 11.35 7.80375 10.5 7.1875 C6.87707201 4.75199099 3.11583237 3.41925254 -1 2 C-0.67 1.34 -0.34 0.68 0 0 Z " fill="#EAA86E" transform="translate(126,91)"/>
<path d="M0 0 C3.99353689 2.05073516 6.21127442 3.82630698 8 8 C7.6875 10.8125 7.6875 10.8125 7 13 C3.66366632 10.00880429 1.75472293 7.12359889 0 3 C0 2.01 0 1.02 0 0 Z " fill="#E4DFC1" transform="translate(45,125)"/>
<path d="M0 0 C0.66 0.99 1.32 1.98 2 3 C-0.31 5.31 -2.62 7.62 -5 10 C-5.99 9.34 -6.98 8.68 -8 8 C-6.10186436 4.39354228 -4.81257069 2.52502828 -1 1 C-0.67 0.67 -0.34 0.34 0 0 Z " fill="#D2CEB2" transform="translate(153,140)"/>
<path d="M0 0 C2.18975773 3.28463659 2.99806563 6.20696275 4 10 C3.34 10.66 2.68 11.32 2 12 C-1.44216672 9.3401439 -1.99504674 6.09711714 -3 2 C-2.01 2 -1.02 2 0 2 C0 1.34 0 0.68 0 0 Z " fill="#D1CCB1" transform="translate(45,117)"/>
<path d="M0 0 C5.45479185 0.56820748 9.91059256 1.94637945 15 4 C15 4.66 15 5.32 15 6 C11.48294042 5.34728444 8.10674923 4.48606976 4.6875 3.4375 C3.80449219 3.16808594 2.92148438 2.89867188 2.01171875 2.62109375 C1.34785156 2.41613281 0.68398437 2.21117188 0 2 C0 1.34 0 0.68 0 0 Z " fill="#1F160E" transform="translate(128,85)"/>
<path d="M0 0 C0.66 0 1.32 0 2 0 C0.62815653 4.06498881 -1.22068459 6.67396561 -4.125 9.8125 C-4.84945312 10.60269531 -5.57390625 11.39289063 -6.3203125 12.20703125 C-6.87460938 12.79871094 -7.42890625 13.39039063 -8 14 C-8.66 13.67 -9.32 13.34 -10 13 C-9.36191406 12.22914063 -8.72382813 11.45828125 -8.06640625 10.6640625 C-6.82697266 9.15972656 -6.82697266 9.15972656 -5.5625 7.625 C-4.73878906 6.62726563 -3.91507813 5.62953125 -3.06640625 4.6015625 C-1.01584166 2.20344705 -1.01584166 2.20344705 0 0 Z " fill="#0F0E0B" transform="translate(155,131)"/>
<path d="M0 0 C0.33 0 0.66 0 1 0 C1.02578125 0.90363281 1.0515625 1.80726562 1.078125 2.73828125 C1.13484375 3.91777344 1.1915625 5.09726563 1.25 6.3125 C1.29640625 7.48425781 1.3428125 8.65601562 1.390625 9.86328125 C1.68588558 13.09428488 1.68588558 13.09428488 4.046875 14.79296875 C4.69140625 15.19128906 5.3359375 15.58960937 6 16 C6 16.66 6 17.32 6 18 C5.05125 17.649375 4.1025 17.29875 3.125 16.9375 C0.12939828 15.64973223 0.12939828 15.64973223 -2 17 C-1.505 15.515 -1.505 15.515 -1 14 C-0.77439324 11.60745424 -0.59151405 9.21071877 -0.4375 6.8125 C-0.35371094 5.54019531 -0.26992187 4.26789063 -0.18359375 2.95703125 C-0.12300781 1.98121094 -0.06242187 1.00539063 0 0 Z " fill="#201F20" transform="translate(97,89)"/>
<path d="M0 0 C1.58468677 0.45363171 3.16769924 0.91311452 4.75 1.375 C5.63171875 1.63023438 6.5134375 1.88546875 7.421875 2.1484375 C9.76080572 2.9209934 11.83442562 3.83625676 14 5 C14 5.66 14 6.32 14 7 C12.41531323 6.54636829 10.83230076 6.08688548 9.25 5.625 C8.36828125 5.36976562 7.4865625 5.11453125 6.578125 4.8515625 C4.23919428 4.0790066 2.16557438 3.16374324 0 2 C0 1.34 0 0.68 0 0 Z " fill="#251A11" transform="translate(127,89)"/>
<path d="M0 0 C3.25914951 3.08297927 6.06553673 5.9161331 8 10 C7.67 10.99 7.34 11.98 7 13 C7 12.34 7 11.68 7 11 C5.68 10.67 4.36 10.34 3 10 C2.690625 8.906875 2.38125 7.81375 2.0625 6.6875 C1.41662103 4.44592006 0.7376883 2.2130649 0 0 Z " fill="#E4DFC1" transform="translate(155,60)"/>
<path d="M0 0 C4.85963179 0.60745397 8.7405518 2.72758967 13 5 C13 5.66 13 6.32 13 7 C8.52761347 5.58192622 4.28853694 3.88695626 0 2 C0 1.34 0 0.68 0 0 Z " fill="#231810" transform="translate(125,93)"/>
<path d="M0 0 C2.475 0.495 2.475 0.495 5 1 C5.66 2.98 6.32 4.96 7 7 C6.34 7.66 5.68 8.32 5 9 C4.34 9 3.68 9 3 9 C2.01 6.03 1.02 3.06 0 0 Z " fill="#CFCAAF" transform="translate(159,71)"/>
<path d="M0 0 C0.99 0.33 1.98 0.66 3 1 C1.68 3.64 0.36 6.28 -1 9 C-2.32 8.67 -3.64 8.34 -5 8 C-4.34 6.02 -3.68 4.04 -3 2 C-2.34 2 -1.68 2 -1 2 C-0.67 1.34 -0.34 0.68 0 0 Z " fill="#D0CBB0" transform="translate(49,68)"/>
<path d="M0 0 C2.1875 0.3125 2.1875 0.3125 4 1 C3.01 2.485 3.01 2.485 2 4 C3.98 4 5.96 4 8 4 C8.33 4.66 8.66 5.32 9 6 C4.12335991 6.34833144 1.22949995 5.41685712 -3 3 C-1.75 1.4375 -1.75 1.4375 0 0 Z " fill="#E9E8CB" transform="translate(82,47)"/>
<path d="M0 0 C2.90566282 1.96559544 4.31913707 4.47072518 6.125 7.4375 C1.69041027 6.0437718 -0.74878374 3.83167765 -3.875 0.4375 C-1.875 -0.5625 -1.875 -0.5625 0 0 Z " fill="#E59F64" transform="translate(138.875,110.5625)"/>
<path d="M0 0 C2.49110723 0.99644289 3.75594512 1.57968326 5.125 3.9375 C5.41375 4.618125 5.7025 5.29875 6 6 C6.99 7.485 6.99 7.485 8 9 C5 9 5 9 2.3125 6.75 C0 4 0 4 0 0 Z " fill="#D3CFB4" transform="translate(144,49)"/>
<path d="M0 0 C0.66 0.33 1.32 0.66 2 1 C1.34 1.66 0.68 2.32 0 3 C0.33 3.99 0.66 4.98 1 6 C-1.70879335 7.35439668 -4.00933268 7.06501451 -7 7 C-4.66666667 4.66666667 -2.33333333 2.33333333 0 0 Z " fill="#E3DEC0" transform="translate(146,145)"/>
<path d="M0 0 C3.79588866 0.54226981 5.47211993 2.20127563 8 5 C7.67 5.99 7.34 6.98 7 8 C5.8274869 7.04882866 4.66212985 6.08882991 3.5 5.125 C2.8503125 4.59132812 2.200625 4.05765625 1.53125 3.5078125 C1.0259375 3.01023438 0.520625 2.51265625 0 2 C0 1.34 0 0.68 0 0 Z " fill="#CECBAF" transform="translate(55,142)"/>
<path d="M0 0 C0.66 0 1.32 0 2 0 C4.32086397 5.324335 3.91457003 9.43842552 3 15 C2.67 15 2.34 15 2 15 C1.34 10.05 0.68 5.1 0 0 Z " fill="#2A2926" transform="translate(167,79)"/>
<path d="M0 0 C2.39706123 -0.10854617 4.78915838 -0.18753157 7.1875 -0.25 C7.86103516 -0.28351563 8.53457031 -0.31703125 9.22851562 -0.3515625 C12.99375127 -0.42503051 14.83108854 -0.11393243 17.98828125 2.015625 C18.98408203 2.99789062 18.98408203 2.99789062 20 4 C14.125 3.125 14.125 3.125 13 2 C10.81707226 1.76518307 8.62796826 1.58636677 6.4375 1.4375 C5.23996094 1.35371094 4.04242188 1.26992187 2.80859375 1.18359375 C1.88175781 1.12300781 0.95492187 1.06242188 0 1 C0 0.67 0 0.34 0 0 Z " fill="#B4B098" transform="translate(98,161)"/>
<path d="M0 0 C2.4375 1.1875 2.4375 1.1875 5 3 C5.8125 5.6875 5.8125 5.6875 6 8 C4.68 7.67 3.36 7.34 2 7 C1.34 4.69 0.68 2.38 0 0 Z " fill="#DAD5B8" transform="translate(51,134)"/>
<path d="M0 0 C0.86625 0.3403125 0.86625 0.3403125 1.75 0.6875 C1.09 0.6875 0.43 0.6875 -0.25 0.6875 C-0.25 1.3475 -0.25 2.0075 -0.25 2.6875 C-4.72058824 6.6875 -4.72058824 6.6875 -7.25 6.6875 C-6.87492618 3.96821483 -6.40781339 2.84531339 -4.4375 0.875 C-2.25 -0.3125 -2.25 -0.3125 0 0 Z " fill="#9F956E" transform="translate(71.25,94.3125)"/>
<path d="M0 0 C1.65 0.33 3.3 0.66 5 1 C4.67 2.32 4.34 3.64 4 5 C2.35 4.67 0.7 4.34 -1 4 C-0.67 2.68 -0.34 1.36 0 0 Z " fill="#231B05" transform="translate(118,75)"/>
<path d="M0 0 C1.65 1.32 3.3 2.64 5 4 C4.67 5.65 4.34 7.3 4 9 C3.34 9 2.68 9 2 9 C1.34 6.03 0.68 3.06 0 0 Z " fill="#F2D8D0" transform="translate(68,55)"/>
<path d="M0 0 C0 1.32 0 2.64 0 4 C-2.3431213 3.74438677 -4.67843403 3.40729228 -7 3 C-7.33 2.34 -7.66 1.68 -8 1 C-5.07175348 0.02391783 -3.04386724 -0.08226668 0 0 Z " fill="#E0DABD" transform="translate(121,160)"/>
<path d="M0 0 C0.6875 1.8125 0.6875 1.8125 1 4 C-0.125 5.8125 -0.125 5.8125 -2 7 C-4.6875 6.6875 -4.6875 6.6875 -7 6 C-6.67 5.01 -6.34 4.02 -6 3 C-4.02 3 -2.04 3 0 3 C0 2.01 0 1.02 0 0 Z " fill="#D3B723" transform="translate(124,76)"/>
<path d="M0 0 C0 0.99 0 1.98 0 3 C0.66 3.33 1.32 3.66 2 4 C-1.375 4.625 -1.375 4.625 -5 5 C-5.66 4.34 -6.32 3.68 -7 3 C-6.34 3 -5.68 3 -5 3 C-5 2.34 -5 1.68 -5 1 C-2 0 -2 0 0 0 Z " fill="#CEC9AE" transform="translate(92,36)"/>
<path d="M0 0 C0.66 0.33 1.32 0.66 2 1 C1.2575 1.721875 0.515 2.44375 -0.25 3.1875 C-2.69290515 5.68592573 -4.8681047 8.23643202 -7 11 C-6.58485103 6.1565954 -4.53791301 4.18412171 -1 1 C-0.67 0.67 -0.34 0.34 0 0 Z " fill="#DF955B" transform="translate(108,131)"/>
<path d="M0 0 C1.4540625 0.0309375 1.4540625 0.0309375 2.9375 0.0625 C-2.20535714 4.49107143 -2.20535714 4.49107143 -6.0625 5.0625 C-3.64893617 0.07446809 -3.64893617 0.07446809 0 0 Z " fill="#9C936C" transform="translate(68.0625,89.9375)"/>
<path d="M0 0 C1.98 0.495 1.98 0.495 4 1 C3.67 2.32 3.34 3.64 3 5 C1.68 5 0.36 5 -1 5 C-0.67 3.35 -0.34 1.7 0 0 Z " fill="#0D0A02" transform="translate(82,75)"/>
<path d="M0 0 C0.33 0.99 0.66 1.98 1 3 C0.00390625 4.82421875 0.00390625 4.82421875 -1.4375 6.6875 C-1.91058594 7.31011719 -2.38367188 7.93273437 -2.87109375 8.57421875 C-3.24363281 9.04472656 -3.61617187 9.51523438 -4 10 C-4.66 9.67 -5.32 9.34 -6 9 C-4.02 6.03 -2.04 3.06 0 0 Z " fill="#0F0F0D" transform="translate(163,130)"/>
<path d="M0 0 C2.5 2.3125 2.5 2.3125 5 5 C5 5.99 5 6.98 5 8 C4.34 8 3.68 8 3 8 C0.25624329 5.04518508 0 4.22528092 0 0 Z " fill="#59573A" transform="translate(149,61)"/>
<path d="M0 0 C1.2380014 3.57644848 0.74926071 6.33694766 0 10 C-2.39456443 7.60543557 -2.75546876 6.34192692 -3 3 C-1.5625 1.1875 -1.5625 1.1875 0 0 Z " fill="#DFDABC" transform="translate(44,81)"/>
<path d="M0 0 C0.66 0 1.32 0 2 0 C0.7508258 3.45925163 -0.67527795 6.14693203 -3 9 C-3.66 8.67 -4.32 8.34 -5 8 C-4.21718695 6.66144944 -3.42348123 5.32926356 -2.625 4 C-2.18414062 3.2575 -1.74328125 2.515 -1.2890625 1.75 C-0.86367188 1.1725 -0.43828125 0.595 0 0 Z " fill="#0F0F0B" transform="translate(55,63)"/>
<path d="M0 0 C0.33 0 0.66 0 1 0 C1.1875 3.375 1.1875 3.375 1 7 C-2.4352048 9.29013653 -3.985331 9.17842973 -8 9 C-8 8.67 -8 8.34 -8 8 C-7.05125 7.79375 -6.1025 7.5875 -5.125 7.375 C-1.70833333 6.29166667 -1.70833333 6.29166667 -0.625 2.875 C-0.41875 1.92625 -0.2125 0.9775 0 0 Z " fill="#100D07" transform="translate(88,75)"/>
<path d="M0 0 C3.61855575 0.62388892 4.1709277 1.1709277 7 4 C3.7 4 0.4 4 -3 4 C-1.68 3.34 -0.36 2.68 1 2 C0.67 1.34 0.34 0.68 0 0 Z " fill="#2D2E29" transform="translate(141,45)"/>
<path d="M0 0 C0.66 0.33 1.32 0.66 2 1 C0.68 2.65 -0.64 4.3 -2 6 C-3.32 5.67 -4.64 5.34 -6 5 C-5.195625 4.360625 -4.39125 3.72125 -3.5625 3.0625 C-1.7249496 1.59396498 -1.7249496 1.59396498 0 0 Z " fill="#414031" transform="translate(140,144)"/>
<path d="M0 0 C0 0.99 0 1.98 0 3 C-2.3431213 2.74438677 -4.67843403 2.40729228 -7 2 C-7.33 1.34 -7.66 0.68 -8 0 C-5.13822943 -1.43088528 -3.06624227 -0.59991697 0 0 Z " fill="#352514" transform="translate(124,72)"/>
<path d="M0 0 C0.66 0 1.32 0 2 0 C3.21346851 3.64040554 3.21346851 5.35959446 2 9 C0.4375 6.1875 0.4375 6.1875 -1 3 C-0.67 2.01 -0.34 1.02 0 0 Z " fill="#59583B" transform="translate(156,68)"/>
</svg>
