<svg width="512" height="256" viewBox="0 150 512 256" fill="none" xmlns="http://www.w3.org/2000/svg">
<rect width="512" height="512" fill="white"/>
<path d="M321.566 361.436C321.035 361.436 320.567 361.248 320.162 360.874C319.787 360.499 319.6 360.047 319.6 359.516V331.523C319.6 329.339 320.848 328.246 323.345 328.246V358.112H338.324C339.323 358.112 340.072 358.409 340.571 359.002C341.102 359.563 341.367 360.375 341.367 361.436H321.566Z" fill="black"/>
<path d="M289.46 361.857C288.68 361.639 288.056 361.264 287.588 360.734C287.151 360.172 286.932 359.516 286.932 358.767C286.932 358.362 287.042 357.862 287.26 357.269L298.635 329.417C298.947 328.636 299.556 328.246 300.461 328.246C301.303 328.246 301.896 328.636 302.24 329.417L313.568 357.269C313.787 357.738 313.896 358.237 313.896 358.767C313.896 359.485 313.677 360.125 313.24 360.687C312.803 361.248 312.195 361.639 311.415 361.857L307.389 351.746H293.533L289.46 361.857ZM306.172 348.469L299.806 332.319L299.525 332.413L300.227 334.285L294.703 348.469H306.172Z" fill="black"/>
<path d="M261.451 361.436C260.92 361.436 260.467 361.264 260.093 360.921C259.718 360.578 259.531 360.156 259.531 359.657V330.447C259.531 329.947 259.718 329.526 260.093 329.183C260.467 328.839 260.92 328.668 261.451 328.668H274.651C277.242 328.668 279.301 329.479 280.83 331.102C282.391 332.694 283.171 334.847 283.171 337.562C283.171 339.06 282.765 340.48 281.954 341.822C281.143 343.133 280.113 344.084 278.864 344.677V344.771C280.674 345.301 282.063 346.222 283.031 347.533C284.029 348.812 284.529 350.404 284.529 352.308C284.529 354.086 284.154 355.678 283.405 357.082C282.687 358.455 281.673 359.532 280.362 360.312C279.052 361.061 277.554 361.436 275.868 361.436H261.451ZM274.558 343.413C275.931 343.413 277.101 342.852 278.069 341.728C279.067 340.605 279.567 339.232 279.567 337.609C279.567 335.799 279.114 334.394 278.209 333.396C277.335 332.397 276.118 331.898 274.558 331.898H263.229V343.413H274.558ZM275.494 358.206C277.21 358.206 278.537 357.691 279.473 356.661C280.44 355.631 280.924 354.196 280.924 352.354C280.924 350.544 280.44 349.14 279.473 348.141C278.537 347.143 277.21 346.643 275.494 346.643H263.229V358.206H275.494Z" fill="black"/>
<path d="M240.485 361.857C237.895 361.857 235.585 361.342 233.557 360.312C231.56 359.282 229.984 357.878 228.829 356.099C227.706 354.289 227.144 352.276 227.144 350.061V339.949C227.144 337.734 227.706 335.736 228.829 333.957C229.952 332.179 231.513 330.79 233.51 329.791C235.539 328.761 237.864 328.246 240.485 328.246C243.107 328.246 245.431 328.761 247.46 329.791C249.488 330.79 251.064 332.179 252.188 333.957C253.311 335.705 253.873 337.702 253.873 339.949V350.061C253.873 352.307 253.311 354.32 252.188 356.099C251.064 357.878 249.473 359.282 247.413 360.312C245.385 361.342 243.075 361.857 240.485 361.857ZM240.485 358.58C243.575 358.58 245.962 357.816 247.647 356.286C249.364 354.726 250.222 352.635 250.222 350.014V339.996C250.222 337.406 249.379 335.346 247.694 333.817C246.009 332.288 243.606 331.523 240.485 331.523C237.427 331.523 235.039 332.288 233.323 333.817C231.638 335.346 230.795 337.406 230.795 339.996V350.014C230.795 352.635 231.638 354.726 233.323 356.286C235.039 357.816 237.427 358.58 240.485 358.58Z" fill="black"/>
<path d="M206.594 361.436C206.064 361.436 205.596 361.248 205.19 360.874C204.816 360.499 204.628 360.047 204.628 359.516V331.523C204.628 329.339 205.877 328.246 208.373 328.246V358.112H223.353C224.352 358.112 225.101 358.409 225.6 359.002C226.13 359.563 226.396 360.375 226.396 361.436H206.594Z" fill="black"/>
<path d="M185.183 361.857C182.593 361.857 180.268 361.389 178.208 360.453C176.179 359.485 174.603 358.143 173.48 356.427C172.356 354.71 171.795 352.76 171.795 350.575V339.434C171.795 337.25 172.356 335.315 173.48 333.63C174.603 331.945 176.164 330.634 178.161 329.698C180.158 328.73 182.436 328.246 184.996 328.246C187.555 328.246 189.833 328.668 191.83 329.51C193.827 330.322 195.388 331.461 196.511 332.928C197.635 334.394 198.196 336.064 198.196 337.936C198.196 338.779 197.915 339.45 197.354 339.949C196.792 340.417 196.059 340.651 195.154 340.651C194.873 340.651 194.654 340.636 194.498 340.605C194.561 340.293 194.592 339.762 194.592 339.013C194.592 337.546 194.186 336.251 193.375 335.128C192.563 333.973 191.424 333.084 189.958 332.459C188.522 331.835 186.868 331.523 184.996 331.523C183.154 331.523 181.516 331.866 180.08 332.553C178.645 333.208 177.521 334.145 176.71 335.362C175.93 336.548 175.54 337.905 175.54 339.434V350.575C175.54 352.136 175.945 353.525 176.757 354.742C177.568 355.959 178.707 356.911 180.174 357.597C181.641 358.253 183.31 358.58 185.183 358.58C187.024 358.58 188.662 358.268 190.098 357.644C191.565 356.989 192.704 356.084 193.515 354.929C194.327 353.774 194.732 352.464 194.732 350.997V347.954H188.132C187.258 347.954 186.556 347.658 186.025 347.065C185.495 346.472 185.23 345.707 185.23 344.771H196.652C197.182 344.771 197.603 344.942 197.915 345.286C198.259 345.598 198.43 346.019 198.43 346.55V350.997C198.43 353.119 197.869 355.007 196.745 356.661C195.622 358.284 194.061 359.563 192.064 360.499C190.067 361.404 187.773 361.857 185.183 361.857Z" fill="black"/>
<path fill-rule="evenodd" clip-rule="evenodd" d="M390.999 220.669C390.999 226.324 395.584 230.909 401.239 230.909H440.492C441.435 230.909 442.199 231.673 442.199 232.615V271.564V271.869H442.203C442.365 277.383 446.886 281.804 452.439 281.804C457.992 281.804 462.513 277.383 462.675 271.869H462.679V271.564V230.909V217.255C462.679 213.485 459.623 210.429 455.852 210.429H442.199H401.239C395.584 210.429 390.999 215.013 390.999 220.669Z" fill="black"/>
<path fill-rule="evenodd" clip-rule="evenodd" d="M442.199 292.043C442.199 286.388 437.614 281.803 431.959 281.803H392.706C391.763 281.803 390.999 281.039 390.999 280.097V241.148V240.843H390.995C390.833 235.329 386.312 230.908 380.759 230.908C375.206 230.908 370.685 235.329 370.523 240.843H370.519V241.148V281.803V295.457C370.519 299.227 373.575 302.283 377.346 302.283H390.999H431.959C437.614 302.283 442.199 297.699 442.199 292.043Z" fill="black"/>
<path fill-rule="evenodd" clip-rule="evenodd" d="M263.811 299.19C267.81 303.189 274.294 303.189 278.293 299.19L306.049 271.433C306.715 270.767 307.796 270.767 308.463 271.433L336.003 298.974L336.219 299.19L336.222 299.187C340.235 302.972 346.558 302.901 350.485 298.974C354.412 295.047 354.482 288.725 350.697 284.711L350.7 284.708L350.485 284.492L321.737 255.745L312.083 246.091C309.417 243.425 305.095 243.425 302.429 246.091L292.774 255.745L263.811 284.708C259.812 288.707 259.812 295.191 263.811 299.19Z" fill="#FF7201"/>
<path fill-rule="evenodd" clip-rule="evenodd" d="M263.703 212.81C267.702 208.811 274.186 208.811 278.185 212.81L305.941 240.567C306.608 241.233 307.688 241.233 308.355 240.567L335.895 213.026L336.111 212.81L336.114 212.813C340.128 209.028 346.45 209.099 350.377 213.026C354.304 216.953 354.375 223.275 350.59 227.289L350.593 227.292L350.377 227.507L321.63 256.255L311.975 265.909C309.309 268.575 304.987 268.575 302.321 265.909L292.667 256.255L263.703 227.292C259.704 223.293 259.704 216.809 263.703 212.81Z" fill="#FF7201"/>
<path fill-rule="evenodd" clip-rule="evenodd" d="M154.276 220.267C154.276 225.922 158.86 230.507 164.516 230.507H189.141C190.083 230.507 190.847 231.271 190.847 232.214L190.843 291.99V292.295H190.847C191.009 297.809 195.529 302.23 201.083 302.23C206.636 302.23 211.157 297.809 211.318 292.295H211.323V291.99L211.327 230.507V216.854C211.327 213.083 208.271 210.027 204.501 210.027H190.847H164.516C158.86 210.027 154.276 214.612 154.276 220.267Z" fill="#FF7201"/>
<path d="M233.428 210.027C239.084 210.027 243.668 214.612 243.668 220.267C243.668 225.922 239.084 230.507 233.428 230.507C227.773 230.507 223.188 225.922 223.188 220.267C223.188 214.612 227.773 210.027 233.428 210.027Z" fill="#FF7201"/>
<path fill-rule="evenodd" clip-rule="evenodd" d="M141.482 220.206L141.482 220.213L141.482 220.221L141.481 271.509V271.815H141.476C141.315 277.329 136.794 281.75 131.241 281.75C125.687 281.75 121.166 277.329 121.005 271.815H121.001V271.513L121.001 271.51L121.001 271.507L121.002 220.213L121.002 219.903H121.006C121.17 214.391 125.69 209.973 131.242 209.973C136.793 209.973 141.313 214.391 141.477 219.903H141.482V220.206Z" fill="black"/>
<path fill-rule="evenodd" clip-rule="evenodd" d="M121.001 291.99C121.001 286.335 116.416 281.75 110.761 281.75H71.5076C70.5651 281.75 69.801 280.986 69.801 280.043V220.615V220.31H69.7965C69.6352 214.796 65.1143 210.375 59.561 210.375C54.0076 210.375 49.4867 214.796 49.3254 220.31H49.321V220.615V281.75V295.403C49.321 299.174 52.3774 302.23 56.1476 302.23H69.801H110.761C116.416 302.23 121.001 297.645 121.001 291.99Z" fill="black"/>
</svg>
