<svg width="666" height="231" viewBox="-20 -20 666 231" fill="none" xmlns="http://www.w3.org/2000/svg">
<rect width="686" height="251" x="-20" y="-20" fill="#ffffff"></rect>
<path fill-rule="evenodd" clip-rule="evenodd" d="M570.521 109.481C575.855 112.564 582.313 114.106 589.896 114.106C597.521 114.106 603.98 112.564 609.271 109.481C614.605 106.398 618.646 101.898 621.396 95.981C624.146 90.0226 625.521 82.7726 625.521 74.231C625.521 65.731 624.146 58.5226 621.396 52.606C618.646 46.6476 614.605 42.1476 609.271 39.106C603.98 36.0226 597.521 34.481 589.896 34.481C582.313 34.481 575.855 36.0226 570.521 39.106C565.23 42.1476 561.188 46.6476 558.396 52.606C555.646 58.5226 554.271 65.731 554.271 74.231C554.271 82.7726 555.646 90.0226 558.396 95.981C561.188 101.898 565.23 106.398 570.521 109.481ZM603.396 93.0435C600.355 97.3351 595.855 99.481 589.896 99.481C584.021 99.481 579.542 97.3351 576.459 93.0435C573.375 88.7101 571.834 82.4393 571.834 74.231C571.834 66.0643 573.355 59.856 576.396 55.606C579.48 51.3143 583.98 49.1685 589.896 49.1685C595.855 49.1685 600.355 51.2935 603.396 55.5435C606.438 59.7935 607.959 66.0226 607.959 74.231C607.959 82.4393 606.438 88.7101 603.396 93.0435ZM464.289 111.231C464.289 112.648 466.601 113.356 471.226 113.356H475.476C477.435 113.356 478.893 113.252 479.851 113.043C480.851 112.793 481.643 112.189 482.226 111.231L497.601 87.356L512.414 111.231C512.872 112.064 513.643 112.627 514.726 112.918C515.81 113.21 517.247 113.356 519.039 113.356H523.351C528.018 113.356 530.351 112.648 530.351 111.231C530.351 110.439 530.018 109.523 529.351 108.481L507.164 72.856L528.164 40.0435C528.872 38.9601 529.226 38.0226 529.226 37.231C529.226 35.8143 526.893 35.106 522.226 35.106H517.914C516.122 35.106 514.685 35.2518 513.601 35.5435C512.56 35.8351 511.726 36.3976 511.101 37.231L497.789 57.9185L485.101 37.231C484.268 35.8143 482.06 35.106 478.476 35.106H473.914C471.58 35.106 469.81 35.3143 468.601 35.731C467.435 36.106 466.851 36.606 466.851 37.231C466.851 37.8143 467.205 38.7518 467.914 40.0435L488.289 72.606L465.351 108.481C464.643 109.606 464.289 110.523 464.289 111.231ZM412.994 113.356C408.535 113.356 406.306 112.189 406.306 109.856V49.9185H388.681C387.515 49.9185 386.66 49.481 386.119 48.606C385.619 47.731 385.369 46.3143 385.369 44.356V40.981C385.369 39.0226 385.619 37.606 386.119 36.731C386.66 35.856 387.515 35.4185 388.681 35.4185H441.244C442.41 35.4185 443.244 35.856 443.744 36.731C444.285 37.606 444.556 39.0226 444.556 40.981V44.356C444.556 46.3143 444.285 47.731 443.744 48.606C443.244 49.481 442.41 49.9185 441.244 49.9185H423.556V109.856C423.556 112.189 421.327 113.356 416.869 113.356H412.994ZM309.574 110.918C314.407 113.043 320.199 114.106 326.949 114.106C333.699 114.106 339.47 113.043 344.261 110.918C349.095 108.793 352.782 105.731 355.324 101.731C357.865 97.6893 359.136 92.8351 359.136 87.1685V38.731C359.136 37.5226 358.595 36.6268 357.511 36.0435C356.47 35.4185 354.803 35.106 352.511 35.106H348.824C346.532 35.106 344.845 35.4185 343.761 36.0435C342.72 36.6268 342.199 37.5226 342.199 38.731V86.0435C342.199 88.6268 341.553 90.9393 340.261 92.981C338.97 95.0226 337.157 96.6268 334.824 97.7935C332.532 98.9185 329.907 99.481 326.949 99.481C323.99 99.481 321.365 98.9185 319.074 97.7935C316.782 96.6268 314.99 95.0226 313.699 92.981C312.449 90.9393 311.824 88.6268 311.824 86.0435V38.731C311.824 37.5226 311.282 36.6268 310.199 36.0435C309.157 35.4185 307.49 35.106 305.199 35.106H301.449C299.157 35.106 297.47 35.4185 296.386 36.0435C295.303 36.6268 294.761 37.5226 294.761 38.731V87.1685C294.761 92.8351 296.032 97.6893 298.574 101.731C301.115 105.731 304.782 108.793 309.574 110.918ZM567.846 190.45V139.444H574.609L575.189 143.14C577.314 141.612 579.633 140.503 582.145 139.813C584.722 139.074 587.717 138.705 591.131 138.705C597.572 138.705 602.628 140.084 606.299 142.844C609.971 145.555 611.807 150.089 611.807 156.446C611.807 162.754 609.971 170.961 606.299 174.065C602.628 177.17 597.54 178.722 591.034 178.722C585.044 178.722 579.955 177.614 575.769 175.396V190.45H567.846ZM588.908 173.844C594.061 173.844 597.829 172.735 600.213 170.517C602.66 168.25 603.884 161.226 603.884 156.446C603.884 151.863 602.757 148.586 600.502 146.614C598.248 144.594 594.448 143.583 589.102 143.583C586.461 143.583 584.013 143.928 581.759 144.618C579.504 145.308 577.508 146.368 575.769 147.797V170.369C577.379 171.453 579.279 172.316 581.469 172.956C583.659 173.548 586.139 173.844 588.908 173.844ZM488.909 184.593C491.356 185.617 494.029 186.129 496.928 186.129C501.115 186.129 504.625 185.617 507.459 184.593C510.293 183.569 512.709 182.033 514.705 179.985L515.285 185.169H521.952V155.409C521.952 149.521 520.309 145.265 517.024 142.641C513.804 140.017 508.941 138.705 502.435 138.705C499.215 138.705 496.187 138.961 493.353 139.473C490.583 139.921 488.168 140.529 486.107 141.297V147.825C488.361 147.057 490.777 146.449 493.353 146.001C495.93 145.553 498.603 145.329 501.372 145.329C504.979 145.329 507.717 145.649 509.585 146.289C511.453 146.929 512.709 147.985 513.353 149.457C514.061 150.929 514.416 152.913 514.416 155.409V158.193H498.474C492.226 158.193 487.717 159.537 484.947 162.225C482.178 164.849 480.793 168.241 480.793 172.401C480.793 175.473 481.534 178.033 483.015 180.081C484.497 182.065 486.461 183.569 488.909 184.593ZM507.846 177.969C505.269 179.121 502.306 179.697 498.957 179.697C495.801 179.697 493.289 179.185 491.421 178.161C489.553 177.073 488.619 175.153 488.619 172.401C488.619 169.649 489.392 167.601 490.938 166.257C492.484 164.913 495.06 164.241 498.667 164.241H514.416V173.073C512.612 175.121 510.422 176.753 507.846 177.969ZM393.123 185.169L381.142 139.665H389.065L398.05 176.241L408.291 144.945V139.665H414.378L425.682 176.241L434.668 139.665H442.59L430.61 185.169H422.687L411.963 152.145L401.045 185.169H393.123ZM316.302 185.553C319.007 185.937 321.841 186.129 324.804 186.129C330.601 186.129 335.078 185.105 338.234 183.057C341.39 180.945 342.968 177.649 342.968 173.169C342.968 170.481 342.453 168.305 341.422 166.641C340.392 164.977 338.781 163.569 336.591 162.417C334.401 161.265 331.535 160.145 327.992 159.057L321.326 156.849C319.651 156.209 318.395 155.473 317.558 154.641C316.785 153.745 316.398 152.561 316.398 151.089C316.398 148.913 317.268 147.441 319.007 146.673C320.811 145.841 323.709 145.425 327.703 145.425C331.438 145.425 335.335 146.097 339.393 147.441V140.529C337.718 140.017 335.754 139.601 333.5 139.281C331.245 138.897 328.894 138.705 326.447 138.705C320.134 138.705 315.561 139.793 312.727 141.969C309.893 144.081 308.476 147.153 308.476 151.185C308.476 153.937 309.056 156.145 310.215 157.809C311.374 159.409 312.985 160.689 315.046 161.649C317.107 162.609 319.458 163.537 322.099 164.433C325.062 165.393 327.477 166.225 329.345 166.929C331.277 167.633 332.694 168.433 333.596 169.329C334.562 170.225 335.045 171.537 335.045 173.265C335.045 175.633 334.176 177.265 332.437 178.161C330.698 178.993 327.799 179.409 323.741 179.409C321.358 179.409 318.943 179.217 316.495 178.833C314.112 178.449 311.825 177.873 309.635 177.105V184.017C311.439 184.657 313.661 185.169 316.302 185.553Z" fill="#002EA6"/>
<path d="M13.1016 82.6997L1.85156 87.2423V178.7C1.85156 183.67 5.881 187.7 10.8516 187.7H220.852C222.052 138.5 195.352 119.7 181.852 116.45C191.602 96.1997 218.602 96.9497 231.352 104.45C241.552 110.45 255.102 111.95 260.602 111.95C252.802 99.3497 208.352 82.1997 187.102 75.1997C228.502 76.3997 257.352 93.6997 266.602 102.2C268.092 77.6024 242.174 70.7837 227.867 67.0195L227.602 66.9497C213.352 63.1997 198.352 52.6997 190.102 39.9497C181.852 27.1997 169.102 18.1997 136.852 7.6997C104.602 -2.8003 69.7206 2.09128 55.1016 13.6997C38.357 26.996 23.6016 63.4497 13.1016 82.6997Z" fill="#2853C4"/>
<path d="M159.096 54.1926C156.843 58.4379 149.94 59.1854 143.679 55.8623C137.418 52.5391 132.964 46.9967 135.218 42.7514C137.471 38.5061 145.578 37.1654 151.839 40.4886C158.1 43.8118 161.349 49.9473 159.096 54.1926Z" fill="white"/>
<path d="M168.36 187.7C172.914 178.763 175.4 169.106 175.4 159.031C175.4 113.116 123.763 75.8943 60.0659 75.8943C38.8323 75.8943 18.9387 80.0305 1.85156 87.2461V178.7C1.85156 183.67 5.8811 187.7 10.8516 187.7H168.36Z" fill="#002EA6"/>
<path fill-rule="evenodd" clip-rule="evenodd" d="M89.5044 3.90253C75.0709 5.2504 63.0241 9.32406 56.0343 14.8744C47.9312 21.3088 40.1806 33.4859 33.0807 46.6779C29.5479 53.2419 26.2069 59.9961 23.0845 66.3303L22.6901 67.1304L22.6898 67.131L22.6896 67.1314L22.6895 67.1317L22.6891 67.1324C20.2915 71.997 18.0206 76.6044 15.9016 80.6425C26.1525 77.6118 37.1282 75.6058 48.5846 74.7972C49.411 74.7389 50.1282 75.3615 50.1865 76.1879C50.2448 77.0143 49.6222 77.7315 48.7958 77.7898C33.446 78.8731 18.999 82.1451 6.0633 87.1593L3.35156 88.2542V178.7C3.35156 182.583 6.30281 185.777 10.0847 186.161C10.3369 186.187 10.5927 186.2 10.8516 186.2L26.7697 186.2C27.2339 169.793 35.8811 155.667 42.82 145.558C43.7966 144.135 44.7309 142.804 45.6029 141.56L45.6033 141.56C47.8964 138.291 49.7594 135.635 50.8329 133.55C51.5971 132.066 51.7448 131.255 51.6802 130.887C51.662 130.783 51.6331 130.737 51.5594 130.678C51.4505 130.591 51.1909 130.447 50.6406 130.343C47.4542 129.742 45.3792 128.086 44.4331 125.649C43.5368 123.341 43.7578 120.588 44.4848 117.904C45.9454 112.512 49.6907 106.518 53.1347 102.607C53.6823 101.986 54.6301 101.925 55.2518 102.473C55.8735 103.021 55.9336 103.968 55.3861 104.59C52.1471 108.268 48.6872 113.864 47.3805 118.688C46.7238 121.113 46.6707 123.124 47.2297 124.564C47.739 125.875 48.8488 126.952 51.1969 127.395C52.0302 127.552 52.8108 127.836 53.4358 128.337C54.096 128.866 54.4948 129.569 54.6351 130.368C54.8874 131.806 54.2753 133.418 53.5 134.924C52.3256 137.205 50.2783 140.123 47.9261 143.475C47.0792 144.682 46.1928 145.946 45.2933 147.256C38.3898 157.313 30.2358 170.775 29.771 186.2L168.36 186.2L168.376 186.2H219.38C220.006 138.74 194.123 120.947 181.5 117.908C181.06 117.802 180.691 117.502 180.496 117.093C180.302 116.683 180.303 116.207 180.5 115.799C185.645 105.112 195.342 100.018 205.258 98.5594C215.129 97.1078 225.417 99.2184 232.112 103.157C240.38 108.02 251.01 109.852 257.401 110.319C255.279 108.098 252.074 105.676 248.021 103.149C242.502 99.7077 235.614 96.1942 228.272 92.839C213.591 86.1302 197.22 80.1121 186.632 76.6244C185.925 76.3913 185.495 75.6743 185.624 74.9406C185.753 74.2069 186.4 73.6787 187.145 73.7003C225.768 74.8198 253.64 89.8212 265.138 98.9851C264.73 89.0729 259.31 82.5399 252.196 77.961C244.342 72.9056 234.558 70.3311 227.406 68.4494L227.22 68.4003C212.622 64.5588 197.303 53.8403 188.842 40.7646C180.876 28.4525 168.532 19.5918 136.387 9.12599C120.47 3.94374 103.894 2.55875 89.5044 3.90253ZM12.0406 81.5104L4.9594 84.3697C3.79372 84.8217 2.63983 85.2877 1.49814 85.7673L1.28994 85.8514C1.25056 85.8673 1.21213 85.8847 1.1747 85.9036L0.351562 86.2512V87.2423V178.7C0.351562 181.599 1.52682 184.224 3.42694 186.124C5.32707 188.025 7.95207 189.2 10.8516 189.2H220.852C221.666 189.2 222.331 188.55 222.351 187.736C223.516 139.958 198.648 120.086 184.036 115.501C188.806 107.013 197.015 102.804 205.695 101.527C214.949 100.167 224.536 102.181 230.591 105.743C241.115 111.933 254.969 113.45 260.602 113.45C261.146 113.45 261.647 113.155 261.912 112.68C262.177 112.204 262.163 111.623 261.877 111.16C259.729 107.691 255.221 104.103 249.608 100.603C243.936 97.0667 236.92 93.4926 229.519 90.1104C218.996 85.3017 207.628 80.8513 198.104 77.4179C233.193 80.9824 257.429 95.8084 265.587 103.304C266.013 103.696 266.626 103.807 267.163 103.591C267.7 103.374 268.064 102.868 268.099 102.29C268.89 89.2303 262.297 80.8948 253.82 75.4384C245.562 70.123 235.392 67.448 228.321 65.5878L227.983 65.4991C214.081 61.8406 199.4 51.5591 191.361 39.1348C182.828 25.9469 169.671 16.8076 137.316 6.27338C120.983 0.955637 103.993 -0.463585 89.2255 0.915527C74.5012 2.29055 61.798 6.46689 54.1688 12.525C45.5273 19.3869 37.5279 32.0847 30.439 45.2561C26.8773 51.8738 23.5142 58.6735 20.3936 65.0039L20.0136 65.7749C17.1347 71.6159 14.4726 77.0171 12.0406 81.5104ZM155.354 49.2531C154.859 52.0267 151.86 53.8118 148.655 53.2403C145.45 52.6689 143.252 49.9572 143.747 47.1837C144.241 44.4101 147.241 42.625 150.446 43.1965C150.495 43.2052 150.544 43.2145 150.592 43.2242C150.539 43.1954 150.486 43.1668 150.433 43.1385C147.898 41.7931 144.955 41.3866 142.458 41.7505C139.852 42.1302 138.365 43.2198 137.867 44.1579C137.485 44.8786 137.429 46.0769 138.722 47.9448C139.995 49.7828 142.257 51.7111 145.086 53.2124C147.757 54.6302 150.45 55.1124 152.567 54.8831C154.705 54.6515 155.925 53.768 156.446 52.7861C156.967 51.8042 157.015 50.299 156.009 48.3987C155.792 47.9895 155.533 47.5766 155.231 47.1664C155.43 47.8345 155.481 48.5418 155.354 49.2531ZM159.096 54.1926C156.843 58.4379 149.94 59.1854 143.679 55.8623C137.418 52.5391 132.964 46.9968 135.218 42.7514C137.471 38.5061 145.578 37.1654 151.839 40.4886C158.1 43.8118 161.349 49.9473 159.096 54.1926Z" fill="black"/>
<path d="M196.714 48.2725L196.675 48.2676C200.342 51.7676 205.921 60.5814 201.521 64.9814C197.121 69.3814 189.355 73.4814 186.021 74.9814C191.355 78.6481 201.521 87.2814 199.521 92.4814C199.078 93.6331 196.781 94.2277 194.355 94.8555C192.008 95.4627 189.541 96.1011 188.515 97.3048C188.005 97.9023 188.514 98.3473 189.203 98.9498C190.737 100.29 193.162 102.41 187.255 108.722L187.274 108.729C199.354 96.5747 220.507 98.0707 231.352 104.45C241.551 110.45 255.102 111.95 260.602 111.95C252.801 99.3497 208.352 82.1997 187.102 75.1997C228.501 76.3997 257.352 93.6997 266.602 102.2C268.092 77.6024 242.174 70.7837 227.867 67.0195L227.602 66.9497C216.603 64.0554 205.158 57.14 196.714 48.2725Z" fill="#FCCD13"/>
<path fill-rule="evenodd" clip-rule="evenodd" d="M195.321 47.6224C195.6 47.0375 196.223 46.6976 196.866 46.7797L196.904 46.7847C197.246 46.8284 197.563 46.9885 197.8 47.2382C206.067 55.9198 217.274 62.6809 227.983 65.4992L228.248 65.5689L228.248 65.5689L228.331 65.5907C235.445 67.4622 245.691 70.1579 253.976 75.5394C262.379 80.9979 268.885 89.3123 268.099 102.291C268.064 102.868 267.7 103.374 267.163 103.591C266.626 103.807 266.013 103.696 265.587 103.304C257.429 95.8084 233.193 80.9825 198.104 77.418C207.628 80.8513 218.996 85.3018 229.519 90.1105C236.92 93.4927 243.936 97.0668 249.608 100.603C255.221 104.103 259.729 107.691 261.877 111.16C262.163 111.623 262.177 112.204 261.912 112.68C261.647 113.155 261.146 113.45 260.602 113.45C254.969 113.45 241.115 111.933 230.591 105.743C225.451 102.719 217.746 100.801 209.84 101.138C201.947 101.475 194.04 104.05 188.338 109.787C187.916 110.212 187.282 110.345 186.724 110.125L186.706 110.118C186.243 109.935 185.901 109.536 185.792 109.052C185.683 108.567 185.821 108.06 186.16 107.697C189.053 104.605 189.555 102.886 189.521 102.032C189.49 101.263 189.026 100.787 188.216 100.079C188.196 100.062 188.174 100.043 188.151 100.023C187.87 99.7786 187.389 99.3616 187.108 98.8714C186.925 98.552 186.766 98.1104 186.817 97.5836C186.868 97.0615 187.108 96.643 187.373 96.3313C188.149 95.4227 189.332 94.8539 190.417 94.4505C191.528 94.0376 192.793 93.7102 193.937 93.4142L193.979 93.4034C195.221 93.082 196.3 92.8001 197.127 92.4712C197.536 92.3086 197.815 92.1601 197.991 92.0332C198.077 91.9715 198.117 91.9298 198.133 91.9119C198.407 91.1647 198.316 90.1201 197.649 88.7099C196.983 87.3003 195.841 85.7442 194.409 84.1633C191.553 81.0094 187.777 78.0087 185.171 76.2175C184.725 75.9106 184.479 75.3867 184.527 74.8471C184.576 74.3074 184.912 73.8359 185.406 73.6136C188.701 72.1307 196.261 68.1208 200.461 63.9208C201.979 62.4023 201.986 59.9192 200.735 56.8541C199.52 53.8808 197.339 50.9742 195.64 49.3527C195.171 48.9052 195.043 48.2074 195.321 47.6224ZM191.498 73.8869C227.861 75.9507 254.077 90.1692 265.138 98.9852C264.733 89.1394 259.382 82.629 252.341 78.0551C244.495 72.9578 234.676 70.3621 227.485 68.4702L227.485 68.4701L227.22 68.4004L227.22 68.4004C219.226 66.2968 211.034 62.1372 203.871 56.6731C204.948 59.7996 205.193 63.4309 202.582 66.0421C199.584 69.0399 195.153 71.8636 191.498 73.8869ZM193.394 78.927C194.521 79.9516 195.627 81.0381 196.633 82.1496C198.16 83.8354 199.518 85.6417 200.362 87.428C201.196 89.194 201.633 91.1692 200.921 93.0199C200.669 93.6758 200.198 94.1408 199.745 94.4668C199.29 94.7949 198.76 95.0502 198.236 95.2588C197.215 95.6649 195.959 95.99 194.791 96.292L194.73 96.3078L194.355 94.8556L194.73 96.3078C193.539 96.6161 192.415 96.9086 191.462 97.2626C190.927 97.4617 190.516 97.656 190.212 97.8391C190.227 97.8523 190.243 97.8658 190.258 97.8796C191.005 98.5301 192.433 99.7734 192.518 101.911C192.531 102.224 192.515 102.545 192.468 102.875C197.756 99.8248 203.807 98.3928 209.712 98.1408C218.114 97.7823 226.407 99.8011 232.112 103.157C240.38 108.02 251.01 109.852 257.401 110.319C255.279 108.098 252.074 105.676 248.021 103.149C242.501 99.7078 235.614 96.1943 228.272 92.8391C216.44 87.432 203.509 82.4736 193.394 78.927Z" fill="black"/>
</svg>
