<svg width="161" height="56" viewBox="0 0 161 56" fill="none" xmlns="http://www.w3.org/2000/svg">
<path d="M65.8587 44.3483L61.9307 15.0454H65.8982L67.6056 30.2753L67.6845 31.2308H68.0005L68.119 30.2753L69.9448 15.0454H73.0405L74.8663 30.2753L74.9847 31.2308H75.3007L75.3797 30.2753L77.087 15.0454H81.0546L77.1265 44.3483H73.7939L71.8101 30.4738L71.5731 28.7581H71.4151L71.1782 30.4738L69.1944 44.3483H65.8618H65.8587Z" fill="#8558DD"/>
<path d="M90.934 44.6658C89.7431 44.6658 88.7224 44.3881 87.8687 43.8294C87.015 43.2708 86.3619 42.5137 85.9062 41.5582C85.4505 40.6027 85.2227 39.5251 85.2227 38.3284V21.0654C85.2227 19.8566 85.4505 18.7759 85.9062 17.8265C86.3619 16.8771 87.0181 16.1231 87.8687 15.5645C88.7224 15.0058 89.7431 14.728 90.934 14.728C92.1249 14.728 93.1456 15.0058 93.9993 15.5645C94.853 16.1231 95.5061 16.8802 95.9618 17.8357C96.4175 18.7912 96.6454 19.8688 96.6454 21.0654V38.3284C96.6454 39.5251 96.4175 40.5997 95.9618 41.5582C95.5061 42.5167 94.8499 43.2738 93.9993 43.8294C93.1456 44.3881 92.1249 44.6658 90.934 44.6658ZM90.934 40.4806C91.4626 40.4806 91.8332 40.2577 92.0459 39.8121C92.2585 39.3664 92.3618 38.8718 92.3618 38.3254V21.0624C92.3618 20.519 92.2494 20.0214 92.0246 19.5757C91.7998 19.13 91.4353 18.9072 90.934 18.9072C90.4327 18.9072 90.0834 19.13 89.8525 19.5757C89.6216 20.0214 89.5062 20.5159 89.5062 21.0624V38.3254C89.5062 38.8718 89.6186 39.3664 89.8434 39.8121C90.0682 40.2577 90.4327 40.4806 90.934 40.4806Z" fill="#8558DD"/>
<path d="M101.804 44.3483V15.0454H106.09C108.657 15.0454 110.547 15.7597 111.765 17.1884C112.98 18.6171 113.591 20.7204 113.591 23.4983C113.591 25.1468 113.302 26.5724 112.728 27.7752C112.154 28.9779 111.455 29.8571 110.635 30.4157L113.551 44.3513H109.265L106.844 31.9909H106.09V44.3513H101.804V44.3483ZM106.09 28.0011C106.883 28.0011 107.512 27.824 107.974 27.4729C108.436 27.1219 108.767 26.6182 108.964 25.968C109.162 25.3177 109.262 24.5454 109.262 23.654C109.262 22.2589 109.034 21.1844 108.578 20.4334C108.123 19.6825 107.293 19.307 106.087 19.307V27.998L106.09 28.0011Z" fill="#8558DD"/>
<path d="M118.15 44.3483V15.0454H122.437V40.3614H128.112V44.3483H118.153H118.15Z" fill="#8558DD"/>
<path d="M132.037 44.3483V15.0454H136.403C137.779 15.0454 138.942 15.2713 139.893 15.7231C140.844 16.1749 141.613 16.9472 142.193 18.034C142.773 19.1238 143.196 20.6196 143.454 22.5184C143.712 24.4202 143.84 26.8166 143.84 29.7136C143.84 32.6106 143.712 35.0253 143.454 36.9211C143.196 38.8168 142.776 40.3034 142.193 41.3872C141.61 42.4709 140.844 43.234 139.893 43.6797C138.942 44.1254 137.776 44.3483 136.403 44.3483H132.037ZM136.321 40.0409C137.378 40.0409 138.125 39.6227 138.563 38.7863C139 37.9498 139.264 36.7532 139.356 35.1993C139.447 33.6455 139.495 31.7986 139.495 29.6587C139.495 27.5187 139.45 25.6413 139.356 24.1058C139.264 22.5703 138.994 21.395 138.554 20.5769C138.11 19.7588 137.366 19.3497 136.321 19.3497V40.0409Z" fill="#8558DD"/>
<path d="M154.367 44.6657C153.468 44.6657 152.69 44.5222 152.037 44.2383C151.384 43.9514 150.84 43.5484 150.411 43.0234C149.98 42.4983 149.64 41.8725 149.391 41.149C149.139 40.4255 148.959 39.6166 148.856 38.7282C148.75 37.8368 148.698 36.8935 148.698 35.8984H152.903C152.903 36.7501 152.93 37.556 152.982 38.3192C153.033 39.0823 153.167 39.702 153.379 40.1721C153.592 40.6453 153.92 40.8804 154.37 40.8804C154.819 40.8804 155.154 40.6972 155.372 40.3309C155.591 39.9646 155.737 39.5006 155.81 38.9358C155.883 38.3711 155.919 37.7819 155.919 37.1713C155.919 35.5778 155.81 34.3568 155.591 33.5142C155.372 32.6717 154.99 32.0764 154.44 31.7314C153.89 31.3865 153.115 31.1789 152.11 31.1148V27.5279C153.115 27.476 153.863 27.2898 154.352 26.9692C154.841 26.6517 155.166 26.1206 155.324 25.3849C155.482 24.6492 155.561 23.6204 155.561 22.3047C155.561 21.6545 155.536 21.0378 155.491 20.4609C155.445 19.8839 155.33 19.4138 155.145 19.0566C154.959 18.6964 154.649 18.5194 154.212 18.5194C153.802 18.5194 153.492 18.7544 153.279 19.2276C153.067 19.7008 152.924 20.3143 152.854 21.0714C152.781 21.8285 152.745 22.6405 152.745 23.5044H148.54C148.54 22.2284 148.625 21.0561 148.798 19.9847C148.971 18.9162 149.266 17.9882 149.691 17.2036C150.114 16.4191 150.694 15.8116 151.426 15.3781C152.161 14.9477 153.088 14.731 154.212 14.731C155.111 14.731 155.907 14.8989 156.603 15.2408C157.298 15.5796 157.879 16.0467 158.35 16.645C158.817 17.2433 159.173 17.9332 159.41 18.7178C159.647 19.5023 159.768 20.3388 159.768 21.2302C159.768 22.5581 159.674 23.7578 159.492 24.8293C159.307 25.9008 159.033 26.8044 158.669 27.5401C158.304 28.2788 157.839 28.8314 157.271 29.2038C158.21 29.9212 158.921 30.953 159.404 32.2931C159.887 33.6363 160.127 35.1566 160.127 36.8569C160.127 38.2001 159.911 39.4639 159.483 40.6545C159.051 41.845 158.413 42.8097 157.569 43.5545C156.721 44.2994 155.658 44.6718 154.376 44.6718L154.367 44.6657Z" fill="white"/>
<path d="M55.727 27.999L27.8633 0L-0.000453283 27.999L27.8633 55.998L55.727 27.999Z" fill="white"/>
<path d="M32.4716 4.63232L10.3797 26.8316L10.3037 28.6449L14.9123 33.2758L32.0949 16.0097L35.9379 19.8714L19.6971 36.1911L19.6211 38.0075L24.2297 42.6354L41.4123 25.3724L45.2553 29.234L23.2393 51.3539L27.8631 56.0001L55.7272 28.0007L32.4716 4.63232Z" fill="#542B53"/>
<path d="M32.592 4.375L10.5 26.5742L15.1086 31.2052L32.2912 13.9391L37.0001 18.6677L19.8174 35.9338L24.426 40.5647L41.6086 23.2987L46.3296 28.0456L23.3748 51.1118L27.9834 55.7428L55.8475 27.7434L32.592 4.375Z" fill="url(#paint0_radial_863_531)"/>
<defs>
<radialGradient id="paint0_radial_863_531" cx="0" cy="0" r="1" gradientUnits="userSpaceOnUse" gradientTransform="translate(23.1288 37.0114) scale(24.6317 24.7513)">
<stop stop-color="#AE508E"/>
<stop offset="1" stop-color="#8558DD"/>
</radialGradient>
</defs>
</svg>
